font.ufo
<glyph name="exclam" format="2">
	<unicode hex="0021"/>
	<advance width="273"/>
	<outline>
		<contour>
			<point x="137" y="-8" type="curve" smooth="yes"/>
			<point x="157" y="-8"/>
			<point x="174" y="7"/>
			<point x="174" y="30" type="curve" smooth="yes"/>
			<point x="174" y="52"/>
			<point x="157" y="67"/>
			<point x="137" y="67" type="curve" smooth="yes"/>
			<point x="116" y="67"/>
			<point x="99" y="52"/>
			<point x="99" y="30" type="curve" smooth="yes"/>
			<point x="99" y="7"/>
			<point x="116" y="-8"/>
		</contour>
		<contour>
			<point x="138" y="687" type="curve" smooth="yes"/>
			<point x="120" y="687"/>
			<point x="109" y="676"/>
			<point x="109" y="650" type="curve" smooth="yes"/>
			<point x="109" y="600"/>
			<point x="117" y="516"/>
			<point x="123" y="385" type="curve" smooth="yes"/>
			<point x="130" y="187" type="line"/>
			<point x="145" y="187" type="line"/>
			<point x="153" y="385" type="line" smooth="yes"/>
			<point x="158" y="516"/>
			<point x="166" y="600"/>
			<point x="166" y="650" type="curve" smooth="yes"/>
			<point x="166" y="676"/>
			<point x="156" y="687"/>
		</contour>
	</outline>
</glyph>
<glyph name="dollar" format="2">
	<unicode hex="0024"/>
	<advance width="463"/>
	<outline>
		<contour>
			<point x="225" y="4" type="curve" smooth="yes"/>
			<point x="175" y="4"/>
			<point x="138" y="16"/>
			<point x="100" y="54" type="curve"/>
			<point x="127" y="23" type="line"/>
			<point x="106" y="109" type="line" smooth="yes"/>
			<point x="100" y="133"/>
			<point x="91" y="143"/>
			<point x="76" y="143" type="curve" smooth="yes"/>
			<point x="61" y="143"/>
			<point x="53" y="134"/>
			<point x="49" y="119" type="curve"/>
			<point x="68" y="36"/>
			<point x="133" y="-12"/>
			<point x="227" y="-12" type="curve" smooth="yes"/>
			<point x="328" y="-12"/>
			<point x="409" y="49"/>
			<point x="409" y="160" type="curve" smooth="yes"/>
			<point x="409" y="246"/>
			<point x="361" y="294"/>
			<point x="255" y="347" type="curve" smooth="yes"/>
			<point x="222" y="363" type="line" smooth="yes"/>
			<point x="150" y="399"/>
			<point x="108" y="439"/>
			<point x="108" y="505" type="curve" smooth="yes"/>
			<point x="108" y="604"/>
			<point x="168" y="649"/>
			<point x="247" y="649" type="curve" smooth="yes"/>
			<point x="291" y="649"/>
			<point x="323" y="638"/>
			<point x="361" y="599" type="curve"/>
			<point x="333" y="632" type="line"/>
			<point x="356" y="543" type="line" smooth="yes"/>
			<point x="362" y="519"/>
			<point x="371" y="510"/>
			<point x="385" y="510" type="curve" smooth="yes"/>
			<point x="400" y="510"/>
			<point x="408" y="518"/>
			<point x="412" y="532" type="curve"/>
			<point x="393" y="614"/>
			<point x="330" y="665"/>
			<point x="245" y="665" type="curve" smooth="yes"/>
			<point x="154" y="665"/>
			<point x="74" y="608"/>
			<point x="74" y="498" type="curve" smooth="yes"/>
			<point x="74" y="410"/>
			<point x="130" y="365"/>
			<point x="212" y="325" type="curve" smooth="yes"/>
			<point x="245" y="308" type="line" smooth="yes"/>
			<point x="336" y="263"/>
			<point x="373" y="224"/>
			<point x="373" y="155" type="curve" smooth="yes"/>
			<point x="373" y="53"/>
			<point x="312" y="4"/>
		</contour>
		<contour>
			<point x="248" y="328" type="line"/>
			<point x="248" y="756" type="line"/>
			<point x="231" y="756" type="line"/>
			<point x="231" y="328" type="line"/>
		</contour>
		<contour>
			<point x="231" y="-116" type="line"/>
			<point x="248" y="-116" type="line"/>
			<point x="248" y="328" type="line"/>
			<point x="231" y="328" type="line"/>
		</contour>
	</outline>
</glyph>
<glyph name="ampersand" format="2">
	<unicode hex="0026"/>
	<advance width="671"/>
	<outline>
		<contour>
			<point x="234" y="-12" type="curve" smooth="yes"/>
			<point x="337" y="-12"/>
			<point x="399" y="43"/>
			<point x="446" y="108" type="curve"/>
			<point x="438" y="113" type="line"/>
			<point x="431" y="116" type="line"/>
			<point x="383" y="50"/>
			<point x="321" y="19"/>
			<point x="243" y="19" type="curve" smooth="yes"/>
			<point x="142" y="19"/>
			<point x="82" y="102"/>
			<point x="82" y="181" type="curve" smooth="yes"/>
			<point x="82" y="254"/>
			<point x="117" y="321"/>
			<point x="217" y="378" type="curve"/>
			<point x="212" y="383" type="line"/>
			<point x="206" y="387" type="line"/>
			<point x="94" y="327"/>
			<point x="39" y="262"/>
			<point x="39" y="171" type="curve" smooth="yes"/>
			<point x="39" y="69"/>
			<point x="117" y="-12"/>
		</contour>
		<contour>
			<point x="448" y="107" type="line"/>
			<point x="514" y="201"/>
			<point x="538" y="285"/>
			<point x="558" y="413" type="curve"/>
			<point x="534" y="413" type="line"/>
			<point x="518" y="288"/>
			<point x="497" y="212"/>
			<point x="438" y="121" type="curve"/>
			<point x="434" y="121" type="line"/>
		</contour>
		<contour>
			<point x="538" y="400" type="line"/>
			<point x="553" y="400" type="line"/>
			<point x="628" y="408" type="line"/>
			<point x="628" y="420" type="line"/>
			<point x="450" y="420" type="line"/>
			<point x="450" y="408" type="line"/>
		</contour>
		<contour>
			<point x="574" y="-7" type="curve" smooth="yes"/>
			<point x="594" y="-7"/>
			<point x="613" y="-5"/>
			<point x="632" y="0" type="curve"/>
			<point x="632" y="11" type="line"/>
			<point x="520" y="20" type="line"/>
			<point x="562" y="8" type="line"/>
			<point x="454" y="131"/>
			<point x="385" y="210"/>
			<point x="318" y="288" type="curve" smooth="yes"/>
			<point x="272" y="341"/>
			<point x="242" y="376"/>
			<point x="196" y="433" type="curve" smooth="yes"/>
			<point x="156" y="484"/>
			<point x="147" y="518"/>
			<point x="147" y="557" type="curve" smooth="yes"/>
			<point x="147" y="626"/>
			<point x="193" y="671"/>
			<point x="248" y="671" type="curve" smooth="yes"/>
			<point x="305" y="671"/>
			<point x="344" y="626"/>
			<point x="344" y="559" type="curve" smooth="yes"/>
			<point x="344" y="490"/>
			<point x="293" y="439"/>
			<point x="216" y="391" type="curve"/>
			<point x="221" y="386" type="line"/>
			<point x="225" y="381" type="line"/>
			<point x="321" y="436"/>
			<point x="379" y="487"/>
			<point x="379" y="559" type="curve" smooth="yes"/>
			<point x="379" y="630"/>
			<point x="335" y="687"/>
			<point x="249" y="687" type="curve" smooth="yes"/>
			<point x="171" y="687"/>
			<point x="110" y="628"/>
			<point x="110" y="551" type="curve" smooth="yes"/>
			<point x="110" y="500"/>
			<point x="129" y="455"/>
			<point x="172" y="404" type="curve" smooth="yes"/>
			<point x="227" y="338"/>
			<point x="251" y="309"/>
			<point x="297" y="253" type="curve" smooth="yes"/>
			<point x="358" y="180"/>
			<point x="417" y="112"/>
			<point x="490" y="24" type="curve" smooth="yes"/>
			<point x="511" y="-1"/>
			<point x="532" y="-7"/>
		</contour>
	</outline>
</glyph>
<glyph name="quotesingle" format="2">
	<unicode hex="0027"/>
	<advance width="152"/>
	<outline>
		<contour>
			<point x="76" y="744" type="curve" smooth="yes"/>
			<point x="60" y="744"/>
			<point x="54" y="733"/>
			<point x="54" y="712" type="curve" smooth="yes"/>
			<point x="54" y="677"/>
			<point x="62" y="605"/>
			<point x="65" y="553" type="curve" smooth="yes"/>
			<point x="70" y="455" type="line"/>
			<point x="82" y="455" type="line"/>
			<point x="88" y="553" type="line" smooth="yes"/>
			<point x="90" y="605"/>
			<point x="98" y="677"/>
			<point x="98" y="712" type="curve" smooth="yes"/>
			<point x="98" y="733"/>
			<point x="92" y="744"/>
		</contour>
	</outline>
</glyph>
<glyph name="parenleft" format="2">
	<unicode hex="0028"/>
	<advance width="301"/>
	<outline>
		<contour>
			<point x="124" y="276" type="curve" smooth="yes"/>
			<point x="124" y="461"/>
			<point x="178" y="610"/>
			<point x="275" y="757" type="curve"/>
			<point x="266" y="763" type="line"/>
			<point x="148" y="617"/>
			<point x="87" y="450"/>
			<point x="87" y="276" type="curve" smooth="yes"/>
			<point x="87" y="102"/>
			<point x="148" y="-65"/>
			<point x="266" y="-211" type="curve"/>
			<point x="275" y="-205" type="line"/>
			<point x="178" y="-58"/>
			<point x="124" y="91"/>
		</contour>
	</outline>
</glyph>
<glyph name="asterisk" format="2">
	<unicode hex="002A"/>
	<advance width="412"/>
	<outline>
		<contour>
			<point x="201" y="563" type="line"/>
			<point x="210" y="563" type="line"/>
			<point x="216" y="618" type="line" smooth="yes"/>
			<point x="221" y="667"/>
			<point x="225" y="707"/>
			<point x="225" y="727" type="curve" smooth="yes"/>
			<point x="225" y="744"/>
			<point x="220" y="753"/>
			<point x="206" y="753" type="curve" smooth="yes"/>
			<point x="192" y="753"/>
			<point x="186" y="744"/>
			<point x="186" y="727" type="curve" smooth="yes"/>
			<point x="186" y="707"/>
			<point x="191" y="667"/>
			<point x="196" y="618" type="curve" smooth="yes"/>
		</contour>
		<contour>
			<point x="204" y="558" type="line"/>
			<point x="207" y="567" type="line"/>
			<point x="156" y="588" type="line" smooth="yes"/>
			<point x="112" y="609"/>
			<point x="75" y="626"/>
			<point x="55" y="632" type="curve" smooth="yes"/>
			<point x="40" y="637"/>
			<point x="29" y="635"/>
			<point x="25" y="621" type="curve" smooth="yes"/>
			<point x="21" y="608"/>
			<point x="28" y="600"/>
			<point x="44" y="595" type="curve" smooth="yes"/>
			<point x="62" y="589"/>
			<point x="102" y="581"/>
			<point x="151" y="571" type="curve" smooth="yes"/>
		</contour>
		<contour>
			<point x="209" y="560" type="line"/>
			<point x="202" y="565" type="line"/>
			<point x="166" y="524" type="line" smooth="yes"/>
			<point x="133" y="487"/>
			<point x="106" y="457"/>
			<point x="94" y="441" type="curve" smooth="yes"/>
			<point x="83" y="428"/>
			<point x="83" y="417"/>
			<point x="94" y="409" type="curve" smooth="yes"/>
			<point x="105" y="401"/>
			<point x="115" y="405"/>
			<point x="125" y="418" type="curve" smooth="yes"/>
			<point x="137" y="435"/>
			<point x="157" y="470"/>
			<point x="181" y="513" type="curve" smooth="yes"/>
		</contour>
		<contour>
			<point x="209" y="565" type="line"/>
			<point x="202" y="560" type="line"/>
			<point x="231" y="513" type="line" smooth="yes"/>
			<point x="255" y="470"/>
			<point x="275" y="435"/>
			<point x="287" y="418" type="curve" smooth="yes"/>
			<point x="296" y="405"/>
			<point x="306" y="401"/>
			<point x="318" y="409" type="curve" smooth="yes"/>
			<point x="329" y="417"/>
			<point x="328" y="428"/>
			<point x="318" y="441" type="curve" smooth="yes"/>
			<point x="307" y="457"/>
			<point x="279" y="487"/>
			<point x="246" y="524" type="curve" smooth="yes"/>
		</contour>
		<contour>
			<point x="204" y="567" type="line"/>
			<point x="207" y="558" type="line"/>
			<point x="261" y="571" type="line" smooth="yes"/>
			<point x="309" y="581"/>
			<point x="349" y="589"/>
			<point x="368" y="595" type="curve" smooth="yes"/>
			<point x="384" y="600"/>
			<point x="391" y="608"/>
			<point x="387" y="621" type="curve" smooth="yes"/>
			<point x="382" y="635"/>
			<point x="372" y="637"/>
			<point x="356" y="632" type="curve" smooth="yes"/>
			<point x="337" y="626"/>
			<point x="300" y="609"/>
			<point x="255" y="588" type="curve" smooth="yes"/>
		</contour>
	</outline>
</glyph>
<glyph name="plus" format="2">
	<unicode hex="002B"/>
	<advance width="496"/>
	<outline>
		<contour>
			<point x="237" y="101" type="line"/>
			<point x="260" y="101" type="line"/>
			<point x="260" y="560" type="line"/>
			<point x="237" y="560" type="line"/>
		</contour>
		<contour>
			<point x="463" y="323" type="line"/>
			<point x="463" y="345" type="line"/>
			<point x="33" y="345" type="line"/>
			<point x="33" y="323" type="line"/>
		</contour>
	</outline>
</glyph>
<glyph name="comma" format="2">
	<unicode hex="002C"/>
	<advance width="267"/>
	<outline>
		<contour>
			<point x="171" y="5" type="curve" smooth="yes"/>
			<point x="171" y="26"/>
			<point x="170" y="38"/>
			<point x="165" y="55" type="curve"/>
			<point x="153" y="65"/>
			<point x="145" y="68"/>
			<point x="132" y="68" type="curve" smooth="yes"/>
			<point x="111" y="68"/>
			<point x="97" y="52"/>
			<point x="97" y="32" type="curve" smooth="yes"/>
			<point x="97" y="18"/>
			<point x="105" y="6"/>
			<point x="121" y="-5" type="curve" smooth="yes"/>
			<point x="154" y="-29" type="line"/>
			<point x="151" y="-8" type="line"/>
			<point x="140" y="-59"/>
			<point x="114" y="-86"/>
			<point x="62" y="-116" type="curve"/>
			<point x="68" y="-128" type="line"/>
			<point x="127" y="-102"/>
			<point x="171" y="-54"/>
		</contour>
	</outline>
</glyph>
<glyph name="period" format="2">
	<unicode hex="002E"/>
	<advance width="267"/>
	<outline>
		<contour>
			<point x="133" y="-8" type="curve" smooth="yes"/>
			<point x="154" y="-8"/>
			<point x="171" y="7"/>
			<point x="171" y="30" type="curve" smooth="yes"/>
			<point x="171" y="52"/>
			<point x="154" y="67"/>
			<point x="133" y="67" type="curve" smooth="yes"/>
			<point x="113" y="67"/>
			<point x="96" y="52"/>
			<point x="96" y="30" type="curve" smooth="yes"/>
			<point x="96" y="7"/>
			<point x="113" y="-8"/>
		</contour>
	</outline>
</glyph>
<glyph name="zero" format="2">
	<unicode hex="0030"/>
	<advance width="463"/>
	<outline>
		<contour>
			<point x="231" y="-12" type="curve" smooth="yes"/>
			<point x="328" y="-12"/>
			<point x="415" y="82"/>
			<point x="415" y="324" type="curve" smooth="yes"/>
			<point x="415" y="568"/>
			<point x="328" y="665"/>
			<point x="231" y="665" type="curve" smooth="yes"/>
			<point x="135" y="665"/>
			<point x="48" y="568"/>
			<point x="48" y="324" type="curve" smooth="yes"/>
			<point x="48" y="82"/>
			<point x="135" y="-12"/>
		</contour>
		<contour>
			<point x="231" y="4" type="curve" smooth="yes"/>
			<point x="164" y="4"/>
			<point x="91" y="81"/>
			<point x="91" y="324" type="curve" smooth="yes"/>
			<point x="91" y="568"/>
			<point x="164" y="649"/>
			<point x="231" y="649" type="curve" smooth="yes"/>
			<point x="299" y="649"/>
			<point x="372" y="568"/>
			<point x="372" y="324" type="curve" smooth="yes"/>
			<point x="372" y="81"/>
			<point x="299" y="4"/>
		</contour>
	</outline>
</glyph>
<glyph name="one" format="2">
	<unicode hex="0031"/>
	<advance width="463"/>
	<outline>
		<contour>
			<point x="77" y="0" type="line"/>
			<point x="404" y="0" type="line"/>
			<point x="404" y="12" type="line"/>
			<point x="249" y="24" type="line"/>
			<point x="236" y="24" type="line"/>
			<point x="77" y="12" type="line"/>
		</contour>
		<contour>
			<point x="221" y="0" type="curve"/>
			<point x="265" y="0" type="line"/>
			<point x="263" y="73"/>
			<point x="263" y="156"/>
			<point x="263" y="247" type="curve" smooth="yes"/>
			<point x="263" y="413" type="line"/>
			<point x="265" y="654" type="line"/>
			<point x="259" y="660" type="line"/>
			<point x="83" y="607" type="line"/>
			<point x="83" y="596" type="line"/>
			<point x="224" y="620" type="line"/>
			<point x="224" y="247" type="line" smooth="yes"/>
			<point x="224" y="156"/>
			<point x="224" y="73"/>
		</contour>
	</outline>
</glyph>
<glyph name="question" format="2">
	<unicode hex="003F"/>
	<advance width="360"/>
	<outline>
		<contour>
			<point x="137" y="-8" type="curve" smooth="yes"/>
			<point x="157" y="-8"/>
			<point x="175" y="7"/>
			<point x="175" y="30" type="curve" smooth="yes"/>
			<point x="175" y="52"/>
			<point x="157" y="68"/>
			<point x="137" y="68" type="curve" smooth="yes"/>
			<point x="117" y="68"/>
			<point x="100" y="52"/>
			<point x="100" y="30" type="curve" smooth="yes"/>
			<point x="100" y="7"/>
			<point x="117" y="-8"/>
		</contour>
		<contour>
			<point x="309" y="488" type="curve" smooth="yes"/>
			<point x="309" y="608"/>
			<point x="199" y="664"/>
			<point x="95" y="687" type="curve"/>
			<point x="78" y="683"/>
			<point x="71" y="671"/>
			<point x="71" y="659" type="curve" smooth="yes"/>
			<point x="71" y="644"/>
			<point x="82" y="634"/>
			<point x="111" y="631" type="curve" smooth="yes"/>
			<point x="240" y="612" type="line"/>
			<point x="193" y="636" type="line"/>
			<point x="255" y="595"/>
			<point x="285" y="557"/>
			<point x="285" y="498" type="curve" smooth="yes"/>
			<point x="285" y="448"/>
			<point x="262" y="421"/>
			<point x="208" y="387" type="curve" smooth="yes"/>
			<point x="170" y="365" type="line" smooth="yes"/>
			<point x="119" y="334"/>
			<point x="107" y="317"/>
			<point x="107" y="287" type="curve" smooth="yes"/>
			<point x="107" y="271"/>
			<point x="111" y="254"/>
			<point x="117" y="220" type="curve" smooth="yes"/>
			<point x="124" y="187" type="line"/>
			<point x="139" y="187" type="line"/>
			<point x="136" y="259" type="line" smooth="yes"/>
			<point x="135" y="294"/>
			<point x="149" y="308"/>
			<point x="191" y="334" type="curve" smooth="yes"/>
			<point x="224" y="354" type="line" smooth="yes"/>
			<point x="280" y="387"/>
			<point x="309" y="420"/>
		</contour>
	</outline>
</glyph>
<glyph name="at" format="2">
	<unicode hex="0040"/>
	<advance width="815"/>
	<outline>
		<contour>
			<point x="326" y="53" type="curve" smooth="yes"/>
			<point x="389" y="53"/>
			<point x="445" y="109"/>
			<point x="501" y="188" type="curve"/>
			<point x="498" y="191" type="line"/>
			<point x="496" y="193" type="line"/>
			<point x="432" y="116"/>
			<point x="383" y="83"/>
			<point x="335" y="83" type="curve" smooth="yes"/>
			<point x="295" y="83"/>
			<point x="271" y="112"/>
			<point x="271" y="176" type="curve" smooth="yes"/>
			<point x="271" y="281"/>
			<point x="347" y="445"/>
			<point x="463" y="445" type="curve" smooth="yes"/>
			<point x="497" y="445"/>
			<point x="524" y="428"/>
			<point x="540" y="407" type="curve"/>
			<point x="550" y="429" type="line"/>
			<point x="534" y="454"/>
			<point x="502" y="470"/>
			<point x="472" y="470" type="curve" smooth="yes"/>
			<point x="358" y="470"/>
			<point x="235" y="299"/>
			<point x="235" y="164" type="curve" smooth="yes"/>
			<point x="235" y="81"/>
			<point x="283" y="53"/>
		</contour>
		<contour>
			<point x="557" y="53" type="curve" smooth="yes"/>
			<point x="658" y="53"/>
			<point x="784" y="151"/>
			<point x="784" y="340" type="curve" smooth="yes"/>
			<point x="784" y="528"/>
			<point x="658" y="663"/>
			<point x="463" y="663" type="curve" smooth="yes"/>
			<point x="215" y="663"/>
			<point x="31" y="450"/>
			<point x="31" y="202" type="curve" smooth="yes"/>
			<point x="31" y="-29"/>
			<point x="175" y="-156"/>
			<point x="378" y="-156" type="curve" smooth="yes"/>
			<point x="448" y="-156"/>
			<point x="512" y="-140"/>
			<point x="568" y="-111" type="curve"/>
			<point x="563" y="-101" type="line"/>
			<point x="506" y="-127"/>
			<point x="452" y="-140"/>
			<point x="378" y="-140" type="curve" smooth="yes"/>
			<point x="194" y="-140"/>
			<point x="61" y="-14"/>
			<point x="61" y="202" type="curve" smooth="yes"/>
			<point x="61" y="441"/>
			<point x="229" y="646"/>
			<point x="463" y="646" type="curve" smooth="yes"/>
			<point x="635" y="646"/>
			<point x="754" y="525"/>
			<point x="754" y="340" type="curve" smooth="yes"/>
			<point x="754" y="163"/>
			<point x="651" y="70"/>
			<point x="564" y="70" type="curve" smooth="yes"/>
			<point x="518" y="70"/>
			<point x="496" y="106"/>
			<point x="509" y="167" type="curve" smooth="yes"/>
			<point x="570" y="466" type="line"/>
			<point x="565" y="471" type="line"/>
			<point x="530" y="435" type="line"/>
			<point x="475" y="165" type="line"/>
			<point x="476" y="162" type="line"/>
			<point x="461" y="96"/>
			<point x="496" y="53"/>
		</contour>
	</outline>
</glyph>
<glyph name="A" format="2">
	<unicode hex="0041"/>
	<advance width="613"/>
	<outline>
		<contour>
			<point x="9" y="0" type="line"/>
			<point x="200" y="0" type="line"/>
			<point x="200" y="12" type="line"/>
			<point x="104" y="20" type="line"/>
			<point x="91" y="20" type="line"/>
			<point x="9" y="12" type="line"/>
		</contour>
		<contour>
			<point x="79" y="0" type="line"/>
			<point x="101" y="0" type="line"/>
			<point x="301" y="624" type="line"/>
			<point x="290" y="624" type="line"/>
			<point x="488" y="0" type="line"/>
			<point x="535" y="0" type="line"/>
			<point x="313" y="681" type="line"/>
			<point x="299" y="681" type="line"/>
		</contour>
		<contour>
			<point x="169" y="251" type="line"/>
			<point x="435" y="251" type="line"/>
			<point x="425" y="269" type="line"/>
			<point x="180" y="269" type="line"/>
		</contour>
		<contour>
			<point x="390" y="0" type="line"/>
			<point x="604" y="0" type="line"/>
			<point x="604" y="12" type="line"/>
			<point x="517" y="20" type="line"/>
			<point x="493" y="20" type="line"/>
			<point x="390" y="12" type="line"/>
		</contour>
	</outline>
	<anchor name="aboveUC" x="307" y="693"/>
	<anchor name="belowLC" x="294" y="-20"/>
	<anchor name="ogonek" x="512" y="0"/>
</glyph>
<glyph name="B" format="2">
	<unicode hex="0042"/>
	<advance width="543"/>
	<outline>
		<contour>
			<point x="45" y="0" type="line"/>
			<point x="165" y="0" type="line"/>
			<point x="165" y="20" type="line"/>
			<point x="146" y="20" type="line"/>
			<point x="45" y="12" type="line"/>
		</contour>
		<contour>
			<point x="132" y="0" type="curve"/>
			<point x="180" y="0" type="line"/>
			<point x="178" y="85"/>
			<point x="178" y="214"/>
			<point x="178" y="321" type="curve" smooth="yes"/>
			<point x="178" y="360" type="line" smooth="yes"/>
			<point x="178" y="464"/>
			<point x="178" y="590"/>
			<point x="180" y="673" type="curve"/>
			<point x="132" y="673" type="line"/>
			<point x="135" y="590"/>
			<point x="135" y="464"/>
			<point x="135" y="360" type="curve" smooth="yes"/>
			<point x="135" y="321" type="line" smooth="yes"/>
			<point x="135" y="214"/>
			<point x="135" y="85"/>
		</contour>
		<contour>
			<point x="152" y="0" type="line"/>
			<point x="278" y="0" type="line" smooth="yes"/>
			<point x="433" y="0"/>
			<point x="504" y="81"/>
			<point x="504" y="180" type="curve" smooth="yes"/>
			<point x="504" y="278"/>
			<point x="437" y="353"/>
			<point x="279" y="355" type="curve"/>
			<point x="273" y="348" type="line"/>
			<point x="409" y="355"/>
			<point x="472" y="432"/>
			<point x="472" y="519" type="curve" smooth="yes"/>
			<point x="472" y="613"/>
			<point x="406" y="673"/>
			<point x="273" y="673" type="curve" smooth="yes"/>
			<point x="152" y="673" type="line"/>
			<point x="152" y="656" type="line"/>
			<point x="259" y="656" type="line" smooth="yes"/>
			<point x="381" y="656"/>
			<point x="431" y="605"/>
			<point x="431" y="517" type="curve" smooth="yes"/>
			<point x="431" y="419"/>
			<point x="366" y="359"/>
			<point x="243" y="359" type="curve" smooth="yes"/>
			<point x="152" y="359" type="line"/>
			<point x="152" y="342" type="line"/>
			<point x="252" y="342" type="line" smooth="yes"/>
			<point x="396" y="342"/>
			<point x="459" y="282"/>
			<point x="459" y="178" type="curve" smooth="yes"/>
			<point x="459" y="76"/>
			<point x="392" y="18"/>
			<point x="273" y="18" type="curve" smooth="yes"/>
			<point x="152" y="18" type="line"/>
		</contour>
		<contour>
			<point x="45" y="661" type="line"/>
			<point x="146" y="653" type="line"/>
			<point x="165" y="653" type="line"/>
			<point x="165" y="673" type="line"/>
			<point x="45" y="673" type="line"/>
		</contour>
	</outline>
	<anchor name="aboveUC" x="276" y="693"/>
	<anchor name="belowLC" x="279" y="-20"/>
</glyph>
<glyph name="D" format="2">
	<unicode hex="0044"/>
	<advance width="636"/>
	<outline>
		<contour>
			<point x="45" y="0" type="line"/>
			<point x="166" y="0" type="line"/>
			<point x="166" y="20" type="line"/>
			<point x="147" y="20" type="line"/>
			<point x="45" y="12" type="line"/>
		</contour>
		<contour>
			<point x="133" y="0" type="curve"/>
			<point x="180" y="0" type="line"/>
			<point x="177" y="85"/>
			<point x="177" y="214"/>
			<point x="177" y="321" type="curve" smooth="yes"/>
			<point x="177" y="360" type="line" smooth="yes"/>
			<point x="177" y="464"/>
			<point x="177" y="590"/>
			<point x="180" y="674" type="curve"/>
			<point x="133" y="674" type="line"/>
			<point x="135" y="590"/>
			<point x="135" y="464"/>
			<point x="135" y="360" type="curve" smooth="yes"/>
			<point x="135" y="321" type="line" smooth="yes"/>
			<point x="135" y="214"/>
			<point x="135" y="85"/>
		</contour>
		<contour>
			<point x="162" y="0" type="line"/>
			<point x="269" y="0" type="line" smooth="yes"/>
			<point x="464" y="0"/>
			<point x="583" y="129"/>
			<point x="583" y="337" type="curve" smooth="yes"/>
			<point x="583" y="554"/>
			<point x="468" y="674"/>
			<point x="277" y="674" type="curve" smooth="yes"/>
			<point x="162" y="674" type="line"/>
			<point x="162" y="656" type="line"/>
			<point x="270" y="656" type="line" smooth="yes"/>
			<point x="445" y="656"/>
			<point x="537" y="550"/>
			<point x="537" y="337" type="curve" smooth="yes"/>
			<point x="537" y="143"/>
			<point x="445" y="18"/>
			<point x="257" y="18" type="curve" smooth="yes"/>
			<point x="162" y="18" type="line"/>
		</contour>
		<contour>
			<point x="45" y="662" type="line"/>
			<point x="147" y="653" type="line"/>
			<point x="166" y="653" type="line"/>
			<point x="166" y="674" type="line"/>
			<point x="45" y="674" type="line"/>
		</contour>
	</outline>
	<anchor name="aboveUC" x="311" y="694"/>
	<anchor name="belowLC" x="311" y="-20"/>
</glyph>
<glyph name="E" format="2">
	<unicode hex="0045"/>
	<advance width="541"/>
	<outline>
		<contour>
			<point x="45" y="0" type="line"/>
			<point x="160" y="0" type="line"/>
			<point x="160" y="20" type="line"/>
			<point x="147" y="20" type="line"/>
			<point x="45" y="12" type="line"/>
		</contour>
		<contour>
			<point x="133" y="0" type="curve"/>
			<point x="180" y="0" type="line"/>
			<point x="177" y="85"/>
			<point x="177" y="214"/>
			<point x="177" y="321" type="curve" smooth="yes"/>
			<point x="177" y="360" type="line" smooth="yes"/>
			<point x="177" y="464"/>
			<point x="177" y="590"/>
			<point x="180" y="674" type="curve"/>
			<point x="133" y="674" type="line"/>
			<point x="135" y="590"/>
			<point x="135" y="464"/>
			<point x="135" y="360" type="curve" smooth="yes"/>
			<point x="135" y="321" type="line" smooth="yes"/>
			<point x="135" y="214"/>
			<point x="135" y="85"/>
		</contour>
		<contour>
			<point x="156" y="0" type="line"/>
			<point x="486" y="0" type="line"/>
			<point x="497" y="178" type="line"/>
			<point x="485" y="178" type="line"/>
			<point x="447" y="9" type="line"/>
			<point x="469" y="18" type="line"/>
			<point x="156" y="18" type="line"/>
		</contour>
		<contour>
			<point x="156" y="335" type="line"/>
			<point x="347" y="335" type="line"/>
			<point x="347" y="353" type="line"/>
			<point x="156" y="353" type="line"/>
		</contour>
		<contour>
			<point x="353" y="235" type="line"/>
			<point x="365" y="235" type="line"/>
			<point x="365" y="453" type="line"/>
			<point x="353" y="453" type="line"/>
			<point x="333" y="350" type="line"/>
			<point x="333" y="338" type="line"/>
		</contour>
		<contour>
			<point x="45" y="662" type="line"/>
			<point x="147" y="653" type="line"/>
			<point x="160" y="653" type="line"/>
			<point x="160" y="674" type="line"/>
			<point x="45" y="674" type="line"/>
		</contour>
		<contour>
			<point x="472" y="504" type="line"/>
			<point x="484" y="504" type="line"/>
			<point x="473" y="674" type="line"/>
			<point x="156" y="674" type="line"/>
			<point x="156" y="656" type="line"/>
			<point x="455" y="656" type="line"/>
			<point x="433" y="666" type="line"/>
		</contour>
	</outline>
	<anchor name="aboveUC" x="301" y="694"/>
	<anchor name="belowLC" x="296" y="-20"/>
	<anchor name="ogonek" x="410" y="0"/>
</glyph>
<glyph name="F" format="2">
	<unicode hex="0046"/>
	<advance width="513"/>
	<outline>
		<contour>
			<point x="45" y="0" type="line"/>
			<point x="281" y="0" type="line"/>
			<point x="281" y="12" type="line"/>
			<point x="165" y="20" type="line"/>
			<point x="146" y="20" type="line"/>
			<point x="45" y="12" type="line"/>
		</contour>
		<contour>
			<point x="132" y="0" type="curve"/>
			<point x="180" y="0" type="line"/>
			<point x="178" y="85"/>
			<point x="178" y="214"/>
			<point x="178" y="321" type="curve" smooth="yes"/>
			<point x="178" y="360" type="line" smooth="yes"/>
			<point x="178" y="464"/>
			<point x="178" y="590"/>
			<point x="180" y="674" type="curve"/>
			<point x="132" y="674" type="line"/>
			<point x="135" y="590"/>
			<point x="135" y="464"/>
			<point x="135" y="360" type="curve" smooth="yes"/>
			<point x="135" y="321" type="line" smooth="yes"/>
			<point x="135" y="214"/>
			<point x="135" y="85"/>
		</contour>
		<contour>
			<point x="156" y="335" type="line"/>
			<point x="346" y="335" type="line"/>
			<point x="346" y="353" type="line"/>
			<point x="156" y="353" type="line"/>
		</contour>
		<contour>
			<point x="352" y="235" type="line"/>
			<point x="364" y="235" type="line"/>
			<point x="364" y="453" type="line"/>
			<point x="352" y="453" type="line"/>
			<point x="332" y="350" type="line"/>
			<point x="332" y="338" type="line"/>
		</contour>
		<contour>
			<point x="45" y="662" type="line"/>
			<point x="146" y="653" type="line"/>
			<point x="160" y="653" type="line"/>
			<point x="160" y="674" type="line"/>
			<point x="45" y="674" type="line"/>
		</contour>
		<contour>
			<point x="470" y="504" type="line"/>
			<point x="483" y="504" type="line"/>
			<point x="471" y="674" type="line"/>
			<point x="156" y="674" type="line"/>
			<point x="156" y="656" type="line"/>
			<point x="453" y="656" type="line"/>
			<point x="432" y="666" type="line"/>
		</contour>
	</outline>
	<anchor name="aboveUC" x="297" y="694"/>
	<anchor name="belowLC" x="156" y="-20"/>
</glyph>
<glyph name="G" format="2">
	<unicode hex="0047"/>
	<advance width="622"/>
	<outline>
		<contour>
			<point x="350" y="-14" type="curve" smooth="yes"/>
			<point x="417" y="-14"/>
			<point x="469" y="2"/>
			<point x="528" y="40" type="curve"/>
			<point x="528" y="96" type="line" smooth="yes"/>
			<point x="528" y="174"/>
			<point x="529" y="248"/>
			<point x="531" y="320" type="curve"/>
			<point x="486" y="320" type="line"/>
			<point x="489" y="248"/>
			<point x="489" y="174"/>
			<point x="489" y="96" type="curve" smooth="yes"/>
			<point x="489" y="30" type="line"/>
			<point x="505" y="48" type="line"/>
			<point x="456" y="16"/>
			<point x="405" y="2"/>
			<point x="349" y="2" type="curve" smooth="yes"/>
			<point x="197" y="2"/>
			<point x="101" y="127"/>
			<point x="101" y="336" type="curve" smooth="yes"/>
			<point x="101" y="543"/>
			<point x="202" y="671"/>
			<point x="355" y="671" type="curve" smooth="yes"/>
			<point x="416" y="671"/>
			<point x="458" y="659"/>
			<point x="510" y="621" type="curve"/>
			<point x="508" y="639" type="line"/>
			<point x="484" y="643" type="line"/>
			<point x="518" y="484" type="line"/>
			<point x="530" y="484" type="line"/>
			<point x="522" y="636" type="line"/>
			<point x="469" y="673"/>
			<point x="417" y="687"/>
			<point x="353" y="687" type="curve" smooth="yes"/>
			<point x="175" y="687"/>
			<point x="56" y="548"/>
			<point x="56" y="337" type="curve" smooth="yes"/>
			<point x="56" y="126"/>
			<point x="164" y="-14"/>
		</contour>
		<contour>
			<point x="379" y="308" type="line"/>
			<point x="500" y="299" type="line"/>
			<point x="518" y="299" type="line"/>
			<point x="598" y="308" type="line"/>
			<point x="598" y="320" type="line"/>
			<point x="379" y="320" type="line"/>
		</contour>
	</outline>
	<anchor name="aboveUC" x="345" y="694"/>
	<anchor name="belowLC" x="348" y="-20"/>
</glyph>
<glyph name="H" format="2">
	<unicode hex="0048"/>
	<advance width="703"/>
	<outline>
		<contour>
			<point x="45" y="0" type="line"/>
			<point x="268" y="0" type="line"/>
			<point x="268" y="12" type="line"/>
			<point x="166" y="20" type="line"/>
			<point x="146" y="20" type="line"/>
			<point x="45" y="12" type="line"/>
		</contour>
		<contour>
			<point x="132" y="0" type="curve"/>
			<point x="180" y="0" type="line"/>
			<point x="178" y="85"/>
			<point x="178" y="214"/>
			<point x="178" y="321" type="curve" smooth="yes"/>
			<point x="178" y="360" type="line" smooth="yes"/>
			<point x="178" y="464"/>
			<point x="178" y="590"/>
			<point x="180" y="673" type="curve"/>
			<point x="132" y="673" type="line"/>
			<point x="135" y="590"/>
			<point x="135" y="464"/>
			<point x="135" y="360" type="curve" smooth="yes"/>
			<point x="135" y="321" type="line" smooth="yes"/>
			<point x="135" y="214"/>
			<point x="135" y="85"/>
		</contour>
		<contour>
			<point x="155" y="340" type="line"/>
			<point x="548" y="340" type="line"/>
			<point x="548" y="358" type="line"/>
			<point x="155" y="358" type="line"/>
		</contour>
		<contour>
			<point x="434" y="0" type="line"/>
			<point x="657" y="0" type="line"/>
			<point x="657" y="12" type="line"/>
			<point x="556" y="20" type="line"/>
			<point x="536" y="20" type="line"/>
			<point x="434" y="12" type="line"/>
		</contour>
		<contour>
			<point x="522" y="0" type="curve"/>
			<point x="570" y="0" type="line"/>
			<point x="568" y="85"/>
			<point x="568" y="214"/>
			<point x="568" y="321" type="curve" smooth="yes"/>
			<point x="568" y="360" type="line" smooth="yes"/>
			<point x="568" y="464"/>
			<point x="568" y="590"/>
			<point x="570" y="673" type="curve"/>
			<point x="522" y="673" type="line"/>
			<point x="525" y="590"/>
			<point x="525" y="464"/>
			<point x="525" y="360" type="curve" smooth="yes"/>
			<point x="525" y="321" type="line" smooth="yes"/>
			<point x="525" y="214"/>
			<point x="525" y="85"/>
		</contour>
		<contour>
			<point x="45" y="661" type="line"/>
			<point x="146" y="653" type="line"/>
			<point x="166" y="653" type="line"/>
			<point x="268" y="661" type="line"/>
			<point x="268" y="673" type="line"/>
			<point x="45" y="673" type="line"/>
		</contour>
		<contour>
			<point x="434" y="661" type="line"/>
			<point x="536" y="653" type="line"/>
			<point x="556" y="653" type="line"/>
			<point x="657" y="661" type="line"/>
			<point x="657" y="673" type="line"/>
			<point x="434" y="673" type="line"/>
		</contour>
	</outline>
	<anchor name="aboveUC" x="351" y="693"/>
	<anchor name="belowLC" x="351" y="-20"/>
</glyph>
<glyph name="J" format="2">
	<unicode hex="004A"/>
	<advance width="330"/>
	<outline>
		<contour>
			<point x="52" y="-124" type="curve" smooth="yes"/>
			<point x="90" y="-124"/>
			<point x="116" y="-106"/>
			<point x="146" y="-68" type="curve" smooth="yes"/>
			<point x="187" y="-16"/>
			<point x="191" y="63"/>
			<point x="191" y="208" type="curve" smooth="yes"/>
			<point x="191" y="361" type="line" smooth="yes"/>
			<point x="191" y="468"/>
			<point x="191" y="572"/>
			<point x="194" y="674" type="curve"/>
			<point x="148" y="674" type="line"/>
			<point x="149" y="347"/>
			<point x="152" y="230"/>
			<point x="152" y="139" type="curve" smooth="yes"/>
			<point x="152" y="-3"/>
			<point x="132" y="-70"/>
			<point x="78" y="-105" type="curve"/>
			<point x="78" y="-111" type="line"/>
			<point x="97" y="-111" type="line"/>
			<point x="97" y="-104" type="line"/>
			<point x="76" y="-88" type="line" smooth="yes"/>
			<point x="58" y="-75"/>
			<point x="43" y="-67"/>
			<point x="25" y="-67" type="curve" smooth="yes"/>
			<point x="4" y="-67"/>
			<point x="-8" y="-78"/>
			<point x="-9" y="-93" type="curve"/>
			<point x="-6" y="-114"/>
			<point x="23" y="-124"/>
		</contour>
		<contour>
			<point x="48" y="662" type="line"/>
			<point x="161" y="653" type="line"/>
			<point x="180" y="653" type="line"/>
			<point x="282" y="662" type="line"/>
			<point x="282" y="674" type="line"/>
			<point x="48" y="674" type="line"/>
		</contour>
	</outline>
	<anchor name="aboveUC" x="171" y="694"/>
	<anchor name="belowLC" x="84" y="-144"/>
</glyph>
<glyph name="K" format="2">
	<unicode hex="004B"/>
	<advance width="603"/>
	<outline>
		<contour>
			<point x="133" y="0" type="curve"/>
			<point x="180" y="0" type="line"/>
			<point x="177" y="85"/>
			<point x="177" y="214"/>
			<point x="177" y="321" type="curve" smooth="yes"/>
			<point x="177" y="360" type="line" smooth="yes"/>
			<point x="177" y="464"/>
			<point x="177" y="590"/>
			<point x="180" y="674" type="curve"/>
			<point x="133" y="674" type="line"/>
			<point x="135" y="590"/>
			<point x="135" y="464"/>
			<point x="135" y="360" type="curve" smooth="yes"/>
			<point x="135" y="321" type="line" smooth="yes"/>
			<point x="135" y="214"/>
			<point x="135" y="85"/>
		</contour>
		<contour>
			<point x="45" y="0" type="line"/>
			<point x="268" y="0" type="line"/>
			<point x="268" y="12" type="line"/>
			<point x="166" y="20" type="line"/>
			<point x="147" y="20" type="line"/>
			<point x="45" y="12" type="line"/>
		</contour>
		<contour>
			<point x="45" y="662" type="line"/>
			<point x="147" y="653" type="line"/>
			<point x="166" y="653" type="line"/>
			<point x="268" y="662" type="line"/>
			<point x="268" y="674" type="line"/>
			<point x="45" y="674" type="line"/>
		</contour>
		<contour>
			<point x="395" y="0" type="line"/>
			<point x="598" y="0" type="line"/>
			<point x="598" y="12" type="line"/>
			<point x="513" y="20" type="line"/>
			<point x="494" y="20" type="line"/>
			<point x="395" y="12" type="line"/>
		</contour>
		<contour>
			<point x="385" y="662" type="line"/>
			<point x="486" y="653" type="line"/>
			<point x="505" y="653" type="line"/>
			<point x="589" y="662" type="line"/>
			<point x="589" y="674" type="line"/>
			<point x="385" y="674" type="line"/>
		</contour>
		<contour>
			<point x="151" y="194" type="line"/>
			<point x="523" y="674" type="line"/>
			<point x="499" y="674" type="line"/>
			<point x="160" y="232" type="line"/>
			<point x="151" y="232" type="line"/>
		</contour>
		<contour>
			<point x="492" y="0" type="line"/>
			<point x="538" y="0" type="line"/>
			<point x="313" y="416" type="line"/>
			<point x="286" y="386" type="line"/>
		</contour>
	</outline>
	<anchor name="aboveUC" x="329" y="694"/>
	<anchor name="belowLC" x="325" y="-20"/>
</glyph>
<glyph name="L" format="2">
	<unicode hex="004C"/>
	<advance width="517"/>
	<outline>
		<contour>
			<point x="45" y="0" type="line"/>
			<point x="160" y="0" type="line"/>
			<point x="160" y="20" type="line"/>
			<point x="146" y="20" type="line"/>
			<point x="45" y="12" type="line"/>
		</contour>
		<contour>
			<point x="132" y="0" type="curve"/>
			<point x="180" y="0" type="line"/>
			<point x="178" y="85"/>
			<point x="178" y="214"/>
			<point x="178" y="321" type="curve" smooth="yes"/>
			<point x="178" y="360" type="line" smooth="yes"/>
			<point x="178" y="464"/>
			<point x="178" y="590"/>
			<point x="180" y="674" type="curve"/>
			<point x="132" y="674" type="line"/>
			<point x="135" y="590"/>
			<point x="135" y="464"/>
			<point x="135" y="360" type="curve" smooth="yes"/>
			<point x="135" y="321" type="line" smooth="yes"/>
			<point x="135" y="214"/>
			<point x="135" y="85"/>
		</contour>
		<contour>
			<point x="156" y="0" type="line"/>
			<point x="478" y="0" type="line"/>
			<point x="489" y="178" type="line"/>
			<point x="477" y="178" type="line"/>
			<point x="439" y="9" type="line"/>
			<point x="461" y="18" type="line"/>
			<point x="156" y="18" type="line"/>
		</contour>
		<contour>
			<point x="45" y="662" type="line"/>
			<point x="146" y="653" type="line"/>
			<point x="165" y="653" type="line"/>
			<point x="266" y="662" type="line"/>
			<point x="266" y="674" type="line"/>
			<point x="45" y="674" type="line"/>
		</contour>
	</outline>
	<anchor name="aboveUC" x="156" y="694"/>
	<anchor name="belowLC" x="286" y="-20"/>
</glyph>
<glyph name="M" format="2">
	<unicode hex="004D"/>
	<advance width="827"/>
	<outline>
		<contour>
			<point x="45" y="0" type="line"/>
			<point x="247" y="0" type="line"/>
			<point x="247" y="12" type="line"/>
			<point x="150" y="20" type="line"/>
			<point x="143" y="20" type="line"/>
			<point x="45" y="12" type="line"/>
		</contour>
		<contour>
			<point x="45" y="662" type="line"/>
			<point x="147" y="653" type="line"/>
			<point x="152" y="653" type="line"/>
			<point x="152" y="674" type="line"/>
			<point x="45" y="674" type="line"/>
		</contour>
		<contour>
			<point x="136" y="0" type="line"/>
			<point x="156" y="0" type="line"/>
			<point x="156" y="365" type="line"/>
			<point x="156" y="664" type="line"/>
			<point x="136" y="664" type="line"/>
		</contour>
		<contour>
			<point x="397" y="0" type="line"/>
			<point x="409" y="0" type="line"/>
			<point x="653" y="643" type="line"/>
			<point x="660" y="643" type="line"/>
			<point x="660" y="674" type="line"/>
			<point x="643" y="674" type="line"/>
			<point x="409" y="55" type="line"/>
			<point x="420" y="55" type="line"/>
			<point x="188" y="674" type="line"/>
			<point x="143" y="674" type="line"/>
			<point x="143" y="642" type="line"/>
			<point x="155" y="642" type="line"/>
		</contour>
		<contour>
			<point x="562" y="0" type="line"/>
			<point x="781" y="0" type="line"/>
			<point x="781" y="12" type="line"/>
			<point x="679" y="20" type="line"/>
			<point x="660" y="20" type="line"/>
			<point x="562" y="12" type="line"/>
		</contour>
		<contour>
			<point x="646" y="0" type="curve"/>
			<point x="693" y="0" type="line"/>
			<point x="691" y="85"/>
			<point x="691" y="214"/>
			<point x="691" y="321" type="curve" smooth="yes"/>
			<point x="691" y="360" type="line" smooth="yes"/>
			<point x="691" y="464"/>
			<point x="691" y="590"/>
			<point x="693" y="674" type="curve"/>
			<point x="649" y="674" type="line"/>
			<point x="649" y="321" type="line" smooth="yes"/>
			<point x="649" y="214"/>
			<point x="649" y="85"/>
		</contour>
		<contour>
			<point x="660" y="653" type="line"/>
			<point x="679" y="653" type="line"/>
			<point x="781" y="662" type="line"/>
			<point x="781" y="674" type="line"/>
			<point x="660" y="674" type="line"/>
		</contour>
	</outline>
	<anchor name="aboveUC" x="412" y="694"/>
	<anchor name="belowLC" x="403" y="-20"/>
</glyph>
<glyph name="N" format="2">
	<unicode hex="004E"/>
	<advance width="687"/>
	<outline>
		<contour>
			<point x="45" y="0" type="line"/>
			<point x="255" y="0" type="line"/>
			<point x="255" y="12" type="line"/>
			<point x="150" y="20" type="line"/>
			<point x="142" y="20" type="line"/>
			<point x="45" y="12" type="line"/>
		</contour>
		<contour>
			<point x="136" y="0" type="line"/>
			<point x="156" y="0" type="line"/>
			<point x="156" y="663" type="line"/>
			<point x="136" y="663" type="line"/>
		</contour>
		<contour>
			<point x="440" y="662" type="line"/>
			<point x="545" y="654" type="line"/>
			<point x="553" y="654" type="line"/>
			<point x="642" y="662" type="line"/>
			<point x="642" y="674" type="line"/>
			<point x="440" y="674" type="line"/>
		</contour>
		<contour>
			<point x="543" y="-7" type="line"/>
			<point x="559" y="-7" type="line"/>
			<point x="559" y="674" type="line"/>
			<point x="539" y="674" type="line"/>
			<point x="539" y="72" type="line"/>
			<point x="543" y="72" type="line"/>
			<point x="164" y="674" type="line"/>
			<point x="45" y="674" type="line"/>
			<point x="45" y="662" type="line"/>
			<point x="125" y="655" type="line"/>
			<point x="155" y="606" type="line"/>
			<point x="156" y="606" type="line"/>
		</contour>
	</outline>
	<anchor name="aboveUC" x="346" y="694"/>
	<anchor name="belowLC" x="346" y="-20"/>
</glyph>
<glyph name="O" format="2">
	<unicode hex="004F"/>
	<advance width="645"/>
	<outline>
		<contour>
			<point x="323" y="-13" type="curve" smooth="yes"/>
			<point x="471" y="-13"/>
			<point x="589" y="119"/>
			<point x="589" y="337" type="curve" smooth="yes"/>
			<point x="589" y="559"/>
			<point x="472" y="687"/>
			<point x="323" y="687" type="curve" smooth="yes"/>
			<point x="174" y="687"/>
			<point x="56" y="554"/>
			<point x="56" y="336" type="curve" smooth="yes"/>
			<point x="56" y="114"/>
			<point x="173" y="-13"/>
		</contour>
		<contour>
			<point x="323" y="3" type="curve" smooth="yes"/>
			<point x="181" y="3"/>
			<point x="101" y="142"/>
			<point x="101" y="336" type="curve" smooth="yes"/>
			<point x="101" y="531"/>
			<point x="181" y="671"/>
			<point x="323" y="671" type="curve" smooth="yes"/>
			<point x="464" y="671"/>
			<point x="544" y="531"/>
			<point x="544" y="337" type="curve" smooth="yes"/>
			<point x="544" y="142"/>
			<point x="464" y="3"/>
		</contour>
	</outline>
	<anchor name="aboveUC" x="323" y="694"/>
	<anchor name="belowLC" x="323" y="-20"/>
	<anchor name="ogonek" x="391" y="0"/>
	<anchor name="hornLC" x="477" y="599"/>
</glyph>
<glyph name="P" format="2">
	<unicode hex="0050"/>
	<advance width="518"/>
	<outline>
		<contour>
			<point x="45" y="0" type="line"/>
			<point x="280" y="0" type="line"/>
			<point x="280" y="12" type="line"/>
			<point x="166" y="20" type="line"/>
			<point x="147" y="20" type="line"/>
			<point x="45" y="12" type="line"/>
		</contour>
		<contour>
			<point x="133" y="0" type="curve"/>
			<point x="180" y="0" type="line"/>
			<point x="177" y="85"/>
			<point x="177" y="214"/>
			<point x="177" y="321" type="curve" smooth="yes"/>
			<point x="177" y="360" type="line" smooth="yes"/>
			<point x="177" y="464"/>
			<point x="177" y="590"/>
			<point x="180" y="674" type="curve"/>
			<point x="133" y="674" type="line"/>
			<point x="135" y="590"/>
			<point x="135" y="464"/>
			<point x="135" y="360" type="curve" smooth="yes"/>
			<point x="135" y="321" type="line" smooth="yes"/>
			<point x="135" y="214"/>
			<point x="135" y="85"/>
		</contour>
		<contour>
			<point x="153" y="293" type="line"/>
			<point x="239" y="293" type="line" smooth="yes"/>
			<point x="416" y="293"/>
			<point x="484" y="385"/>
			<point x="484" y="488" type="curve" smooth="yes"/>
			<point x="484" y="597"/>
			<point x="408" y="674"/>
			<point x="264" y="674" type="curve" smooth="yes"/>
			<point x="153" y="674" type="line"/>
			<point x="153" y="656" type="line"/>
			<point x="250" y="656" type="line" smooth="yes"/>
			<point x="384" y="656"/>
			<point x="441" y="593"/>
			<point x="441" y="488" type="curve" smooth="yes"/>
			<point x="441" y="388"/>
			<point x="391" y="311"/>
			<point x="234" y="311" type="curve" smooth="yes"/>
			<point x="153" y="311" type="line"/>
		</contour>
		<contour>
			<point x="45" y="662" type="line"/>
			<point x="147" y="653" type="line"/>
			<point x="161" y="653" type="line"/>
			<point x="161" y="674" type="line"/>
			<point x="45" y="674" type="line"/>
		</contour>
	</outline>
	<anchor name="aboveUC" x="276" y="694"/>
	<anchor name="belowLC" x="156" y="-20"/>
</glyph>
<glyph name="Q" format="2">
	<unicode hex="0051"/>
	<advance width="645"/>
	<outline>
		<contour>
			<point x="465" y="-205" type="curve" smooth="yes"/>
			<point x="499" y="-205"/>
			<point x="539" y="-196"/>
			<point x="570" y="-175" type="curve"/>
			<point x="564" y="-163" type="line"/>
			<point x="534" y="-176"/>
			<point x="508" y="-181"/>
			<point x="477" y="-181" type="curve" smooth="yes"/>
			<point x="395" y="-181"/>
			<point x="337" y="-110"/>
			<point x="343" y="-2" type="curve"/>
			<point x="302" y="1" type="line"/>
			<point x="302" y="-17" type="line" smooth="yes"/>
			<point x="302" y="-112"/>
			<point x="354" y="-205"/>
		</contour>
		<component base="O"/>
	</outline>
	<anchor name="aboveUC" x="323" y="694"/>
</glyph>
<glyph name="R" format="2">
	<unicode hex="0052"/>
	<advance width="608"/>
	<outline>
		<contour>
			<point x="45" y="0" type="line"/>
			<point x="266" y="0" type="line"/>
			<point x="266" y="12" type="line"/>
			<point x="166" y="20" type="line"/>
			<point x="147" y="20" type="line"/>
			<point x="45" y="12" type="line"/>
		</contour>
		<contour>
			<point x="133" y="0" type="curve"/>
			<point x="179" y="0" type="line"/>
			<point x="177" y="85"/>
			<point x="177" y="214"/>
			<point x="177" y="321" type="curve" smooth="yes"/>
			<point x="177" y="360" type="line" smooth="yes"/>
			<point x="177" y="464"/>
			<point x="177" y="590"/>
			<point x="179" y="674" type="curve"/>
			<point x="133" y="674" type="line"/>
			<point x="135" y="590"/>
			<point x="135" y="464"/>
			<point x="135" y="360" type="curve" smooth="yes"/>
			<point x="135" y="321" type="line" smooth="yes"/>
			<point x="135" y="214"/>
			<point x="135" y="85"/>
		</contour>
		<contour>
			<point x="538" y="-4" type="curve" smooth="yes"/>
			<point x="564" y="-4"/>
			<point x="584" y="-2"/>
			<point x="596" y="0" type="curve"/>
			<point x="596" y="12" type="line"/>
			<point x="493" y="20" type="line"/>
			<point x="517" y="12" type="line"/>
			<point x="414" y="216" type="line" smooth="yes"/>
			<point x="373" y="297"/>
			<point x="331" y="325"/>
			<point x="246" y="325" type="curve"/>
			<point x="272" y="319" type="line"/>
			<point x="409" y="319"/>
			<point x="484" y="400"/>
			<point x="484" y="499" type="curve" smooth="yes"/>
			<point x="484" y="613"/>
			<point x="408" y="674"/>
			<point x="278" y="674" type="curve" smooth="yes"/>
			<point x="153" y="674" type="line"/>
			<point x="153" y="656" type="line"/>
			<point x="275" y="656" type="line" smooth="yes"/>
			<point x="389" y="656"/>
			<point x="441" y="595"/>
			<point x="441" y="501" type="curve" smooth="yes"/>
			<point x="441" y="407"/>
			<point x="376" y="333"/>
			<point x="277" y="333" type="curve" smooth="yes"/>
			<point x="153" y="333" type="line"/>
			<point x="153" y="315" type="line"/>
			<point x="222" y="315" type="line" smooth="yes"/>
			<point x="304" y="315"/>
			<point x="336" y="288"/>
			<point x="371" y="215" type="curve" smooth="yes"/>
			<point x="455" y="40" type="line" smooth="yes"/>
			<point x="472" y="5"/>
			<point x="486" y="-4"/>
		</contour>
		<contour>
			<point x="45" y="662" type="line"/>
			<point x="147" y="653" type="line"/>
			<point x="161" y="653" type="line"/>
			<point x="161" y="674" type="line"/>
			<point x="45" y="674" type="line"/>
		</contour>
	</outline>
	<anchor name="aboveUC" x="284" y="694"/>
	<anchor name="belowLC" x="316" y="-20"/>
</glyph>
<glyph name="S" format="2">
	<unicode hex="0053"/>
	<advance width="481"/>
	<outline>
		<contour>
			<point x="225" y="-13" type="curve" smooth="yes"/>
			<point x="348" y="-13"/>
			<point x="429" y="56"/>
			<point x="429" y="169" type="curve" smooth="yes"/>
			<point x="429" y="281"/>
			<point x="347" y="320"/>
			<point x="264" y="357" type="curve" smooth="yes"/>
			<point x="228" y="373" type="line" smooth="yes"/>
			<point x="158" y="404"/>
			<point x="95" y="441"/>
			<point x="95" y="525" type="curve" smooth="yes"/>
			<point x="95" y="629"/>
			<point x="167" y="671"/>
			<point x="249" y="671" type="curve" smooth="yes"/>
			<point x="306" y="671"/>
			<point x="350" y="659"/>
			<point x="387" y="626" type="curve"/>
			<point x="385" y="639" type="line"/>
			<point x="364" y="649" type="line"/>
			<point x="385" y="497" type="line"/>
			<point x="397" y="497" type="line"/>
			<point x="401" y="639" type="line"/>
			<point x="360" y="670"/>
			<point x="319" y="687"/>
			<point x="249" y="687" type="curve" smooth="yes"/>
			<point x="149" y="687"/>
			<point x="61" y="633"/>
			<point x="61" y="518" type="curve" smooth="yes"/>
			<point x="61" y="413"/>
			<point x="136" y="371"/>
			<point x="214" y="336" type="curve" smooth="yes"/>
			<point x="250" y="320" type="line" smooth="yes"/>
			<point x="325" y="287"/>
			<point x="393" y="252"/>
			<point x="393" y="164" type="curve" smooth="yes"/>
			<point x="393" y="54"/>
			<point x="323" y="2"/>
			<point x="225" y="2" type="curve" smooth="yes"/>
			<point x="158" y="2"/>
			<point x="111" y="22"/>
			<point x="69" y="51" type="curve"/>
			<point x="66" y="41" type="line"/>
			<point x="89" y="28" type="line"/>
			<point x="72" y="185" type="line"/>
			<point x="59" y="185" type="line"/>
			<point x="51" y="40" type="line"/>
			<point x="90" y="12"/>
			<point x="152" y="-13"/>
		</contour>
	</outline>
	<anchor name="aboveUC" x="248" y="694"/>
	<anchor name="belowLC" x="228" y="-20"/>
	<anchor name="baseLC" x="228" y="0"/>
</glyph>
<glyph name="T" format="2">
	<unicode hex="0054"/>
	<advance width="561"/>
	<outline>
		<contour>
			<point x="156" y="0" type="line"/>
			<point x="404" y="0" type="line"/>
			<point x="404" y="12" type="line"/>
			<point x="290" y="20" type="line"/>
			<point x="270" y="20" type="line"/>
			<point x="156" y="12" type="line"/>
		</contour>
		<contour>
			<point x="256" y="0" type="curve"/>
			<point x="304" y="0" type="line"/>
			<point x="301" y="85"/>
			<point x="301" y="214"/>
			<point x="301" y="321" type="curve" smooth="yes"/>
			<point x="301" y="360" type="line" smooth="yes"/>
			<point x="301" y="464"/>
			<point x="301" y="590"/>
			<point x="304" y="673" type="curve"/>
			<point x="256" y="673" type="line"/>
			<point x="258" y="590"/>
			<point x="258" y="464"/>
			<point x="258" y="360" type="curve" smooth="yes"/>
			<point x="258" y="321" type="line" smooth="yes"/>
			<point x="258" y="214"/>
			<point x="258" y="85"/>
		</contour>
		<contour>
			<point x="25" y="496" type="line"/>
			<point x="38" y="496" type="line"/>
			<point x="76" y="665" type="line"/>
			<point x="54" y="656" type="line"/>
			<point x="506" y="656" type="line"/>
			<point x="485" y="665" type="line"/>
			<point x="523" y="496" type="line"/>
			<point x="535" y="496" type="line"/>
			<point x="524" y="673" type="line"/>
			<point x="37" y="673" type="line"/>
		</contour>
	</outline>
	<anchor name="aboveUC" x="280" y="693"/>
	<anchor name="belowLC" x="280" y="-20"/>
	<anchor name="baseLC" x="280" y="0"/>
</glyph>
<glyph name="U" format="2">
	<unicode hex="0055"/>
	<advance width="682"/>
	<outline>
		<contour>
			<point x="342" y="-13" type="curve" smooth="yes"/>
			<point x="479" y="-13"/>
			<point x="553" y="67"/>
			<point x="553" y="243" type="curve" smooth="yes"/>
			<point x="553" y="674" type="line"/>
			<point x="533" y="674" type="line"/>
			<point x="533" y="255" type="line" smooth="yes"/>
			<point x="533" y="80"/>
			<point x="471" y="15"/>
			<point x="346" y="15" type="curve" smooth="yes"/>
			<point x="243" y="15"/>
			<point x="171" y="76"/>
			<point x="171" y="239" type="curve" smooth="yes"/>
			<point x="171" y="333" type="line" smooth="yes"/>
			<point x="171" y="482"/>
			<point x="171" y="580"/>
			<point x="174" y="674" type="curve"/>
			<point x="127" y="674" type="line"/>
			<point x="130" y="580"/>
			<point x="130" y="482"/>
			<point x="130" y="333" type="curve" smooth="yes"/>
			<point x="130" y="232" type="line" smooth="yes"/>
			<point x="130" y="56"/>
			<point x="217" y="-13"/>
		</contour>
		<contour>
			<point x="48" y="662" type="line"/>
			<point x="141" y="653" type="line"/>
			<point x="160" y="653" type="line"/>
			<point x="262" y="662" type="line"/>
			<point x="262" y="674" type="line"/>
			<point x="48" y="674" type="line"/>
		</contour>
		<contour>
			<point x="443" y="662" type="line"/>
			<point x="540" y="654" type="line"/>
			<point x="547" y="654" type="line"/>
			<point x="634" y="662" type="line"/>
			<point x="634" y="674" type="line"/>
			<point x="443" y="674" type="line"/>
		</contour>
	</outline>
	<anchor name="aboveUC" x="352" y="694"/>
	<anchor name="belowLC" x="343" y="-20"/>
	<anchor name="ogonek" x="408" y="0"/>
	<anchor name="hornLC" x="539" y="600"/>
</glyph>
<glyph name="V" format="2">
	<unicode hex="0056"/>
	<advance width="613"/>
	<outline>
		<contour>
			<point x="300" y="-11" type="line"/>
			<point x="314" y="-11" type="line"/>
			<point x="535" y="673" type="line"/>
			<point x="513" y="673" type="line"/>
			<point x="313" y="48" type="line"/>
			<point x="323" y="48" type="line"/>
			<point x="125" y="673" type="line"/>
			<point x="79" y="673" type="line"/>
		</contour>
		<contour>
			<point x="9" y="661" type="line"/>
			<point x="97" y="653" type="line"/>
			<point x="120" y="653" type="line"/>
			<point x="223" y="661" type="line"/>
			<point x="223" y="673" type="line"/>
			<point x="9" y="673" type="line"/>
		</contour>
		<contour>
			<point x="413" y="661" type="line"/>
			<point x="509" y="654" type="line"/>
			<point x="523" y="654" type="line"/>
			<point x="604" y="661" type="line"/>
			<point x="604" y="673" type="line"/>
			<point x="413" y="673" type="line"/>
		</contour>
	</outline>
	<anchor name="aboveUC" x="318" y="693"/>
	<anchor name="belowLC" x="307" y="-20"/>
</glyph>
<glyph name="W" format="2">
	<unicode hex="0057"/>
	<advance width="885"/>
	<outline>
		<contour>
			<point x="256" y="-9" type="line"/>
			<point x="274" y="-9" type="line"/>
			<point x="449" y="623" type="line"/>
			<point x="436" y="619" type="line"/>
			<point x="607" y="-9" type="line"/>
			<point x="623" y="-9" type="line"/>
			<point x="806" y="673" type="line"/>
			<point x="783" y="673" type="line"/>
			<point x="623" y="55" type="line"/>
			<point x="634" y="55" type="line"/>
			<point x="467" y="673" type="line"/>
			<point x="443" y="673" type="line"/>
			<point x="272" y="54" type="line"/>
			<point x="284" y="54" type="line"/>
			<point x="126" y="673" type="line"/>
			<point x="79" y="673" type="line"/>
		</contour>
		<contour>
			<point x="9" y="661" type="line"/>
			<point x="100" y="653" type="line"/>
			<point x="116" y="653" type="line"/>
			<point x="225" y="661" type="line"/>
			<point x="225" y="673" type="line"/>
			<point x="9" y="673" type="line"/>
		</contour>
		<contour>
			<point x="355" y="661" type="line"/>
			<point x="441" y="654" type="line"/>
			<point x="458" y="653" type="line"/>
			<point x="553" y="661" type="line"/>
			<point x="553" y="673" type="line"/>
			<point x="355" y="673" type="line"/>
		</contour>
		<contour>
			<point x="683" y="661" type="line"/>
			<point x="782" y="654" type="line"/>
			<point x="793" y="654" type="line"/>
			<point x="875" y="661" type="line"/>
			<point x="875" y="673" type="line"/>
			<point x="683" y="673" type="line"/>
		</contour>
	</outline>
	<anchor name="aboveUC" x="454" y="693"/>
	<anchor name="belowLC" x="443" y="-20"/>
</glyph>
<glyph name="Y" format="2">
	<unicode hex="0059"/>
	<advance width="597"/>
	<outline>
		<contour>
			<point x="175" y="0" type="line"/>
			<point x="422" y="0" type="line"/>
			<point x="422" y="12" type="line"/>
			<point x="308" y="20" type="line"/>
			<point x="289" y="20" type="line"/>
			<point x="175" y="12" type="line"/>
		</contour>
		<contour>
			<point x="275" y="0" type="curve"/>
			<point x="322" y="0" type="line"/>
			<point x="319" y="103"/>
			<point x="319" y="176"/>
			<point x="319" y="287" type="curve"/>
			<point x="278" y="287" type="line"/>
			<point x="278" y="176"/>
			<point x="278" y="103"/>
		</contour>
		<contour>
			<point x="294" y="235" type="line"/>
			<point x="303" y="235" type="line"/>
			<point x="514" y="674" type="line"/>
			<point x="493" y="674" type="line"/>
			<point x="307" y="286" type="line"/>
			<point x="315" y="286" type="line"/>
			<point x="126" y="674" type="line"/>
			<point x="80" y="674" type="line"/>
		</contour>
		<contour>
			<point x="15" y="662" type="line"/>
			<point x="105" y="653" type="line"/>
			<point x="124" y="653" type="line"/>
			<point x="227" y="662" type="line"/>
			<point x="227" y="674" type="line"/>
			<point x="15" y="674" type="line"/>
		</contour>
		<contour>
			<point x="392" y="662" type="line"/>
			<point x="485" y="654" type="line"/>
			<point x="499" y="654" type="line"/>
			<point x="582" y="662" type="line"/>
			<point x="582" y="674" type="line"/>
			<point x="392" y="674" type="line"/>
		</contour>
	</outline>
	<anchor name="aboveUC" x="309" y="694"/>
	<anchor name="belowLC" x="299" y="-20"/>
</glyph>
<glyph name="Z" format="2">
	<unicode hex="005A"/>
	<advance width="497"/>
	<outline>
		<contour>
			<point x="27" y="0" type="line"/>
			<point x="464" y="0" type="line"/>
			<point x="475" y="178" type="line"/>
			<point x="463" y="178" type="line"/>
			<point x="425" y="9" type="line"/>
			<point x="447" y="18" type="line"/>
			<point x="56" y="18" type="line"/>
			<point x="66" y="7" type="line"/>
			<point x="452" y="660" type="line"/>
			<point x="452" y="674" type="line"/>
			<point x="42" y="674" type="line"/>
			<point x="31" y="505" type="line"/>
			<point x="43" y="505" type="line"/>
			<point x="81" y="665" type="line"/>
			<point x="59" y="656" type="line"/>
			<point x="423" y="656" type="line"/>
			<point x="412" y="667" type="line"/>
			<point x="27" y="13" type="line"/>
		</contour>
	</outline>
	<anchor name="aboveUC" x="247" y="694"/>
	<anchor name="belowLC" x="247" y="-20"/>
</glyph>
<glyph name="bracketleft" format="2">
	<unicode hex="005B"/>
	<advance width="279"/>
	<outline>
		<contour>
			<point x="97" y="-160" type="curve"/>
			<point x="139" y="-160" type="line"/>
			<point x="136" y="-75"/>
			<point x="136" y="54"/>
			<point x="136" y="161" type="curve" smooth="yes"/>
			<point x="136" y="403" type="line" smooth="yes"/>
			<point x="136" y="507"/>
			<point x="136" y="632"/>
			<point x="139" y="716" type="curve"/>
			<point x="97" y="716" type="line"/>
			<point x="100" y="632"/>
			<point x="100" y="507"/>
			<point x="100" y="403" type="curve" smooth="yes"/>
			<point x="100" y="161" type="line" smooth="yes"/>
			<point x="100" y="54"/>
			<point x="100" y="-75"/>
		</contour>
		<contour>
			<point x="111" y="-160" type="line"/>
			<point x="241" y="-160" type="line"/>
			<point x="241" y="-148" type="line"/>
			<point x="125" y="-138" type="line"/>
			<point x="111" y="-138" type="line"/>
		</contour>
		<contour>
			<point x="111" y="694" type="line"/>
			<point x="125" y="694" type="line"/>
			<point x="241" y="704" type="line"/>
			<point x="241" y="716" type="line"/>
			<point x="111" y="716" type="line"/>
		</contour>
	</outline>
</glyph>
<glyph name="asciicircum" format="2">
	<unicode hex="005E"/>
	<advance width="496"/>
	<outline>
		<contour>
			<point x="84" y="227" type="line"/>
			<point x="102" y="216" type="line"/>
			<point x="255" y="479" type="line"/>
			<point x="240" y="479" type="line"/>
			<point x="393" y="216" type="line"/>
			<point x="411" y="227" type="line"/>
			<point x="253" y="500" type="line"/>
			<point x="242" y="500" type="line"/>
		</contour>
	</outline>
</glyph>
<glyph name="a" format="2">
	<unicode hex="0061"/>
	<advance width="458"/>
	<outline>
		<contour>
			<point x="161" y="-12" type="curve" smooth="yes"/>
			<point x="215" y="-12"/>
			<point x="260" y="13"/>
			<point x="312" y="76" type="curve"/>
			<point x="328" y="76" type="line"/>
			<point x="325" y="105" type="line"/>
			<point x="262" y="36"/>
			<point x="223" y="16"/>
			<point x="174" y="16" type="curve" smooth="yes"/>
			<point x="123" y="16"/>
			<point x="89" y="46"/>
			<point x="89" y="105" type="curve" smooth="yes"/>
			<point x="89" y="151"/>
			<point x="114" y="192"/>
			<point x="192" y="222" type="curve" smooth="yes"/>
			<point x="229" y="235"/>
			<point x="279" y="250"/>
			<point x="328" y="263" type="curve"/>
			<point x="328" y="275" type="line"/>
			<point x="275" y="263"/>
			<point x="224" y="250"/>
			<point x="184" y="237" type="curve" smooth="yes"/>
			<point x="83" y="203"/>
			<point x="47" y="159"/>
			<point x="47" y="97" type="curve" smooth="yes"/>
			<point x="47" y="26"/>
			<point x="94" y="-12"/>
		</contour>
		<contour>
			<point x="376" y="-11" type="curve" smooth="yes"/>
			<point x="404" y="-11"/>
			<point x="427" y="5"/>
			<point x="439" y="27" type="curve"/>
			<point x="431" y="34" type="line"/>
			<point x="416" y="18"/>
			<point x="402" y="11"/>
			<point x="387" y="11" type="curve" smooth="yes"/>
			<point x="363" y="11"/>
			<point x="350" y="25"/>
			<point x="350" y="65" type="curve" smooth="yes"/>
			<point x="350" y="315" type="line" smooth="yes"/>
			<point x="350" y="416"/>
			<point x="309" y="461"/>
			<point x="219" y="461" type="curve" smooth="yes"/>
			<point x="148" y="461"/>
			<point x="80" y="425"/>
			<point x="64" y="352" type="curve"/>
			<point x="65" y="336"/>
			<point x="73" y="327"/>
			<point x="88" y="327" type="curve" smooth="yes"/>
			<point x="104" y="327"/>
			<point x="113" y="336"/>
			<point x="117" y="353" type="curve" smooth="yes"/>
			<point x="135" y="431" type="line"/>
			<point x="117" y="415" type="line"/>
			<point x="147" y="434"/>
			<point x="174" y="444"/>
			<point x="208" y="444" type="curve" smooth="yes"/>
			<point x="277" y="444"/>
			<point x="309" y="408"/>
			<point x="309" y="305" type="curve" smooth="yes"/>
			<point x="309" y="64" type="line"/>
			<point x="309" y="62" type="line"/>
			<point x="310" y="14"/>
			<point x="333" y="-11"/>
		</contour>
	</outline>
	<anchor name="aboveLC" x="212" y="469"/>
	<anchor name="belowLC" x="221" y="-20"/>
	<anchor name="ogonek" x="384" y="0"/>
</glyph>
<glyph name="b" format="2">
	<unicode hex="0062"/>
	<advance width="530"/>
	<outline>
		<contour>
			<point x="39" y="0" type="line"/>
			<point x="156" y="-5" type="line"/>
			<point x="156" y="74" type="line"/>
			<point x="156" y="76" type="line"/>
			<point x="156" y="364" type="line"/>
			<point x="156" y="368" type="line"/>
			<point x="156" y="563" type="line"/>
			<point x="159" y="741" type="line"/>
			<point x="152" y="747" type="line"/>
			<point x="37" y="729" type="line"/>
			<point x="37" y="717" type="line"/>
			<point x="118" y="711" type="line"/>
			<point x="118" y="209" type="line" smooth="yes"/>
			<point x="118" y="149"/>
			<point x="117" y="83"/>
			<point x="115" y="19" type="curve"/>
			<point x="39" y="12" type="line"/>
		</contour>
		<contour>
			<point x="300" y="-12" type="curve" smooth="yes"/>
			<point x="397" y="-12"/>
			<point x="483" y="69"/>
			<point x="483" y="235" type="curve" smooth="yes"/>
			<point x="483" y="384"/>
			<point x="402" y="461"/>
			<point x="305" y="461" type="curve" smooth="yes"/>
			<point x="245" y="461"/>
			<point x="192" y="429"/>
			<point x="152" y="367" type="curve"/>
			<point x="142" y="367" type="line"/>
			<point x="149" y="348" type="line"/>
			<point x="193" y="409"/>
			<point x="239" y="439"/>
			<point x="295" y="439" type="curve" smooth="yes"/>
			<point x="379" y="439"/>
			<point x="442" y="370"/>
			<point x="442" y="232" type="curve" smooth="yes"/>
			<point x="442" y="79"/>
			<point x="375" y="10"/>
			<point x="295" y="10" type="curve" smooth="yes"/>
			<point x="239" y="10"/>
			<point x="199" y="33"/>
			<point x="148" y="93" type="curve"/>
			<point x="140" y="75" type="line"/>
			<point x="150" y="75" type="line"/>
			<point x="193" y="11"/>
			<point x="249" y="-12"/>
		</contour>
	</outline>
	<anchor name="aboveLC" x="136" y="750"/>
	<anchor name="belowLC" x="289" y="-20"/>
</glyph>
<glyph name="c" format="2">
	<unicode hex="0063"/>
	<advance width="431"/>
	<outline>
		<contour>
			<point x="245" y="-12" type="curve" smooth="yes"/>
			<point x="307" y="-12"/>
			<point x="363" y="17"/>
			<point x="399" y="77" type="curve"/>
			<point x="389" y="85" type="line"/>
			<point x="354" y="42"/>
			<point x="308" y="18"/>
			<point x="251" y="18" type="curve" smooth="yes"/>
			<point x="149" y="18"/>
			<point x="87" y="109"/>
			<point x="87" y="231" type="curve" smooth="yes"/>
			<point x="87" y="358"/>
			<point x="156" y="445"/>
			<point x="251" y="445" type="curve" smooth="yes"/>
			<point x="287" y="445"/>
			<point x="314" y="436"/>
			<point x="342" y="408" type="curve"/>
			<point x="320" y="437" type="line"/>
			<point x="342" y="353" type="line" smooth="yes"/>
			<point x="346" y="336"/>
			<point x="355" y="328"/>
			<point x="371" y="328" type="curve" smooth="yes"/>
			<point x="385" y="328"/>
			<point x="394" y="336"/>
			<point x="396" y="351" type="curve"/>
			<point x="379" y="421"/>
			<point x="326" y="461"/>
			<point x="251" y="461" type="curve" smooth="yes"/>
			<point x="148" y="461"/>
			<point x="45" y="377"/>
			<point x="45" y="223" type="curve" smooth="yes"/>
			<point x="45" y="69"/>
			<point x="132" y="-12"/>
		</contour>
	</outline>
	<anchor name="aboveLC" x="240" y="469"/>
	<anchor name="belowLC" x="237" y="-20"/>
	<anchor name="baseLC" x="244" y="0"/>
</glyph>
<glyph name="e" format="2">
	<unicode hex="0065"/>
	<advance width="446"/>
	<outline>
		<contour>
			<point x="250" y="-12" type="curve" smooth="yes"/>
			<point x="307" y="-12"/>
			<point x="367" y="17"/>
			<point x="403" y="77" type="curve"/>
			<point x="393" y="85" type="line"/>
			<point x="358" y="43"/>
			<point x="312" y="19"/>
			<point x="257" y="19" type="curve" smooth="yes"/>
			<point x="155" y="19"/>
			<point x="88" y="100"/>
			<point x="88" y="235" type="curve" smooth="yes"/>
			<point x="88" y="360"/>
			<point x="155" y="445"/>
			<point x="240" y="445" type="curve" smooth="yes"/>
			<point x="322" y="445"/>
			<point x="363" y="375"/>
			<point x="363" y="296" type="curve" smooth="yes"/>
			<point x="363" y="263"/>
			<point x="354" y="257"/>
			<point x="330" y="257" type="curve" smooth="yes"/>
			<point x="66" y="257" type="line"/>
			<point x="66" y="240" type="line"/>
			<point x="395" y="240" type="line"/>
			<point x="399" y="254"/>
			<point x="401" y="270"/>
			<point x="401" y="288" type="curve" smooth="yes"/>
			<point x="401" y="386"/>
			<point x="341" y="461"/>
			<point x="240" y="461" type="curve" smooth="yes"/>
			<point x="135" y="461"/>
			<point x="46" y="364"/>
			<point x="46" y="221" type="curve" smooth="yes"/>
			<point x="46" y="70"/>
			<point x="131" y="-12"/>
		</contour>
	</outline>
	<anchor name="aboveLC" x="232" y="469"/>
	<anchor name="belowLC" x="241" y="-20"/>
	<anchor name="ogonek" x="297" y="0"/>
</glyph>
<glyph name="f" format="2">
	<unicode hex="0066"/>
	<advance width="317"/>
	<outline>
		<contour>
			<point x="39" y="0" type="line"/>
			<point x="248" y="0" type="line"/>
			<point x="248" y="12" type="line"/>
			<point x="143" y="20" type="line"/>
			<point x="132" y="20" type="line"/>
			<point x="39" y="12" type="line"/>
		</contour>
		<contour>
			<point x="114" y="0" type="curve"/>
			<point x="160" y="0" type="line"/>
			<point x="157" y="45"/>
			<point x="156" y="147"/>
			<point x="156" y="209" type="curve" smooth="yes"/>
			<point x="156" y="441" type="line"/>
			<point x="154" y="580"/>
			<point x="172" y="641"/>
			<point x="200" y="684" type="curve" smooth="yes"/>
			<point x="226" y="723"/>
			<point x="258" y="742"/>
			<point x="293" y="745" type="curve"/>
			<point x="293" y="748" type="line"/>
			<point x="261" y="748" type="line"/>
			<point x="261" y="746" type="line"/>
			<point x="289" y="725" type="line" smooth="yes"/>
			<point x="310" y="710"/>
			<point x="327" y="702"/>
			<point x="343" y="702" type="curve" smooth="yes"/>
			<point x="365" y="702"/>
			<point x="377" y="711"/>
			<point x="379" y="728" type="curve"/>
			<point x="371" y="748"/>
			<point x="341" y="758"/>
			<point x="311" y="758" type="curve" smooth="yes"/>
			<point x="271" y="758"/>
			<point x="235" y="745"/>
			<point x="200" y="712" type="curve" smooth="yes"/>
			<point x="152" y="667"/>
			<point x="120" y="601"/>
			<point x="118" y="445" type="curve"/>
			<point x="118" y="435" type="line"/>
			<point x="136" y="455" type="line"/>
			<point x="35" y="444" type="line"/>
			<point x="35" y="432" type="line"/>
			<point x="118" y="432" type="line"/>
			<point x="118" y="209" type="line" smooth="yes"/>
			<point x="118" y="147"/>
			<point x="117" y="45"/>
		</contour>
		<contour>
			<point x="135" y="432" type="line"/>
			<point x="287" y="432" type="line"/>
			<point x="287" y="449" type="line"/>
			<point x="135" y="449" type="line"/>
		</contour>
	</outline>
	<anchor name="aboveLC" x="280" y="750"/>
	<anchor name="belowLC" x="138" y="-20"/>
</glyph>
<glyph name="g" format="2">
	<unicode hex="0067"/>
	<advance width="471"/>
	<outline>
		<contour>
			<point x="225" y="-262" type="curve" smooth="yes"/>
			<point x="369" y="-262"/>
			<point x="443" y="-184"/>
			<point x="443" y="-96" type="curve" smooth="yes"/>
			<point x="443" y="-15"/>
			<point x="394" y="21"/>
			<point x="306" y="21" type="curve" smooth="yes"/>
			<point x="165" y="21" type="line" smooth="yes"/>
			<point x="117" y="21"/>
			<point x="94" y="45"/>
			<point x="94" y="76" type="curve" smooth="yes"/>
			<point x="94" y="106"/>
			<point x="105" y="129"/>
			<point x="139" y="164" type="curve"/>
			<point x="129" y="175" type="line"/>
			<point x="128" y="171" type="line"/>
			<point x="86" y="133"/>
			<point x="61" y="102"/>
			<point x="61" y="63" type="curve" smooth="yes"/>
			<point x="61" y="18"/>
			<point x="93" y="-10"/>
			<point x="138" y="-14" type="curve"/>
			<point x="139" y="-15" type="line"/>
			<point x="148" y="-17"/>
			<point x="158" y="-17"/>
			<point x="166" y="-17" type="curve" smooth="yes"/>
			<point x="299" y="-17" type="line" smooth="yes"/>
			<point x="377" y="-17"/>
			<point x="405" y="-54"/>
			<point x="405" y="-105" type="curve" smooth="yes"/>
			<point x="405" y="-184"/>
			<point x="345" y="-247"/>
			<point x="228" y="-247" type="curve" smooth="yes"/>
			<point x="132" y="-247"/>
			<point x="74" y="-209"/>
			<point x="74" y="-132" type="curve" smooth="yes"/>
			<point x="74" y="-70"/>
			<point x="111" y="-39"/>
			<point x="152" y="-12" type="curve"/>
			<point x="148" y="-6" type="line"/>
			<point x="86" y="-33"/>
			<point x="35" y="-80"/>
			<point x="35" y="-139" type="curve" smooth="yes"/>
			<point x="35" y="-218"/>
			<point x="101" y="-262"/>
		</contour>
		<contour>
			<point x="221" y="138" type="curve" smooth="yes"/>
			<point x="309" y="138"/>
			<point x="379" y="200"/>
			<point x="379" y="300" type="curve" smooth="yes"/>
			<point x="379" y="355"/>
			<point x="360" y="398"/>
			<point x="326" y="425" type="curve"/>
			<point x="323" y="427" type="line"/>
			<point x="296" y="450"/>
			<point x="260" y="461"/>
			<point x="221" y="461" type="curve" smooth="yes"/>
			<point x="134" y="461"/>
			<point x="63" y="399"/>
			<point x="63" y="299" type="curve" smooth="yes"/>
			<point x="63" y="198"/>
			<point x="133" y="138"/>
		</contour>
		<contour>
			<point x="221" y="153" type="curve" smooth="yes"/>
			<point x="153" y="153"/>
			<point x="104" y="207"/>
			<point x="104" y="299" type="curve" smooth="yes"/>
			<point x="104" y="390"/>
			<point x="153" y="446"/>
			<point x="221" y="446" type="curve" smooth="yes"/>
			<point x="289" y="446"/>
			<point x="338" y="392"/>
			<point x="338" y="300" type="curve" smooth="yes"/>
			<point x="338" y="209"/>
			<point x="289" y="153"/>
		</contour>
		<contour>
			<point x="315" y="417" type="line"/>
			<point x="443" y="417" type="line"/>
			<point x="443" y="452" type="line"/>
			<point x="437" y="456" type="line"/>
			<point x="316" y="428" type="line"/>
			<point x="312" y="428" type="line"/>
		</contour>
	</outline>
	<anchor name="aboveLC" x="221" y="469"/>
	<anchor name="belowLC" x="239" y="-282"/>
</glyph>
<glyph name="k" format="2">
	<unicode hex="006B"/>
	<advance width="494"/>
	<outline>
		<contour>
			<point x="39" y="0" type="line"/>
			<point x="231" y="0" type="line"/>
			<point x="231" y="12" type="line"/>
			<point x="140" y="20" type="line"/>
			<point x="132" y="20" type="line"/>
			<point x="39" y="12" type="line"/>
		</contour>
		<contour>
			<point x="114" y="0" type="curve"/>
			<point x="160" y="0" type="line"/>
			<point x="157" y="45"/>
			<point x="156" y="147"/>
			<point x="156" y="209" type="curve" smooth="yes"/>
			<point x="156" y="563" type="line"/>
			<point x="159" y="741" type="line"/>
			<point x="152" y="747" type="line"/>
			<point x="37" y="729" type="line"/>
			<point x="37" y="717" type="line"/>
			<point x="118" y="711" type="line"/>
			<point x="118" y="209" type="line" smooth="yes"/>
			<point x="118" y="147"/>
			<point x="117" y="45"/>
		</contour>
		<contour>
			<point x="138" y="158" type="line"/>
			<point x="409" y="449" type="line"/>
			<point x="384" y="449" type="line"/>
			<point x="143" y="187" type="line"/>
			<point x="138" y="187" type="line"/>
		</contour>
		<contour>
			<point x="385" y="0" type="line"/>
			<point x="487" y="0" type="line"/>
			<point x="487" y="12" type="line"/>
			<point x="421" y="18" type="line"/>
			<point x="255" y="291" type="line"/>
			<point x="228" y="265" type="line"/>
		</contour>
		<contour>
			<point x="272" y="437" type="line"/>
			<point x="373" y="429" type="line"/>
			<point x="382" y="429" type="line"/>
			<point x="471" y="437" type="line"/>
			<point x="471" y="449" type="line"/>
			<point x="272" y="449" type="line"/>
		</contour>
	</outline>
	<anchor name="aboveLC" x="136" y="750"/>
	<anchor name="belowLC" x="293" y="-20"/>
</glyph>
<glyph name="l" format="2">
	<unicode hex="006C"/>
	<advance width="267"/>
	<outline>
		<contour>
			<point x="39" y="0" type="line"/>
			<point x="231" y="0" type="line"/>
			<point x="231" y="12" type="line"/>
			<point x="140" y="20" type="line"/>
			<point x="132" y="20" type="line"/>
			<point x="39" y="12" type="line"/>
		</contour>
		<contour>
			<point x="114" y="0" type="curve"/>
			<point x="160" y="0" type="line"/>
			<point x="157" y="45"/>
			<point x="156" y="147"/>
			<point x="156" y="209" type="curve" smooth="yes"/>
			<point x="156" y="572" type="line"/>
			<point x="159" y="741" type="line"/>
			<point x="152" y="747" type="line"/>
			<point x="37" y="729" type="line"/>
			<point x="37" y="717" type="line"/>
			<point x="118" y="711" type="line"/>
			<point x="118" y="209" type="line" smooth="yes"/>
			<point x="118" y="147"/>
			<point x="117" y="45"/>
		</contour>
	</outline>
	<anchor name="aboveLC" x="136" y="750"/>
	<anchor name="belowLC" x="137" y="-20"/>
</glyph>
<glyph name="m" format="2">
	<unicode hex="006D"/>
	<advance width="813"/>
	<outline>
		<contour>
			<point x="39" y="0" type="line"/>
			<point x="231" y="0" type="line"/>
			<point x="231" y="12" type="line"/>
			<point x="140" y="20" type="line"/>
			<point x="132" y="20" type="line"/>
			<point x="39" y="12" type="line"/>
		</contour>
		<contour>
			<point x="114" y="0" type="curve"/>
			<point x="160" y="0" type="line"/>
			<point x="157" y="45"/>
			<point x="156" y="147"/>
			<point x="156" y="209" type="curve" smooth="yes"/>
			<point x="156" y="351" type="line"/>
			<point x="156" y="354" type="line"/>
			<point x="156" y="450" type="line"/>
			<point x="150" y="456" type="line"/>
			<point x="35" y="435" type="line"/>
			<point x="35" y="424" type="line"/>
			<point x="115" y="417" type="line"/>
			<point x="117" y="363"/>
			<point x="118" y="314"/>
			<point x="118" y="255" type="curve" smooth="yes"/>
			<point x="118" y="209" type="line" smooth="yes"/>
			<point x="118" y="147"/>
			<point x="117" y="45"/>
		</contour>
		<contour>
			<point x="315" y="0" type="line"/>
			<point x="506" y="0" type="line"/>
			<point x="506" y="12" type="line"/>
			<point x="417" y="20" type="line"/>
			<point x="409" y="20" type="line"/>
			<point x="315" y="12" type="line"/>
		</contour>
		<contour>
			<point x="391" y="0" type="curve"/>
			<point x="437" y="0" type="line"/>
			<point x="434" y="45"/>
			<point x="433" y="147"/>
			<point x="433" y="209" type="curve" smooth="yes"/>
			<point x="433" y="303" type="line" smooth="yes"/>
			<point x="433" y="420"/>
			<point x="396" y="461"/>
			<point x="324" y="461" type="curve" smooth="yes"/>
			<point x="265" y="461"/>
			<point x="205" y="423"/>
			<point x="147" y="350" type="curve"/>
			<point x="142" y="350" type="line"/>
			<point x="149" y="337" type="line"/>
			<point x="216" y="413"/>
			<point x="269" y="434"/>
			<point x="309" y="434" type="curve" smooth="yes"/>
			<point x="368" y="434"/>
			<point x="395" y="401"/>
			<point x="395" y="303" type="curve" smooth="yes"/>
			<point x="395" y="209" type="line" smooth="yes"/>
			<point x="395" y="147"/>
			<point x="394" y="45"/>
		</contour>
		<contour>
			<point x="592" y="0" type="line"/>
			<point x="783" y="0" type="line"/>
			<point x="783" y="12" type="line"/>
			<point x="694" y="20" type="line"/>
			<point x="686" y="20" type="line"/>
			<point x="592" y="12" type="line"/>
		</contour>
		<contour>
			<point x="668" y="0" type="curve"/>
			<point x="714" y="0" type="line"/>
			<point x="711" y="45"/>
			<point x="710" y="147"/>
			<point x="710" y="209" type="curve" smooth="yes"/>
			<point x="710" y="303" type="line" smooth="yes"/>
			<point x="710" y="420"/>
			<point x="673" y="461"/>
			<point x="601" y="461" type="curve" smooth="yes"/>
			<point x="542" y="461"/>
			<point x="481" y="423"/>
			<point x="424" y="350" type="curve"/>
			<point x="419" y="350" type="line"/>
			<point x="426" y="337" type="line"/>
			<point x="493" y="413"/>
			<point x="546" y="434"/>
			<point x="586" y="434" type="curve" smooth="yes"/>
			<point x="645" y="434"/>
			<point x="671" y="401"/>
			<point x="671" y="303" type="curve" smooth="yes"/>
			<point x="671" y="209" type="line" smooth="yes"/>
			<point x="671" y="147"/>
			<point x="670" y="45"/>
		</contour>
	</outline>
	<anchor name="aboveLC" x="413" y="469"/>
	<anchor name="belowLC" x="414" y="-20"/>
</glyph>
<glyph name="o" format="2">
	<unicode hex="006F"/>
	<advance width="487"/>
	<outline>
		<contour>
			<point x="244" y="-12" type="curve" smooth="yes"/>
			<point x="343" y="-12"/>
			<point x="441" y="68"/>
			<point x="441" y="228" type="curve" smooth="yes"/>
			<point x="441" y="388"/>
			<point x="343" y="461"/>
			<point x="244" y="461" type="curve" smooth="yes"/>
			<point x="145" y="461"/>
			<point x="47" y="382"/>
			<point x="47" y="221" type="curve" smooth="yes"/>
			<point x="47" y="61"/>
			<point x="145" y="-12"/>
		</contour>
		<contour>
			<point x="244" y="4" type="curve" smooth="yes"/>
			<point x="158" y="4"/>
			<point x="89" y="77"/>
			<point x="89" y="221" type="curve" smooth="yes"/>
			<point x="89" y="367"/>
			<point x="158" y="446"/>
			<point x="244" y="446" type="curve" smooth="yes"/>
			<point x="330" y="446"/>
			<point x="399" y="373"/>
			<point x="399" y="228" type="curve" smooth="yes"/>
			<point x="399" y="83"/>
			<point x="330" y="4"/>
		</contour>
	</outline>
	<anchor name="aboveLC" x="244" y="469"/>
	<anchor name="belowLC" x="244" y="-20"/>
	<anchor name="hornLC" x="369" y="377"/>
	<anchor name="ogonek" x="300" y="0"/>
</glyph>
<glyph name="r" format="2">
	<unicode hex="0072"/>
	<advance width="378"/>
	<outline>
		<contour>
			<point x="39" y="0" type="line"/>
			<point x="248" y="0" type="line"/>
			<point x="248" y="12" type="line"/>
			<point x="140" y="20" type="line"/>
			<point x="132" y="20" type="line"/>
			<point x="39" y="12" type="line"/>
		</contour>
		<contour>
			<point x="114" y="0" type="curve"/>
			<point x="160" y="0" type="line"/>
			<point x="157" y="45"/>
			<point x="156" y="147"/>
			<point x="156" y="209" type="curve" smooth="yes"/>
			<point x="156" y="310" type="line"/>
			<point x="156" y="312" type="line"/>
			<point x="156" y="450" type="line"/>
			<point x="150" y="456" type="line"/>
			<point x="35" y="435" type="line"/>
			<point x="35" y="424" type="line"/>
			<point x="115" y="417" type="line"/>
			<point x="117" y="363"/>
			<point x="118" y="314"/>
			<point x="118" y="255" type="curve" smooth="yes"/>
			<point x="118" y="209" type="line" smooth="yes"/>
			<point x="118" y="147"/>
			<point x="117" y="45"/>
		</contour>
		<contour>
			<point x="152" y="280" type="line"/>
			<point x="181" y="374"/>
			<point x="232" y="428"/>
			<point x="284" y="442" type="curve"/>
			<point x="257" y="439" type="line"/>
			<point x="277" y="423" type="line" smooth="yes"/>
			<point x="293" y="409"/>
			<point x="310" y="400"/>
			<point x="328" y="400" type="curve" smooth="yes"/>
			<point x="347" y="400"/>
			<point x="363" y="409"/>
			<point x="365" y="430" type="curve"/>
			<point x="359" y="450"/>
			<point x="335" y="461"/>
			<point x="305" y="461" type="curve" smooth="yes"/>
			<point x="240" y="461"/>
			<point x="182" y="404"/>
			<point x="153" y="316" type="curve"/>
			<point x="143" y="316" type="line"/>
		</contour>
	</outline>
	<anchor name="aboveLC" x="220" y="469"/>
	<anchor name="belowLC" x="137" y="-20"/>
</glyph>
<glyph name="s" format="2">
	<unicode hex="0073"/>
	<advance width="389"/>
	<outline>
		<contour>
			<point x="187" y="-12" type="curve" smooth="yes"/>
			<point x="293" y="-12"/>
			<point x="340" y="42"/>
			<point x="340" y="114" type="curve" smooth="yes"/>
			<point x="340" y="184"/>
			<point x="296" y="213"/>
			<point x="224" y="241" type="curve" smooth="yes"/>
			<point x="194" y="253" type="line" smooth="yes"/>
			<point x="137" y="276"/>
			<point x="96" y="301"/>
			<point x="96" y="353" type="curve" smooth="yes"/>
			<point x="96" y="404"/>
			<point x="130" y="446"/>
			<point x="203" y="446" type="curve" smooth="yes"/>
			<point x="249" y="446"/>
			<point x="281" y="436"/>
			<point x="316" y="413" type="curve"/>
			<point x="316" y="431" type="line"/>
			<point x="291" y="431" type="line"/>
			<point x="311" y="316" type="line"/>
			<point x="322" y="316" type="line"/>
			<point x="325" y="429" type="line"/>
			<point x="287" y="450"/>
			<point x="254" y="461"/>
			<point x="203" y="461" type="curve" smooth="yes"/>
			<point x="113" y="461"/>
			<point x="64" y="411"/>
			<point x="64" y="341" type="curve" smooth="yes"/>
			<point x="64" y="271"/>
			<point x="116" y="245"/>
			<point x="177" y="221" type="curve" smooth="yes"/>
			<point x="207" y="209" type="line" smooth="yes"/>
			<point x="275" y="182"/>
			<point x="307" y="155"/>
			<point x="307" y="103" type="curve" smooth="yes"/>
			<point x="307" y="44"/>
			<point x="268" y="3"/>
			<point x="187" y="3" type="curve" smooth="yes"/>
			<point x="140" y="3"/>
			<point x="107" y="12"/>
			<point x="68" y="33" type="curve"/>
			<point x="68" y="18" type="line"/>
			<point x="92" y="18" type="line"/>
			<point x="74" y="143" type="line"/>
			<point x="63" y="143" type="line"/>
			<point x="56" y="21" type="line"/>
			<point x="99" y="-2"/>
			<point x="134" y="-12"/>
		</contour>
	</outline>
	<anchor name="aboveLC" x="203" y="469"/>
	<anchor name="belowLC" x="191" y="-20"/>
	<anchor name="baseLC" x="191" y="0"/>
</glyph>
<glyph name="t" format="2">
	<unicode hex="0074"/>
	<advance width="299"/>
	<outline>
		<contour>
			<point x="121" y="432" type="line"/>
			<point x="270" y="432" type="line"/>
			<point x="270" y="449" type="line"/>
			<point x="121" y="449" type="line"/>
		</contour>
		<contour>
			<point x="193" y="-12" type="curve" smooth="yes"/>
			<point x="232" y="-12"/>
			<point x="257" y="3"/>
			<point x="276" y="30" type="curve"/>
			<point x="269" y="37" type="line"/>
			<point x="250" y="21"/>
			<point x="232" y="11"/>
			<point x="203" y="11" type="curve" smooth="yes"/>
			<point x="160" y="11"/>
			<point x="139" y="38"/>
			<point x="139" y="96" type="curve" smooth="yes"/>
			<point x="139" y="439" type="line"/>
			<point x="139" y="443" type="line"/>
			<point x="143" y="599" type="line"/>
			<point x="129" y="599" type="line"/>
			<point x="100" y="443" type="line"/>
			<point x="119" y="454" type="line"/>
			<point x="13" y="444" type="line"/>
			<point x="13" y="432" type="line"/>
			<point x="101" y="432" type="line"/>
			<point x="100" y="176" type="line" smooth="yes"/>
			<point x="100" y="144"/>
			<point x="99" y="123"/>
			<point x="99" y="91" type="curve" smooth="yes"/>
			<point x="99" y="24"/>
			<point x="132" y="-12"/>
		</contour>
	</outline>
	<anchor name="aboveLC" x="134" y="573"/>
	<anchor name="belowLC" x="189" y="-20"/>
	<anchor name="baseLC" x="189" y="0"/>
</glyph>
<glyph name="u" format="2">
	<unicode hex="0075"/>
	<advance width="548"/>
	<outline>
		<contour>
			<point x="232" y="-12" type="curve" smooth="yes"/>
			<point x="294" y="-12"/>
			<point x="348" y="22"/>
			<point x="406" y="96" type="curve"/>
			<point x="410" y="96" type="line"/>
			<point x="404" y="108" type="line"/>
			<point x="337" y="32"/>
			<point x="288" y="16"/>
			<point x="245" y="16" type="curve" smooth="yes"/>
			<point x="184" y="16"/>
			<point x="147" y="48"/>
			<point x="147" y="146" type="curve" smooth="yes"/>
			<point x="147" y="336" type="line"/>
			<point x="149" y="450" type="line"/>
			<point x="143" y="456" type="line"/>
			<point x="32" y="440" type="line"/>
			<point x="32" y="428" type="line"/>
			<point x="121" y="421" type="line"/>
			<point x="108" y="436" type="line"/>
			<point x="108" y="139" type="line" smooth="yes"/>
			<point x="108" y="29"/>
			<point x="158" y="-12"/>
		</contour>
		<contour>
			<point x="396" y="-6" type="line"/>
			<point x="512" y="0" type="line"/>
			<point x="512" y="12" type="line"/>
			<point x="435" y="19" type="line"/>
			<point x="435" y="336" type="line"/>
			<point x="438" y="450" type="line"/>
			<point x="431" y="456" type="line"/>
			<point x="317" y="440" type="line"/>
			<point x="317" y="428" type="line"/>
			<point x="396" y="423" type="line"/>
			<point x="396" y="93" type="line"/>
			<point x="396" y="91" type="line"/>
		</contour>
	</outline>
	<anchor name="aboveLC" x="269" y="469"/>
	<anchor name="belowLC" x="268" y="-20"/>
	<anchor name="hornLC" x="431" y="377"/>
	<anchor name="ogonek" x="449" y="0"/>
</glyph>
<glyph name="v" format="2">
	<unicode hex="0076"/>
	<advance width="472"/>
	<outline>
		<contour>
			<point x="232" y="-4" type="line"/>
			<point x="247" y="-4" type="line"/>
			<point x="412" y="449" type="line"/>
			<point x="391" y="449" type="line"/>
			<point x="243" y="38" type="line"/>
			<point x="256" y="38" type="line"/>
			<point x="104" y="449" type="line"/>
			<point x="59" y="449" type="line"/>
		</contour>
		<contour>
			<point x="7" y="437" type="line"/>
			<point x="87" y="429" type="line"/>
			<point x="95" y="429" type="line"/>
			<point x="193" y="438" type="line"/>
			<point x="193" y="449" type="line"/>
			<point x="7" y="449" type="line"/>
		</contour>
		<contour>
			<point x="307" y="438" type="line"/>
			<point x="393" y="431" type="line"/>
			<point x="400" y="431" type="line"/>
			<point x="465" y="437" type="line"/>
			<point x="465" y="449" type="line"/>
			<point x="307" y="449" type="line"/>
		</contour>
	</outline>
	<anchor name="aboveLC" x="248" y="469"/>
	<anchor name="belowLC" x="239" y="-20"/>
</glyph>
<glyph name="w" format="2">
	<unicode hex="0077"/>
	<advance width="711"/>
	<outline>
		<contour>
			<point x="213" y="-4" type="line"/>
			<point x="228" y="-4" type="line"/>
			<point x="364" y="414" type="line"/>
			<point x="353" y="414" type="line"/>
			<point x="490" y="-4" type="line"/>
			<point x="505" y="-4" type="line"/>
			<point x="649" y="449" type="line"/>
			<point x="628" y="449" type="line"/>
			<point x="501" y="38" type="line"/>
			<point x="512" y="38" type="line"/>
			<point x="381" y="449" type="line"/>
			<point x="356" y="449" type="line"/>
			<point x="224" y="38" type="line"/>
			<point x="238" y="38" type="line"/>
			<point x="107" y="449" type="line"/>
			<point x="62" y="449" type="line"/>
		</contour>
		<contour>
			<point x="9" y="437" type="line"/>
			<point x="89" y="429" type="line"/>
			<point x="98" y="429" type="line"/>
			<point x="191" y="438" type="line"/>
			<point x="191" y="449" type="line"/>
			<point x="9" y="449" type="line"/>
		</contour>
		<contour>
			<point x="284" y="438" type="line"/>
			<point x="360" y="431" type="line"/>
			<point x="385" y="431" type="line"/>
			<point x="456" y="438" type="line"/>
			<point x="456" y="449" type="line"/>
			<point x="284" y="449" type="line"/>
		</contour>
		<contour>
			<point x="545" y="438" type="line"/>
			<point x="630" y="431" type="line"/>
			<point x="637" y="431" type="line"/>
			<point x="702" y="437" type="line"/>
			<point x="702" y="449" type="line"/>
			<point x="545" y="449" type="line"/>
		</contour>
	</outline>
	<anchor name="aboveLC" x="368" y="469"/>
	<anchor name="belowLC" x="360" y="-20"/>
</glyph>
<glyph name="y" format="2">
	<unicode hex="0079"/>
	<advance width="474"/>
	<outline>
		<contour>
			<point x="66" y="-263" type="curve" smooth="yes"/>
			<point x="135" y="-263"/>
			<point x="185" y="-183"/>
			<point x="229" y="-59" type="curve" smooth="yes"/>
			<point x="414" y="449" type="line"/>
			<point x="394" y="449" type="line"/>
			<point x="242" y="26" type="line"/>
			<point x="211" y="-57" type="line" smooth="yes"/>
			<point x="171" y="-168"/>
			<point x="131" y="-234"/>
			<point x="76" y="-244" type="curve"/>
			<point x="94" y="-246" type="line"/>
			<point x="108" y="-242" type="line"/>
			<point x="88" y="-228" type="line" smooth="yes"/>
			<point x="71" y="-215"/>
			<point x="54" y="-207"/>
			<point x="37" y="-207" type="curve" smooth="yes"/>
			<point x="15" y="-207"/>
			<point x="3" y="-216"/>
			<point x="2" y="-233" type="curve"/>
			<point x="9" y="-253"/>
			<point x="38" y="-263"/>
		</contour>
		<contour>
			<point x="234" y="-4" type="line"/>
			<point x="245" y="14" type="line"/>
			<point x="259" y="38" type="line"/>
			<point x="107" y="449" type="line"/>
			<point x="61" y="449" type="line"/>
		</contour>
		<contour>
			<point x="9" y="437" type="line"/>
			<point x="89" y="429" type="line"/>
			<point x="98" y="429" type="line"/>
			<point x="195" y="438" type="line"/>
			<point x="195" y="449" type="line"/>
			<point x="9" y="449" type="line"/>
		</contour>
		<contour>
			<point x="308" y="438" type="line"/>
			<point x="394" y="431" type="line"/>
			<point x="401" y="431" type="line"/>
			<point x="468" y="437" type="line"/>
			<point x="468" y="449" type="line"/>
			<point x="308" y="449" type="line"/>
		</contour>
	</outline>
	<anchor name="aboveLC" x="252" y="469"/>
	<anchor name="belowLC" x="121" y="-283"/>
</glyph>
<glyph name="z" format="2">
	<unicode hex="007A"/>
	<advance width="411"/>
	<outline>
		<contour>
			<point x="42" y="0" type="line"/>
			<point x="373" y="0" type="line"/>
			<point x="379" y="146" type="line"/>
			<point x="368" y="146" type="line"/>
			<point x="338" y="9" type="line"/>
			<point x="357" y="16" type="line"/>
			<point x="73" y="16" type="line"/>
			<point x="83" y="8" type="line"/>
			<point x="370" y="439" type="line"/>
			<point x="370" y="449" type="line"/>
			<point x="55" y="449" type="line"/>
			<point x="50" y="316" type="line"/>
			<point x="62" y="314" type="line"/>
			<point x="91" y="440" type="line"/>
			<point x="70" y="433" type="line"/>
			<point x="339" y="433" type="line"/>
			<point x="328" y="442" type="line"/>
			<point x="42" y="10" type="line"/>
		</contour>
	</outline>
	<anchor name="aboveLC" x="211" y="469"/>
	<anchor name="belowLC" x="208" y="-20"/>
</glyph>
<glyph name="asciitilde" format="2">
	<unicode hex="007E"/>
	<advance width="496"/>
	<outline>
		<contour>
			<point x="255" y="347" type="curve" smooth="yes"/>
			<point x="227" y="372"/>
			<point x="199" y="398"/>
			<point x="156" y="398" type="curve" smooth="yes"/>
			<point x="100" y="398"/>
			<point x="64" y="357"/>
			<point x="56" y="292" type="curve"/>
			<point x="75" y="288" type="line"/>
			<point x="85" y="351"/>
			<point x="114" y="376"/>
			<point x="155" y="376" type="curve" smooth="yes"/>
			<point x="190" y="376"/>
			<point x="215" y="354"/>
			<point x="240" y="331" type="curve" smooth="yes"/>
			<point x="268" y="306"/>
			<point x="297" y="280"/>
			<point x="340" y="280" type="curve" smooth="yes"/>
			<point x="396" y="280"/>
			<point x="432" y="321"/>
			<point x="440" y="386" type="curve"/>
			<point x="421" y="390" type="line"/>
			<point x="411" y="326"/>
			<point x="382" y="302"/>
			<point x="341" y="302" type="curve" smooth="yes"/>
			<point x="306" y="302"/>
			<point x="281" y="324"/>
		</contour>
	</outline>
</glyph>
<glyph name="cent" format="2">
	<unicode hex="00A2"/>
	<advance width="463"/>
	<outline>
		<contour>
			<point x="261" y="-49" type="line"/>
			<point x="261" y="665" type="line"/>
			<point x="243" y="665" type="line"/>
			<point x="243" y="-49" type="line"/>
		</contour>
		<contour>
			<point x="263" y="535" type="curve" smooth="yes"/>
			<point x="299" y="535"/>
			<point x="326" y="525"/>
			<point x="354" y="497" type="curve"/>
			<point x="332" y="526" type="line"/>
			<point x="354" y="442" type="line" smooth="yes"/>
			<point x="358" y="425"/>
			<point x="368" y="417"/>
			<point x="384" y="417" type="curve" smooth="yes"/>
			<point x="398" y="417"/>
			<point x="406" y="425"/>
			<point x="408" y="441" type="curve"/>
			<point x="391" y="510"/>
			<point x="338" y="551"/>
			<point x="263" y="551" type="curve" smooth="yes"/>
			<point x="160" y="551"/>
			<point x="57" y="467"/>
			<point x="57" y="312" type="curve" smooth="yes"/>
			<point x="57" y="158"/>
			<point x="148" y="77"/>
			<point x="255" y="77" type="curve" smooth="yes"/>
			<point x="318" y="77"/>
			<point x="373" y="106"/>
			<point x="409" y="166" type="curve"/>
			<point x="400" y="174" type="line"/>
			<point x="364" y="131"/>
			<point x="319" y="107"/>
			<point x="261" y="107" type="curve" smooth="yes"/>
			<point x="161" y="107"/>
			<point x="99" y="198"/>
			<point x="99" y="320" type="curve" smooth="yes"/>
			<point x="99" y="447"/>
			<point x="168" y="535"/>
		</contour>
	</outline>
</glyph>
<glyph name="sterling" format="2">
	<unicode hex="00A3"/>
	<advance width="463"/>
	<outline>
		<contour>
			<point x="36" y="306" type="line"/>
			<point x="360" y="306" type="line"/>
			<point x="360" y="321" type="line"/>
			<point x="36" y="321" type="line"/>
		</contour>
		<contour>
			<point x="35" y="0" type="line"/>
			<point x="428" y="0" type="line"/>
			<point x="428" y="37" type="line"/>
			<point x="64" y="37" type="line"/>
			<point x="58" y="28" type="line"/>
			<point x="128" y="78"/>
			<point x="175" y="152"/>
			<point x="175" y="246" type="curve" smooth="yes"/>
			<point x="175" y="347"/>
			<point x="128" y="403"/>
			<point x="128" y="499" type="curve" smooth="yes"/>
			<point x="128" y="590"/>
			<point x="175" y="649"/>
			<point x="258" y="649" type="curve" smooth="yes"/>
			<point x="302" y="649"/>
			<point x="327" y="638"/>
			<point x="364" y="599" type="curve"/>
			<point x="333" y="632" type="line"/>
			<point x="356" y="546" type="line" smooth="yes"/>
			<point x="363" y="522"/>
			<point x="372" y="513"/>
			<point x="387" y="513" type="curve" smooth="yes"/>
			<point x="401" y="513"/>
			<point x="409" y="521"/>
			<point x="412" y="536" type="curve"/>
			<point x="393" y="616"/>
			<point x="342" y="665"/>
			<point x="256" y="665" type="curve" smooth="yes"/>
			<point x="158" y="665"/>
			<point x="87" y="599"/>
			<point x="87" y="497" type="curve" smooth="yes"/>
			<point x="87" y="394"/>
			<point x="145" y="332"/>
			<point x="145" y="231" type="curve" smooth="yes"/>
			<point x="145" y="145"/>
			<point x="109" y="78"/>
			<point x="35" y="22" type="curve"/>
		</contour>
	</outline>
</glyph>
<glyph name="currency" format="2">
	<unicode hex="00A4"/>
	<advance width="463"/>
	<outline>
		<contour>
			<point x="330" y="431" type="line"/>
			<point x="368" y="462" type="line" smooth="yes"/>
			<point x="393" y="484"/>
			<point x="415" y="495"/>
			<point x="415" y="512" type="curve" smooth="yes"/>
			<point x="415" y="520"/>
			<point x="409" y="528"/>
			<point x="399" y="528" type="curve" smooth="yes"/>
			<point x="384" y="528"/>
			<point x="371" y="503"/>
			<point x="350" y="473" type="curve" smooth="yes"/>
			<point x="322" y="436" type="line"/>
		</contour>
		<contour>
			<point x="114" y="335" type="curve" smooth="yes"/>
			<point x="114" y="407"/>
			<point x="165" y="460"/>
			<point x="233" y="460" type="curve" smooth="yes"/>
			<point x="302" y="460"/>
			<point x="353" y="407"/>
			<point x="353" y="335" type="curve" smooth="yes"/>
			<point x="353" y="262"/>
			<point x="302" y="209"/>
			<point x="233" y="209" type="curve" smooth="yes"/>
			<point x="165" y="209"/>
			<point x="114" y="262"/>
		</contour>
		<contour>
			<point x="94" y="335" type="curve" smooth="yes"/>
			<point x="94" y="249"/>
			<point x="158" y="192"/>
			<point x="233" y="192" type="curve" smooth="yes"/>
			<point x="309" y="192"/>
			<point x="373" y="249"/>
			<point x="373" y="335" type="curve" smooth="yes"/>
			<point x="373" y="420"/>
			<point x="309" y="477"/>
			<point x="233" y="477" type="curve" smooth="yes"/>
			<point x="158" y="477"/>
			<point x="94" y="420"/>
		</contour>
		<contour>
			<point x="145" y="436" type="line"/>
			<point x="117" y="473" type="line" smooth="yes"/>
			<point x="96" y="503"/>
			<point x="83" y="528"/>
			<point x="68" y="528" type="curve" smooth="yes"/>
			<point x="58" y="528"/>
			<point x="52" y="520"/>
			<point x="52" y="512" type="curve" smooth="yes"/>
			<point x="52" y="495"/>
			<point x="74" y="484"/>
			<point x="99" y="462" type="curve" smooth="yes"/>
			<point x="137" y="431" type="line"/>
		</contour>
		<contour>
			<point x="137" y="238" type="line"/>
			<point x="99" y="207" type="line" smooth="yes"/>
			<point x="74" y="185"/>
			<point x="52" y="174"/>
			<point x="52" y="157" type="curve" smooth="yes"/>
			<point x="52" y="149"/>
			<point x="58" y="141"/>
			<point x="68" y="141" type="curve" smooth="yes"/>
			<point x="83" y="141"/>
			<point x="96" y="166"/>
			<point x="117" y="195" type="curve" smooth="yes"/>
			<point x="145" y="233" type="line"/>
		</contour>
		<contour>
			<point x="322" y="233" type="line"/>
			<point x="350" y="195" type="line" smooth="yes"/>
			<point x="371" y="166"/>
			<point x="384" y="141"/>
			<point x="399" y="141" type="curve" smooth="yes"/>
			<point x="409" y="141"/>
			<point x="415" y="149"/>
			<point x="415" y="157" type="curve" smooth="yes"/>
			<point x="415" y="174"/>
			<point x="393" y="185"/>
			<point x="368" y="207" type="curve" smooth="yes"/>
			<point x="330" y="238" type="line"/>
		</contour>
	</outline>
</glyph>
<glyph name="yen" format="2">
	<unicode hex="00A5"/>
	<advance width="463"/>
	<outline>
		<contour>
			<point x="236" y="245" type="line"/>
			<point x="415" y="653" type="line"/>
			<point x="393" y="653" type="line"/>
			<point x="240" y="296" type="line"/>
			<point x="248" y="296" type="line"/>
			<point x="90" y="653" type="line"/>
			<point x="44" y="653" type="line"/>
			<point x="227" y="245" type="line"/>
		</contour>
		<contour>
			<point x="69" y="633" type="line"/>
			<point x="88" y="633" type="line"/>
			<point x="191" y="641" type="line"/>
			<point x="191" y="653" type="line"/>
			<point x="-7" y="653" type="line"/>
			<point x="-7" y="641" type="line"/>
		</contour>
		<contour>
			<point x="223" y="20" type="line"/>
			<point x="108" y="12" type="line"/>
			<point x="108" y="0" type="line"/>
			<point x="356" y="0" type="line"/>
			<point x="356" y="12" type="line"/>
			<point x="242" y="20" type="line"/>
		</contour>
		<contour>
			<point x="211" y="177" type="line" smooth="yes"/>
			<point x="211" y="118"/>
			<point x="210" y="63"/>
			<point x="209" y="0" type="curve"/>
			<point x="255" y="0" type="line"/>
			<point x="254" y="63"/>
			<point x="253" y="118"/>
			<point x="253" y="177" type="curve" smooth="yes"/>
			<point x="253" y="297" type="line"/>
			<point x="211" y="297" type="line"/>
		</contour>
		<contour>
			<point x="386" y="633" type="line"/>
			<point x="400" y="633" type="line"/>
			<point x="467" y="641" type="line"/>
			<point x="467" y="653" type="line"/>
			<point x="292" y="653" type="line"/>
			<point x="292" y="641" type="line"/>
		</contour>
		<contour>
			<point x="53" y="171" type="line"/>
			<point x="410" y="171" type="line"/>
			<point x="410" y="185" type="line"/>
			<point x="53" y="185" type="line"/>
		</contour>
		<contour>
			<point x="53" y="276" type="line"/>
			<point x="410" y="276" type="line"/>
			<point x="410" y="291" type="line"/>
			<point x="53" y="291" type="line"/>
		</contour>
	</outline>
</glyph>
<glyph name="brokenbar" format="2">
	<unicode hex="00A6"/>
	<advance width="240"/>
	<outline>
		<contour>
			<point x="105" y="-252" type="line"/>
			<point x="135" y="-252" type="line"/>
			<point x="135" y="200" type="line"/>
			<point x="105" y="200" type="line"/>
		</contour>
		<contour>
			<point x="135" y="320" type="line"/>
			<point x="135" y="748" type="line"/>
			<point x="105" y="748" type="line"/>
			<point x="105" y="320" type="line"/>
		</contour>
	</outline>
</glyph>
<glyph name="section" format="2">
	<unicode hex="00A7"/>
	<advance width="467"/>
	<outline>
		<contour>
			<point x="207" y="-100" type="curve" smooth="yes"/>
			<point x="318" y="-100"/>
			<point x="374" y="-37"/>
			<point x="374" y="40" type="curve" smooth="yes"/>
			<point x="374" y="88"/>
			<point x="348" y="121"/>
			<point x="312" y="146" type="curve"/>
			<point x="309" y="148" type="line"/>
			<point x="284" y="166"/>
			<point x="254" y="180"/>
			<point x="226" y="194" type="curve" smooth="yes"/>
			<point x="161" y="226"/>
			<point x="100" y="259"/>
			<point x="100" y="326" type="curve" smooth="yes"/>
			<point x="100" y="367"/>
			<point x="126" y="412"/>
			<point x="178" y="446" type="curve"/>
			<point x="169" y="463" type="line"/>
			<point x="169" y="454" type="line"/>
			<point x="105" y="420"/>
			<point x="67" y="371"/>
			<point x="67" y="314" type="curve" smooth="yes"/>
			<point x="67" y="232"/>
			<point x="138" y="196"/>
			<point x="208" y="162" type="curve" smooth="yes"/>
			<point x="274" y="130"/>
			<point x="339" y="98"/>
			<point x="339" y="30" type="curve" smooth="yes"/>
			<point x="339" y="-36"/>
			<point x="296" y="-84"/>
			<point x="206" y="-84" type="curve" smooth="yes"/>
			<point x="170" y="-84"/>
			<point x="142" y="-76"/>
			<point x="116" y="-58" type="curve"/>
			<point x="136" y="-77" type="line"/>
			<point x="107" y="-7" type="line" smooth="yes"/>
			<point x="100" y="9"/>
			<point x="92" y="16"/>
			<point x="79" y="16" type="curve" smooth="yes"/>
			<point x="67" y="16"/>
			<point x="59" y="9"/>
			<point x="57" y="-5" type="curve"/>
			<point x="71" y="-63"/>
			<point x="124" y="-100"/>
		</contour>
		<contour>
			<point x="256" y="689" type="curve" smooth="yes"/>
			<point x="156" y="689"/>
			<point x="103" y="628"/>
			<point x="103" y="554" type="curve" smooth="yes"/>
			<point x="103" y="505"/>
			<point x="128" y="472"/>
			<point x="164" y="447" type="curve"/>
			<point x="167" y="445" type="line"/>
			<point x="193" y="427"/>
			<point x="222" y="413"/>
			<point x="251" y="399" type="curve" smooth="yes"/>
			<point x="316" y="367"/>
			<point x="377" y="334"/>
			<point x="377" y="267" type="curve" smooth="yes"/>
			<point x="377" y="226"/>
			<point x="351" y="181"/>
			<point x="299" y="147" type="curve"/>
			<point x="307" y="133" type="line"/>
			<point x="307" y="139" type="line"/>
			<point x="371" y="173"/>
			<point x="410" y="222"/>
			<point x="410" y="279" type="curve" smooth="yes"/>
			<point x="410" y="361"/>
			<point x="339" y="397"/>
			<point x="269" y="431" type="curve" smooth="yes"/>
			<point x="202" y="463"/>
			<point x="137" y="495"/>
			<point x="137" y="563" type="curve" smooth="yes"/>
			<point x="137" y="627"/>
			<point x="178" y="673"/>
			<point x="257" y="673" type="curve" smooth="yes"/>
			<point x="293" y="673"/>
			<point x="320" y="665"/>
			<point x="346" y="647" type="curve"/>
			<point x="325" y="665" type="line"/>
			<point x="355" y="596" type="line" smooth="yes"/>
			<point x="362" y="579"/>
			<point x="370" y="572"/>
			<point x="383" y="572" type="curve" smooth="yes"/>
			<point x="394" y="572"/>
			<point x="403" y="580"/>
			<point x="405" y="593" type="curve"/>
			<point x="390" y="651"/>
			<point x="339" y="689"/>
		</contour>
	</outline>
</glyph>
<glyph name="copyright" format="2">
	<unicode hex="00A9"/>
	<advance width="758"/>
	<outline>
		<contour>
			<point x="54" y="339" type="curve" smooth="yes"/>
			<point x="54" y="545"/>
			<point x="195" y="671"/>
			<point x="379" y="671" type="curve" smooth="yes"/>
			<point x="563" y="671"/>
			<point x="704" y="544"/>
			<point x="704" y="339" type="curve" smooth="yes"/>
			<point x="704" y="134"/>
			<point x="564" y="4"/>
			<point x="379" y="4" type="curve" smooth="yes"/>
			<point x="195" y="4"/>
			<point x="54" y="130"/>
		</contour>
		<contour>
			<point x="30" y="339" type="curve" smooth="yes"/>
			<point x="30" y="120"/>
			<point x="188" y="-14"/>
			<point x="379" y="-14" type="curve" smooth="yes"/>
			<point x="571" y="-14"/>
			<point x="728" y="120"/>
			<point x="728" y="339" type="curve" smooth="yes"/>
			<point x="728" y="558"/>
			<point x="571" y="689"/>
			<point x="379" y="689" type="curve" smooth="yes"/>
			<point x="188" y="689"/>
			<point x="30" y="558"/>
		</contour>
		<contour>
			<point x="392" y="143" type="curve" smooth="yes"/>
			<point x="306" y="143"/>
			<point x="243" y="212"/>
			<point x="243" y="340" type="curve" smooth="yes"/>
			<point x="243" y="467"/>
			<point x="306" y="537"/>
			<point x="394" y="537" type="curve" smooth="yes"/>
			<point x="429" y="537"/>
			<point x="457" y="531"/>
			<point x="490" y="509" type="curve"/>
			<point x="467" y="526" type="line"/>
			<point x="496" y="429" type="line"/>
			<point x="505" y="429" type="line"/>
			<point x="500" y="521" type="line"/>
			<point x="465" y="543"/>
			<point x="428" y="549"/>
			<point x="392" y="549" type="curve" smooth="yes"/>
			<point x="284" y="549"/>
			<point x="203" y="468"/>
			<point x="203" y="341" type="curve" smooth="yes"/>
			<point x="203" y="213"/>
			<point x="279" y="132"/>
			<point x="391" y="132" type="curve" smooth="yes"/>
			<point x="431" y="132"/>
			<point x="466" y="138"/>
			<point x="504" y="160" type="curve"/>
			<point x="510" y="253" type="line"/>
			<point x="500" y="253" type="line"/>
			<point x="472" y="155" type="line"/>
			<point x="493" y="172" type="line"/>
			<point x="460" y="149"/>
			<point x="425" y="143"/>
		</contour>
	</outline>
</glyph>
<glyph name="registered" format="2">
	<unicode hex="00AE"/>
	<advance width="458"/>
	<outline>
		<contour>
			<point x="335" y="426" type="line"/>
			<point x="301" y="430" type="line"/>
			<point x="313" y="425" type="line"/>
			<point x="290" y="478" type="line" smooth="yes"/>
			<point x="277" y="508"/>
			<point x="261" y="518"/>
			<point x="223" y="518" type="curve"/>
			<point x="223" y="516" type="line"/>
			<point x="279" y="516"/>
			<point x="302" y="542"/>
			<point x="302" y="569" type="curve" smooth="yes"/>
			<point x="302" y="602"/>
			<point x="275" y="620"/>
			<point x="230" y="620" type="curve" smooth="yes"/>
			<point x="188" y="620" type="line"/>
			<point x="188" y="612" type="line"/>
			<point x="229" y="612" type="line" smooth="yes"/>
			<point x="258" y="612"/>
			<point x="272" y="596"/>
			<point x="272" y="568" type="curve" smooth="yes"/>
			<point x="272" y="543"/>
			<point x="258" y="522"/>
			<point x="225" y="522" type="curve" smooth="yes"/>
			<point x="188" y="522" type="line"/>
			<point x="188" y="514" type="line"/>
			<point x="217" y="514" type="line" smooth="yes"/>
			<point x="240" y="514"/>
			<point x="249" y="507"/>
			<point x="257" y="484" type="curve" smooth="yes"/>
			<point x="274" y="439" type="line" smooth="yes"/>
			<point x="280" y="424"/>
			<point x="289" y="418"/>
			<point x="311" y="418" type="curve" smooth="yes"/>
			<point x="320" y="418"/>
			<point x="328" y="419"/>
			<point x="335" y="421" type="curve"/>
		</contour>
		<contour>
			<point x="184" y="430" type="line"/>
			<point x="150" y="426" type="line"/>
			<point x="150" y="421" type="line"/>
			<point x="230" y="421" type="line"/>
			<point x="230" y="426" type="line"/>
			<point x="197" y="430" type="line"/>
		</contour>
		<contour>
			<point x="184" y="611" type="line"/>
			<point x="197" y="611" type="line"/>
			<point x="197" y="620" type="line"/>
			<point x="150" y="620" type="line"/>
			<point x="150" y="615" type="line"/>
		</contour>
		<contour>
			<point x="48" y="516" type="curve" smooth="yes"/>
			<point x="48" y="624"/>
			<point x="133" y="696"/>
			<point x="229" y="696" type="curve" smooth="yes"/>
			<point x="325" y="696"/>
			<point x="410" y="624"/>
			<point x="410" y="516" type="curve" smooth="yes"/>
			<point x="410" y="408"/>
			<point x="326" y="334"/>
			<point x="229" y="334" type="curve" smooth="yes"/>
			<point x="132" y="334"/>
			<point x="48" y="408"/>
		</contour>
		<contour>
			<point x="176" y="421" type="line"/>
			<point x="205" y="421" type="line"/>
			<point x="205" y="620" type="line"/>
			<point x="176" y="620" type="line"/>
		</contour>
		<contour>
			<point x="30" y="516" type="curve" smooth="yes"/>
			<point x="30" y="396"/>
			<point x="124" y="318"/>
			<point x="229" y="318" type="curve" smooth="yes"/>
			<point x="333" y="318"/>
			<point x="428" y="396"/>
			<point x="428" y="516" type="curve" smooth="yes"/>
			<point x="428" y="636"/>
			<point x="333" y="712"/>
			<point x="229" y="712" type="curve" smooth="yes"/>
			<point x="125" y="712"/>
			<point x="30" y="636"/>
		</contour>
	</outline>
</glyph>
<glyph name="degree" format="2">
	<unicode hex="00B0"/>
	<advance width="305"/>
	<outline>
		<contour>
			<point x="153" y="475" type="curve" smooth="yes"/>
			<point x="101" y="475"/>
			<point x="63" y="512"/>
			<point x="63" y="569" type="curve" smooth="yes"/>
			<point x="63" y="626"/>
			<point x="101" y="664"/>
			<point x="153" y="664" type="curve" smooth="yes"/>
			<point x="204" y="664"/>
			<point x="243" y="626"/>
			<point x="243" y="569" type="curve" smooth="yes"/>
			<point x="243" y="512"/>
			<point x="204" y="475"/>
		</contour>
		<contour>
			<point x="153" y="451" type="curve" smooth="yes"/>
			<point x="217" y="451"/>
			<point x="269" y="498"/>
			<point x="269" y="569" type="curve" smooth="yes"/>
			<point x="269" y="640"/>
			<point x="217" y="687"/>
			<point x="153" y="687" type="curve" smooth="yes"/>
			<point x="89" y="687"/>
			<point x="36" y="640"/>
			<point x="36" y="569" type="curve" smooth="yes"/>
			<point x="36" y="498"/>
			<point x="89" y="451"/>
		</contour>
	</outline>
</glyph>
<glyph name="plusminus" format="2">
	<unicode hex="00B1"/>
	<advance width="496"/>
	<outline>
		<contour>
			<point x="237" y="105" type="line"/>
			<point x="260" y="105" type="line"/>
			<point x="260" y="556" type="line"/>
			<point x="237" y="556" type="line"/>
		</contour>
		<contour>
			<point x="463" y="324" type="line"/>
			<point x="463" y="345" type="line"/>
			<point x="33" y="345" type="line"/>
			<point x="33" y="324" type="line"/>
		</contour>
		<contour>
			<point x="463" y="0" type="line"/>
			<point x="463" y="22" type="line"/>
			<point x="33" y="22" type="line"/>
			<point x="33" y="0" type="line"/>
		</contour>
	</outline>
</glyph>
<glyph name="two.sups" format="2">
	<unicode hex="00B2"/>
	<advance width="316"/>
	<outline>
		<contour>
			<point x="35" y="433" type="line"/>
			<point x="289" y="433" type="line"/>
			<point x="289" y="464" type="line"/>
			<point x="57" y="464" type="line"/>
			<point x="57" y="469" type="line"/>
			<point x="50" y="454" type="line"/>
			<point x="149" y="556" type="line" smooth="yes"/>
			<point x="238" y="643"/>
			<point x="272" y="689"/>
			<point x="272" y="740" type="curve" smooth="yes"/>
			<point x="272" y="805"/>
			<point x="235" y="846"/>
			<point x="154" y="846" type="curve" smooth="yes"/>
			<point x="92" y="846"/>
			<point x="47" y="814"/>
			<point x="35" y="763" type="curve"/>
			<point x="39" y="753"/>
			<point x="44" y="747"/>
			<point x="55" y="747" type="curve" smooth="yes"/>
			<point x="68" y="747"/>
			<point x="75" y="754"/>
			<point x="79" y="773" type="curve" smooth="yes"/>
			<point x="94" y="829" type="line"/>
			<point x="73" y="809" type="line"/>
			<point x="98" y="830"/>
			<point x="121" y="835"/>
			<point x="149" y="835" type="curve" smooth="yes"/>
			<point x="204" y="835"/>
			<point x="235" y="799"/>
			<point x="235" y="738" type="curve" smooth="yes"/>
			<point x="235" y="691"/>
			<point x="203" y="644"/>
			<point x="141" y="573" type="curve" smooth="yes"/>
			<point x="35" y="452" type="line"/>
		</contour>
	</outline>
</glyph>
<glyph name="three.sups" format="2">
	<unicode hex="00B3"/>
	<advance width="316"/>
	<outline>
		<contour>
			<point x="148" y="426" type="curve" smooth="yes"/>
			<point x="231" y="426"/>
			<point x="288" y="472"/>
			<point x="288" y="541" type="curve" smooth="yes"/>
			<point x="288" y="600"/>
			<point x="244" y="643"/>
			<point x="160" y="647" type="curve"/>
			<point x="160" y="644" type="line"/>
			<point x="233" y="652"/>
			<point x="274" y="695"/>
			<point x="274" y="749" type="curve" smooth="yes"/>
			<point x="274" y="804"/>
			<point x="232" y="847"/>
			<point x="155" y="847" type="curve" smooth="yes"/>
			<point x="98" y="847"/>
			<point x="50" y="820"/>
			<point x="40" y="768" type="curve"/>
			<point x="42" y="757"/>
			<point x="48" y="752"/>
			<point x="58" y="752" type="curve" smooth="yes"/>
			<point x="71" y="752"/>
			<point x="77" y="758"/>
			<point x="82" y="776" type="curve" smooth="yes"/>
			<point x="96" y="830" type="line"/>
			<point x="75" y="811" type="line"/>
			<point x="100" y="832"/>
			<point x="124" y="836"/>
			<point x="150" y="836" type="curve" smooth="yes"/>
			<point x="205" y="836"/>
			<point x="237" y="796"/>
			<point x="237" y="747" type="curve" smooth="yes"/>
			<point x="237" y="692"/>
			<point x="197" y="650"/>
			<point x="134" y="650" type="curve" smooth="yes"/>
			<point x="108" y="650" type="line"/>
			<point x="108" y="639" type="line"/>
			<point x="138" y="639" type="line" smooth="yes"/>
			<point x="215" y="639"/>
			<point x="250" y="595"/>
			<point x="250" y="539" type="curve" smooth="yes"/>
			<point x="250" y="483"/>
			<point x="209" y="437"/>
			<point x="144" y="437" type="curve" smooth="yes"/>
			<point x="118" y="437"/>
			<point x="91" y="441"/>
			<point x="67" y="461" type="curve"/>
			<point x="86" y="441" type="line"/>
			<point x="73" y="496" type="line" smooth="yes"/>
			<point x="67" y="514"/>
			<point x="60" y="521"/>
			<point x="48" y="521" type="curve" smooth="yes"/>
			<point x="37" y="521"/>
			<point x="30" y="516"/>
			<point x="27" y="505" type="curve"/>
			<point x="39" y="453"/>
			<point x="86" y="426"/>
		</contour>
	</outline>
</glyph>
<glyph name="paragraph" format="2">
	<unicode hex="00B6"/>
	<advance width="595"/>
	<outline>
		<contour>
			<point x="331" y="170" type="curve"/>
			<point x="331" y="655" type="line"/>
			<point x="411" y="655" type="line"/>
			<point x="411" y="674" type="line"/>
			<point x="350" y="674" type="line" smooth="yes"/>
			<point x="165" y="674"/>
			<point x="52" y="575"/>
			<point x="52" y="424" type="curve" smooth="yes"/>
			<point x="52" y="268"/>
			<point x="164" y="170"/>
		</contour>
		<contour>
			<point x="392" y="-129" type="curve"/>
			<point x="434" y="-129" type="line"/>
			<point x="431" y="-44"/>
			<point x="431" y="84"/>
			<point x="431" y="192" type="curve" smooth="yes"/>
			<point x="431" y="360" type="line" smooth="yes"/>
			<point x="431" y="464"/>
			<point x="431" y="590"/>
			<point x="434" y="674" type="curve"/>
			<point x="395" y="674" type="line"/>
			<point x="395" y="192" type="line" smooth="yes"/>
			<point x="395" y="84"/>
			<point x="395" y="-44"/>
		</contour>
		<contour>
			<point x="406" y="651" type="line"/>
			<point x="420" y="651" type="line"/>
			<point x="535" y="662" type="line"/>
			<point x="535" y="674" type="line"/>
			<point x="406" y="674" type="line"/>
		</contour>
	</outline>
</glyph>
<glyph name="one.sups" format="2">
	<unicode hex="00B9"/>
	<advance width="316"/>
	<outline>
		<contour>
			<point x="51" y="433" type="line"/>
			<point x="277" y="433" type="line"/>
			<point x="277" y="442" type="line"/>
			<point x="172" y="450" type="line"/>
			<point x="158" y="450" type="line"/>
			<point x="51" y="442" type="line"/>
		</contour>
		<contour>
			<point x="148" y="433" type="line"/>
			<point x="184" y="433" type="line"/>
			<point x="184" y="839" type="line"/>
			<point x="178" y="843" type="line"/>
			<point x="56" y="808" type="line"/>
			<point x="56" y="801" type="line"/>
			<point x="148" y="814" type="line"/>
		</contour>
	</outline>
</glyph>
<glyph name="AE" format="2">
	<unicode hex="00C6"/>
	<advance width="865"/>
	<outline>
		<contour>
			<point x="457" y="0" type="curve"/>
			<point x="504" y="0" type="line"/>
			<point x="501" y="85"/>
			<point x="501" y="214"/>
			<point x="501" y="321" type="curve" smooth="yes"/>
			<point x="501" y="360" type="line" smooth="yes"/>
			<point x="501" y="464"/>
			<point x="501" y="590"/>
			<point x="504" y="674" type="curve"/>
			<point x="459" y="674" type="line"/>
			<point x="459" y="321" type="line" smooth="yes"/>
			<point x="459" y="214"/>
			<point x="459" y="85"/>
		</contour>
		<contour>
			<point x="12" y="0" type="line"/>
			<point x="205" y="0" type="line"/>
			<point x="205" y="12" type="line"/>
			<point x="107" y="20" type="line"/>
			<point x="93" y="20" type="line"/>
			<point x="12" y="12" type="line"/>
		</contour>
		<contour>
			<point x="677" y="235" type="line"/>
			<point x="689" y="235" type="line"/>
			<point x="689" y="453" type="line"/>
			<point x="677" y="453" type="line"/>
			<point x="657" y="350" type="line"/>
			<point x="657" y="338" type="line"/>
		</contour>
		<contour>
			<point x="796" y="504" type="line"/>
			<point x="808" y="504" type="line"/>
			<point x="797" y="674" type="line"/>
			<point x="480" y="674" type="line"/>
			<point x="480" y="656" type="line"/>
			<point x="759" y="656" type="line"/>
		</contour>
		<contour>
			<point x="480" y="0" type="line"/>
			<point x="810" y="0" type="line"/>
			<point x="821" y="178" type="line"/>
			<point x="809" y="178" type="line"/>
			<point x="773" y="18" type="line"/>
			<point x="480" y="18" type="line"/>
		</contour>
		<contour>
			<point x="350" y="662" type="line"/>
			<point x="452" y="653" type="line"/>
			<point x="477" y="653" type="line"/>
			<point x="477" y="674" type="line"/>
			<point x="350" y="674" type="line"/>
		</contour>
		<contour>
			<point x="369" y="0" type="line"/>
			<point x="484" y="0" type="line"/>
			<point x="484" y="20" type="line"/>
			<point x="471" y="20" type="line"/>
			<point x="369" y="12" type="line"/>
		</contour>
		<contour>
			<point x="79" y="0" type="line"/>
			<point x="102" y="0" type="line"/>
			<point x="461" y="674" type="line"/>
			<point x="440" y="674" type="line"/>
		</contour>
		<contour>
			<point x="220" y="242" type="line"/>
			<point x="486" y="242" type="line"/>
			<point x="475" y="260" type="line"/>
			<point x="231" y="260" type="line"/>
		</contour>
		<contour>
			<point x="480" y="335" type="line"/>
			<point x="671" y="335" type="line"/>
			<point x="671" y="353" type="line"/>
			<point x="480" y="353" type="line"/>
		</contour>
	</outline>
	<anchor name="aboveUC" x="620" y="694"/>
</glyph>
<glyph name="Idieresis" format="2">
	<unicode hex="00CF"/>
	<advance width="313"/>
	<outline>
		<contour>
			<point x="86" y="754" type="curve" smooth="yes"/>
			<point x="104" y="754"/>
			<point x="120" y="766"/>
			<point x="120" y="788" type="curve" smooth="yes"/>
			<point x="120" y="810"/>
			<point x="104" y="822"/>
			<point x="86" y="822" type="curve" smooth="yes"/>
			<point x="68" y="822"/>
			<point x="52" y="810"/>
			<point x="52" y="788" type="curve" smooth="yes"/>
			<point x="52" y="766"/>
			<point x="68" y="754"/>
		</contour>
		<contour>
			<point x="228" y="754" type="curve" smooth="yes"/>
			<point x="246" y="754"/>
			<point x="262" y="766"/>
			<point x="262" y="788" type="curve" smooth="yes"/>
			<point x="262" y="810"/>
			<point x="246" y="822"/>
			<point x="228" y="822" type="curve" smooth="yes"/>
			<point x="209" y="822"/>
			<point x="193" y="810"/>
			<point x="193" y="788" type="curve" smooth="yes"/>
			<point x="193" y="766"/>
			<point x="209" y="754"/>
		</contour>
		<component base="I"/>
	</outline>
</glyph>
<glyph name="multiply" format="2">
	<unicode hex="00D7"/>
	<advance width="496"/>
	<outline>
		<contour>
			<point x="432" y="126" type="line"/>
			<point x="448" y="142" type="line"/>
			<point x="67" y="543" type="line"/>
			<point x="51" y="527" type="line"/>
		</contour>
		<contour>
			<point x="447" y="527" type="line"/>
			<point x="432" y="542" type="line"/>
			<point x="51" y="141" type="line"/>
			<point x="66" y="126" type="line"/>
		</contour>
	</outline>
</glyph>
<glyph name="Oslash" format="2">
	<unicode hex="00D8"/>
	<advance width="645"/>
	<outline>
		<contour>
			<point x="589" y="679" type="line"/>
			<point x="576" y="688" type="line"/>
			<point x="56" y="-5" type="line"/>
			<point x="70" y="-15" type="line"/>
		</contour>
		<contour>
			<point x="100" y="336" type="curve" smooth="yes"/>
			<point x="100" y="531"/>
			<point x="180" y="671"/>
			<point x="323" y="671" type="curve" smooth="yes"/>
			<point x="465" y="671"/>
			<point x="545" y="531"/>
			<point x="545" y="337" type="curve" smooth="yes"/>
			<point x="545" y="142"/>
			<point x="465" y="3"/>
			<point x="323" y="3" type="curve" smooth="yes"/>
			<point x="180" y="3"/>
			<point x="100" y="142"/>
		</contour>
		<contour>
			<point x="323" y="687" type="curve" smooth="yes"/>
			<point x="174" y="687"/>
			<point x="56" y="554"/>
			<point x="56" y="336" type="curve" smooth="yes"/>
			<point x="56" y="114"/>
			<point x="173" y="-13"/>
			<point x="323" y="-13" type="curve" smooth="yes"/>
			<point x="471" y="-13"/>
			<point x="589" y="119"/>
			<point x="589" y="337" type="curve" smooth="yes"/>
			<point x="589" y="559"/>
			<point x="472" y="687"/>
		</contour>
	</outline>
	<anchor name="aboveUC" x="323" y="694"/>
</glyph>
<glyph name="Thorn" format="2">
	<unicode hex="00DE"/>
	<advance width="528"/>
	<outline>
		<contour>
			<point x="153" y="176" type="line"/>
			<point x="269" y="176" type="line" smooth="yes"/>
			<point x="414" y="176"/>
			<point x="494" y="248"/>
			<point x="494" y="359" type="curve" smooth="yes"/>
			<point x="494" y="470"/>
			<point x="414" y="535"/>
			<point x="269" y="535" type="curve" smooth="yes"/>
			<point x="153" y="535" type="line"/>
			<point x="153" y="517" type="line"/>
			<point x="264" y="517" type="line" smooth="yes"/>
			<point x="387" y="517"/>
			<point x="451" y="465"/>
			<point x="451" y="359" type="curve" smooth="yes"/>
			<point x="451" y="253"/>
			<point x="387" y="194"/>
			<point x="264" y="194" type="curve" smooth="yes"/>
			<point x="153" y="194" type="line"/>
		</contour>
		<contour>
			<point x="133" y="0" type="curve"/>
			<point x="180" y="0" type="line"/>
			<point x="177" y="85"/>
			<point x="177" y="214"/>
			<point x="177" y="321" type="curve" smooth="yes"/>
			<point x="177" y="360" type="line" smooth="yes"/>
			<point x="177" y="464"/>
			<point x="177" y="590"/>
			<point x="180" y="674" type="curve"/>
			<point x="133" y="674" type="line"/>
			<point x="135" y="590"/>
			<point x="135" y="464"/>
			<point x="135" y="360" type="curve" smooth="yes"/>
			<point x="135" y="321" type="line" smooth="yes"/>
			<point x="135" y="214"/>
			<point x="135" y="85"/>
		</contour>
		<contour>
			<point x="147" y="653" type="line"/>
			<point x="166" y="653" type="line"/>
			<point x="267" y="662" type="line"/>
			<point x="267" y="674" type="line"/>
			<point x="45" y="674" type="line"/>
			<point x="45" y="662" type="line"/>
		</contour>
		<contour>
			<point x="45" y="0" type="line"/>
			<point x="267" y="0" type="line"/>
			<point x="267" y="12" type="line"/>
			<point x="166" y="20" type="line"/>
			<point x="147" y="20" type="line"/>
			<point x="45" y="12" type="line"/>
		</contour>
	</outline>
</glyph>
<glyph name="germandbls" format="2">
	<unicode hex="00DF"/>
	<advance width="559"/>
	<outline>
		<contour>
			<point x="37" y="0" type="line"/>
			<point x="135" y="0" type="line"/>
			<point x="135" y="20" type="line"/>
			<point x="129" y="20" type="line"/>
			<point x="37" y="12" type="line"/>
		</contour>
		<contour>
			<point x="113" y="0" type="curve"/>
			<point x="158" y="0" type="line"/>
			<point x="157" y="70"/>
			<point x="156" y="139"/>
			<point x="156" y="209" type="curve" smooth="yes"/>
			<point x="156" y="456" type="line" smooth="yes"/>
			<point x="156" y="561"/>
			<point x="174" y="651"/>
			<point x="223" y="701" type="curve" smooth="yes"/>
			<point x="249" y="727"/>
			<point x="284" y="742"/>
			<point x="329" y="742" type="curve" smooth="yes"/>
			<point x="402" y="742"/>
			<point x="438" y="692"/>
			<point x="438" y="633" type="curve" smooth="yes"/>
			<point x="438" y="581"/>
			<point x="409" y="546"/>
			<point x="377" y="514" type="curve" smooth="yes"/>
			<point x="336" y="473"/>
			<point x="289" y="431"/>
			<point x="289" y="366" type="curve" smooth="yes"/>
			<point x="289" y="306"/>
			<point x="332" y="272"/>
			<point x="378" y="242" type="curve" smooth="yes"/>
			<point x="427" y="210"/>
			<point x="480" y="177"/>
			<point x="480" y="114" type="curve" smooth="yes"/>
			<point x="480" y="46"/>
			<point x="433" y="3"/>
			<point x="361" y="3" type="curve" smooth="yes"/>
			<point x="328" y="3"/>
			<point x="289" y="13"/>
			<point x="254" y="35" type="curve"/>
			<point x="277" y="16" type="line"/>
			<point x="258" y="142" type="line"/>
			<point x="247" y="142" type="line"/>
			<point x="240" y="20" type="line"/>
			<point x="281" y="-2"/>
			<point x="321" y="-12"/>
			<point x="361" y="-12" type="curve" smooth="yes"/>
			<point x="453" y="-12"/>
			<point x="515" y="39"/>
			<point x="515" y="123" type="curve" smooth="yes"/>
			<point x="515" y="201"/>
			<point x="453" y="240"/>
			<point x="400" y="276" type="curve" smooth="yes"/>
			<point x="358" y="303"/>
			<point x="322" y="333"/>
			<point x="322" y="379" type="curve" smooth="yes"/>
			<point x="322" y="430"/>
			<point x="356" y="469"/>
			<point x="392" y="503" type="curve" smooth="yes"/>
			<point x="432" y="539"/>
			<point x="474" y="576"/>
			<point x="474" y="635" type="curve" smooth="yes"/>
			<point x="474" y="707"/>
			<point x="422" y="758"/>
			<point x="330" y="758" type="curve" smooth="yes"/>
			<point x="280" y="758"/>
			<point x="239" y="743"/>
			<point x="207" y="715" type="curve" smooth="yes"/>
			<point x="145" y="662"/>
			<point x="116" y="563"/>
			<point x="116" y="456" type="curve" smooth="yes"/>
			<point x="116" y="209" type="line" smooth="yes"/>
			<point x="116" y="139"/>
			<point x="115" y="70"/>
		</contour>
	</outline>
</glyph>
<glyph name="ae" format="2">
	<unicode hex="00E6"/>
	<advance width="688"/>
	<outline>
		<contour>
			<point x="161" y="-12" type="curve" smooth="yes"/>
			<point x="222" y="-12"/>
			<point x="281" y="24"/>
			<point x="337" y="99" type="curve"/>
			<point x="353" y="99" type="line"/>
			<point x="336" y="115" type="line"/>
			<point x="270" y="37"/>
			<point x="222" y="16"/>
			<point x="174" y="16" type="curve" smooth="yes"/>
			<point x="122" y="16"/>
			<point x="88" y="46"/>
			<point x="88" y="105" type="curve" smooth="yes"/>
			<point x="88" y="151"/>
			<point x="113" y="192"/>
			<point x="191" y="221" type="curve" smooth="yes"/>
			<point x="228" y="235"/>
			<point x="278" y="249"/>
			<point x="328" y="262" type="curve"/>
			<point x="328" y="274" type="line"/>
			<point x="275" y="263"/>
			<point x="224" y="250"/>
			<point x="184" y="236" type="curve" smooth="yes"/>
			<point x="83" y="202"/>
			<point x="48" y="159"/>
			<point x="48" y="97" type="curve" smooth="yes"/>
			<point x="48" y="26"/>
			<point x="94" y="-12"/>
		</contour>
		<contour>
			<point x="497" y="-12" type="curve" smooth="yes"/>
			<point x="548" y="-12"/>
			<point x="605" y="13"/>
			<point x="641" y="73" type="curve"/>
			<point x="631" y="81" type="line"/>
			<point x="596" y="39"/>
			<point x="552" y="18"/>
			<point x="504" y="18" type="curve" smooth="yes"/>
			<point x="409" y="18"/>
			<point x="350" y="99"/>
			<point x="350" y="235" type="curve" smooth="yes"/>
			<point x="350" y="360"/>
			<point x="414" y="445"/>
			<point x="491" y="445" type="curve" smooth="yes"/>
			<point x="566" y="445"/>
			<point x="605" y="375"/>
			<point x="605" y="296" type="curve" smooth="yes"/>
			<point x="605" y="263"/>
			<point x="597" y="257"/>
			<point x="573" y="257" type="curve" smooth="yes"/>
			<point x="329" y="257" type="line"/>
			<point x="329" y="240" type="line"/>
			<point x="637" y="240" type="line"/>
			<point x="641" y="254"/>
			<point x="643" y="270"/>
			<point x="643" y="288" type="curve" smooth="yes"/>
			<point x="643" y="386"/>
			<point x="587" y="461"/>
			<point x="494" y="461" type="curve" smooth="yes"/>
			<point x="416" y="461"/>
			<point x="345" y="400"/>
			<point x="320" y="303" type="curve"/>
			<point x="347" y="315" type="line"/>
			<point x="347" y="416"/>
			<point x="308" y="461"/>
			<point x="219" y="461" type="curve" smooth="yes"/>
			<point x="148" y="461"/>
			<point x="81" y="425"/>
			<point x="64" y="352" type="curve"/>
			<point x="65" y="337"/>
			<point x="73" y="328"/>
			<point x="87" y="328" type="curve" smooth="yes"/>
			<point x="103" y="328"/>
			<point x="112" y="336"/>
			<point x="116" y="353" type="curve" smooth="yes"/>
			<point x="134" y="431" type="line"/>
			<point x="116" y="415" type="line"/>
			<point x="147" y="434"/>
			<point x="174" y="444"/>
			<point x="208" y="444" type="curve" smooth="yes"/>
			<point x="277" y="444"/>
			<point x="310" y="408"/>
			<point x="310" y="305" type="curve" smooth="yes"/>
			<point x="310" y="221" type="line" smooth="yes"/>
			<point x="310" y="70"/>
			<point x="390" y="-12"/>
		</contour>
	</outline>
	<anchor name="aboveLC" x="332" y="469"/>
	<anchor name="belowLC" x="331" y="-20"/>
</glyph>
<glyph name="idieresis" format="2">
	<unicode hex="00EF"/>
	<advance width="267"/>
	<outline>
		<contour>
			<point x="61" y="602" type="curve" smooth="yes"/>
			<point x="80" y="602"/>
			<point x="95" y="615"/>
			<point x="95" y="636" type="curve" smooth="yes"/>
			<point x="95" y="658"/>
			<point x="80" y="670"/>
			<point x="61" y="670" type="curve" smooth="yes"/>
			<point x="43" y="670"/>
			<point x="27" y="658"/>
			<point x="27" y="636" type="curve" smooth="yes"/>
			<point x="27" y="615"/>
			<point x="43" y="602"/>
		</contour>
		<contour>
			<point x="211" y="602" type="curve" smooth="yes"/>
			<point x="230" y="602"/>
			<point x="245" y="615"/>
			<point x="245" y="636" type="curve" smooth="yes"/>
			<point x="245" y="658"/>
			<point x="230" y="670"/>
			<point x="211" y="670" type="curve" smooth="yes"/>
			<point x="193" y="670"/>
			<point x="177" y="658"/>
			<point x="177" y="636" type="curve" smooth="yes"/>
			<point x="177" y="615"/>
			<point x="193" y="602"/>
		</contour>
		<component base="dotlessi"/>
	</outline>
</glyph>
<glyph name="eth" format="2">
	<unicode hex="00F0"/>
	<advance width="487"/>
	<outline>
		<contour>
			<point x="244" y="-12" type="curve" smooth="yes"/>
			<point x="353" y="-12"/>
			<point x="441" y="77"/>
			<point x="441" y="267" type="curve" smooth="yes"/>
			<point x="441" y="486"/>
			<point x="349" y="653"/>
			<point x="146" y="758" type="curve"/>
			<point x="138" y="746" type="line"/>
			<point x="325" y="638"/>
			<point x="382" y="504"/>
			<point x="403" y="328" type="curve"/>
			<point x="412" y="300" type="line"/>
			<point x="396" y="407"/>
			<point x="328" y="461"/>
			<point x="244" y="461" type="curve" smooth="yes"/>
			<point x="145" y="461"/>
			<point x="47" y="382"/>
			<point x="47" y="221" type="curve" smooth="yes"/>
			<point x="47" y="61"/>
			<point x="145" y="-12"/>
		</contour>
		<contour>
			<point x="244" y="4" type="curve" smooth="yes"/>
			<point x="158" y="4"/>
			<point x="89" y="77"/>
			<point x="89" y="221" type="curve" smooth="yes"/>
			<point x="89" y="367"/>
			<point x="158" y="446"/>
			<point x="244" y="446" type="curve" smooth="yes"/>
			<point x="330" y="446"/>
			<point x="399" y="373"/>
			<point x="399" y="228" type="curve" smooth="yes"/>
			<point x="399" y="83"/>
			<point x="330" y="4"/>
		</contour>
		<contour>
			<point x="144" y="550" type="line"/>
			<point x="452" y="718" type="line"/>
			<point x="446" y="732" type="line"/>
			<point x="137" y="564" type="line"/>
		</contour>
	</outline>
</glyph>
<glyph name="oslash" format="2">
	<unicode hex="00F8"/>
	<advance width="490"/>
	<outline>
		<contour>
			<point x="441" y="458" type="line"/>
			<point x="428" y="467" type="line"/>
			<point x="49" y="-9" type="line"/>
			<point x="62" y="-17" type="line"/>
		</contour>
		<contour>
			<point x="245" y="-12" type="curve" smooth="yes"/>
			<point x="344" y="-12"/>
			<point x="444" y="68"/>
			<point x="444" y="228" type="curve" smooth="yes"/>
			<point x="444" y="388"/>
			<point x="344" y="461"/>
			<point x="245" y="461" type="curve" smooth="yes"/>
			<point x="146" y="461"/>
			<point x="47" y="382"/>
			<point x="47" y="221" type="curve" smooth="yes"/>
			<point x="47" y="61"/>
			<point x="146" y="-12"/>
		</contour>
		<contour>
			<point x="245" y="4" type="curve" smooth="yes"/>
			<point x="159" y="4"/>
			<point x="89" y="77"/>
			<point x="89" y="221" type="curve" smooth="yes"/>
			<point x="89" y="367"/>
			<point x="159" y="446"/>
			<point x="245" y="446" type="curve" smooth="yes"/>
			<point x="331" y="446"/>
			<point x="402" y="373"/>
			<point x="402" y="228" type="curve" smooth="yes"/>
			<point x="402" y="83"/>
			<point x="331" y="4"/>
		</contour>
	</outline>
	<anchor name="aboveLC" x="244" y="469"/>
</glyph>
<glyph name="thorn" format="2">
	<unicode hex="00FE"/>
	<advance width="522"/>
	<outline>
		<contour>
			<point x="107" y="-263" type="curve"/>
			<point x="151" y="-263" type="line"/>
			<point x="149" y="-208"/>
			<point x="148" y="-118"/>
			<point x="148" y="-53" type="curve" smooth="yes"/>
			<point x="148" y="73" type="line"/>
			<point x="148" y="76" type="line"/>
			<point x="148" y="366" type="line"/>
			<point x="148" y="369" type="line"/>
			<point x="148" y="571" type="line"/>
			<point x="151" y="741" type="line"/>
			<point x="143" y="747" type="line"/>
			<point x="29" y="729" type="line"/>
			<point x="29" y="717" type="line"/>
			<point x="110" y="711" type="line"/>
			<point x="110" y="-53" type="line" smooth="yes"/>
			<point x="110" y="-116"/>
			<point x="109" y="-217"/>
		</contour>
		<contour>
			<point x="292" y="-12" type="curve" smooth="yes"/>
			<point x="399" y="-12"/>
			<point x="475" y="82"/>
			<point x="475" y="233" type="curve" smooth="yes"/>
			<point x="475" y="373"/>
			<point x="401" y="461"/>
			<point x="297" y="461" type="curve" smooth="yes"/>
			<point x="241" y="461"/>
			<point x="184" y="430"/>
			<point x="144" y="368" type="curve"/>
			<point x="134" y="368" type="line"/>
			<point x="141" y="348" type="line"/>
			<point x="185" y="409"/>
			<point x="231" y="439"/>
			<point x="287" y="439" type="curve" smooth="yes"/>
			<point x="371" y="439"/>
			<point x="434" y="370"/>
			<point x="434" y="232" type="curve" smooth="yes"/>
			<point x="434" y="79"/>
			<point x="367" y="10"/>
			<point x="287" y="10" type="curve" smooth="yes"/>
			<point x="231" y="10"/>
			<point x="191" y="33"/>
			<point x="140" y="93" type="curve"/>
			<point x="132" y="75" type="line"/>
			<point x="142" y="75" type="line"/>
			<point x="185" y="11"/>
			<point x="241" y="-12"/>
		</contour>
		<contour>
			<point x="31" y="-263" type="line"/>
			<point x="235" y="-263" type="line"/>
			<point x="235" y="-250" type="line"/>
			<point x="132" y="-242" type="line"/>
			<point x="124" y="-242" type="line"/>
			<point x="31" y="-250" type="line"/>
		</contour>
	</outline>
	<anchor name="aboveLC" x="128" y="750"/>
	<anchor name="belowLC" x="280" y="-20"/>
</glyph>
<glyph name="aogonek" format="2">
	<unicode hex="0105"/>
	<advance width="457"/>
	<outline>
		<contour>
			<point x="161" y="-12" type="curve" smooth="yes"/>
			<point x="215" y="-12"/>
			<point x="260" y="13"/>
			<point x="312" y="76" type="curve"/>
			<point x="328" y="76" type="line"/>
			<point x="325" y="105" type="line"/>
			<point x="262" y="36"/>
			<point x="222" y="16"/>
			<point x="174" y="16" type="curve" smooth="yes"/>
			<point x="122" y="16"/>
			<point x="88" y="46"/>
			<point x="88" y="105" type="curve" smooth="yes"/>
			<point x="88" y="151"/>
			<point x="113" y="192"/>
			<point x="191" y="221" type="curve" smooth="yes"/>
			<point x="228" y="235"/>
			<point x="278" y="249"/>
			<point x="328" y="262" type="curve"/>
			<point x="328" y="274" type="line"/>
			<point x="275" y="263"/>
			<point x="224" y="250"/>
			<point x="184" y="236" type="curve" smooth="yes"/>
			<point x="83" y="202"/>
			<point x="48" y="159"/>
			<point x="48" y="97" type="curve" smooth="yes"/>
			<point x="48" y="26"/>
			<point x="94" y="-12"/>
		</contour>
		<contour>
			<point x="378" y="-222" type="curve" smooth="yes"/>
			<point x="413" y="-222"/>
			<point x="446" y="-205"/>
			<point x="465" y="-178" type="curve"/>
			<point x="458" y="-170" type="line"/>
			<point x="438" y="-189"/>
			<point x="415" y="-196"/>
			<point x="391" y="-196" type="curve" smooth="yes"/>
			<point x="352" y="-196"/>
			<point x="323" y="-172"/>
			<point x="323" y="-128" type="curve" smooth="yes"/>
			<point x="323" y="-75"/>
			<point x="374" y="-30"/>
			<point x="415" y="1" type="curve" smooth="yes"/>
			<point x="425" y="8"/>
			<point x="433" y="17"/>
			<point x="438" y="27" type="curve"/>
			<point x="431" y="34" type="line"/>
			<point x="415" y="17"/>
			<point x="401" y="11"/>
			<point x="386" y="11" type="curve" smooth="yes"/>
			<point x="362" y="11"/>
			<point x="348" y="25"/>
			<point x="348" y="65" type="curve" smooth="yes"/>
			<point x="348" y="315" type="line" smooth="yes"/>
			<point x="348" y="416"/>
			<point x="308" y="461"/>
			<point x="219" y="461" type="curve" smooth="yes"/>
			<point x="148" y="461"/>
			<point x="81" y="425"/>
			<point x="64" y="352" type="curve"/>
			<point x="65" y="337"/>
			<point x="73" y="328"/>
			<point x="87" y="328" type="curve" smooth="yes"/>
			<point x="103" y="328"/>
			<point x="112" y="336"/>
			<point x="116" y="353" type="curve" smooth="yes"/>
			<point x="136" y="433" type="line"/>
			<point x="107" y="408" type="line"/>
			<point x="157" y="437"/>
			<point x="180" y="444"/>
			<point x="208" y="444" type="curve" smooth="yes"/>
			<point x="277" y="444"/>
			<point x="310" y="408"/>
			<point x="310" y="305" type="curve" smooth="yes"/>
			<point x="310" y="64" type="line"/>
			<point x="310" y="62" type="line" smooth="yes"/>
			<point x="310" y="14"/>
			<point x="333" y="-11"/>
			<point x="376" y="-11" type="curve" smooth="yes"/>
			<point x="379" y="-11"/>
			<point x="384" y="-10"/>
			<point x="396" y="-7" type="curve"/>
			<point x="396" y="-1" type="line"/>
			<point x="334" y="-42"/>
			<point x="291" y="-86"/>
			<point x="291" y="-139" type="curve" smooth="yes"/>
			<point x="291" y="-189"/>
			<point x="328" y="-222"/>
		</contour>
	</outline>
	<anchor name="aboveLC" x="212" y="469"/>
	<anchor name="belowLC" x="221" y="-20"/>
</glyph>
<glyph name="dcroat" format="2">
	<unicode hex="0111"/>
	<advance width="524"/>
	<outline>
		<contour>
			<point x="181" y="576" type="line"/>
			<point x="488" y="576" type="line"/>
			<point x="488" y="592" type="line"/>
			<point x="181" y="592" type="line"/>
		</contour>
		<contour>
			<point x="88" y="215" type="curve" smooth="yes"/>
			<point x="88" y="365"/>
			<point x="164" y="433"/>
			<point x="244" y="433" type="curve" smooth="yes"/>
			<point x="300" y="433"/>
			<point x="336" y="411"/>
			<point x="382" y="351" type="curve"/>
			<point x="390" y="369" type="line"/>
			<point x="380" y="369" type="line"/>
			<point x="342" y="432"/>
			<point x="290" y="456"/>
			<point x="239" y="456" type="curve" smooth="yes"/>
			<point x="140" y="456"/>
			<point x="47" y="373"/>
			<point x="47" y="212" type="curve" smooth="yes"/>
			<point x="47" y="65"/>
			<point x="128" y="-12"/>
			<point x="225" y="-12" type="curve" smooth="yes"/>
			<point x="285" y="-12"/>
			<point x="338" y="20"/>
			<point x="378" y="82" type="curve"/>
			<point x="388" y="82" type="line"/>
			<point x="381" y="102" type="line"/>
			<point x="337" y="41"/>
			<point x="291" y="10"/>
			<point x="235" y="10" type="curve" smooth="yes"/>
			<point x="151" y="10"/>
			<point x="88" y="80"/>
		</contour>
		<contour>
			<point x="487" y="0" type="line"/>
			<point x="487" y="12" type="line"/>
			<point x="412" y="20" type="line"/>
			<point x="412" y="563" type="line"/>
			<point x="415" y="741" type="line"/>
			<point x="408" y="747" type="line"/>
			<point x="294" y="729" type="line"/>
			<point x="294" y="717" type="line"/>
			<point x="374" y="711" type="line"/>
			<point x="374" y="370" type="line"/>
			<point x="374" y="368" type="line"/>
			<point x="374" y="84" type="line"/>
			<point x="374" y="80" type="line"/>
			<point x="374" y="-5" type="line"/>
		</contour>
	</outline>
</glyph>
<glyph name="eogonek" format="2">
	<unicode hex="0119"/>
	<advance width="446"/>
	<outline>
		<contour>
			<point x="297" y="-222" type="curve" smooth="yes"/>
			<point x="332" y="-222"/>
			<point x="365" y="-205"/>
			<point x="383" y="-178" type="curve"/>
			<point x="376" y="-170" type="line"/>
			<point x="356" y="-189"/>
			<point x="334" y="-196"/>
			<point x="310" y="-196" type="curve" smooth="yes"/>
			<point x="271" y="-196"/>
			<point x="241" y="-169"/>
			<point x="241" y="-125" type="curve" smooth="yes"/>
			<point x="241" y="-70"/>
			<point x="296" y="-17"/>
			<point x="341" y="12" type="curve" smooth="yes"/>
			<point x="365" y="28"/>
			<point x="386" y="48"/>
			<point x="403" y="77" type="curve"/>
			<point x="393" y="85" type="line"/>
			<point x="358" y="43"/>
			<point x="312" y="18"/>
			<point x="256" y="18" type="curve" smooth="yes"/>
			<point x="154" y="18"/>
			<point x="87" y="99"/>
			<point x="87" y="235" type="curve" smooth="yes"/>
			<point x="87" y="360"/>
			<point x="155" y="445"/>
			<point x="240" y="445" type="curve" smooth="yes"/>
			<point x="323" y="445"/>
			<point x="363" y="375"/>
			<point x="363" y="296" type="curve" smooth="yes"/>
			<point x="363" y="263"/>
			<point x="355" y="257"/>
			<point x="331" y="257" type="curve" smooth="yes"/>
			<point x="65" y="257" type="line"/>
			<point x="65" y="240" type="line"/>
			<point x="395" y="240" type="line"/>
			<point x="399" y="254"/>
			<point x="400" y="270"/>
			<point x="400" y="288" type="curve" smooth="yes"/>
			<point x="400" y="386"/>
			<point x="341" y="461"/>
			<point x="240" y="461" type="curve" smooth="yes"/>
			<point x="135" y="461"/>
			<point x="47" y="364"/>
			<point x="47" y="221" type="curve" smooth="yes"/>
			<point x="47" y="70"/>
			<point x="131" y="-12"/>
			<point x="250" y="-12" type="curve" smooth="yes"/>
			<point x="271" y="-12"/>
			<point x="293" y="-8"/>
			<point x="314" y="1" type="curve"/>
			<point x="325" y="13" type="line"/>
			<point x="278" y="-15"/>
			<point x="210" y="-70"/>
			<point x="210" y="-136" type="curve" smooth="yes"/>
			<point x="210" y="-186"/>
			<point x="247" y="-222"/>
		</contour>
	</outline>
	<anchor name="aboveLC" x="232" y="469"/>
	<anchor name="belowLC" x="241" y="-20"/>
</glyph>
<glyph name="hbar" format="2">
	<unicode hex="0127"/>
	<advance width="550"/>
	<outline>
		<contour>
			<point x="114" y="0" type="curve"/>
			<point x="160" y="0" type="line"/>
			<point x="157" y="45"/>
			<point x="156" y="147"/>
			<point x="156" y="209" type="curve" smooth="yes"/>
			<point x="156" y="344" type="line"/>
			<point x="156" y="349" type="line"/>
			<point x="156" y="563" type="line"/>
			<point x="159" y="741" type="line"/>
			<point x="152" y="747" type="line"/>
			<point x="37" y="729" type="line"/>
			<point x="37" y="717" type="line"/>
			<point x="118" y="711" type="line"/>
			<point x="118" y="209" type="line" smooth="yes"/>
			<point x="118" y="147"/>
			<point x="117" y="45"/>
		</contour>
		<contour>
			<point x="39" y="0" type="line"/>
			<point x="231" y="0" type="line"/>
			<point x="231" y="12" type="line"/>
			<point x="140" y="20" type="line"/>
			<point x="132" y="20" type="line"/>
			<point x="39" y="12" type="line"/>
		</contour>
		<contour>
			<point x="330" y="0" type="line"/>
			<point x="520" y="0" type="line"/>
			<point x="520" y="12" type="line"/>
			<point x="431" y="20" type="line"/>
			<point x="423" y="20" type="line"/>
			<point x="330" y="12" type="line"/>
		</contour>
		<contour>
			<point x="38" y="576" type="line"/>
			<point x="345" y="576" type="line"/>
			<point x="345" y="592" type="line"/>
			<point x="38" y="592" type="line"/>
		</contour>
		<contour>
			<point x="405" y="0" type="curve"/>
			<point x="451" y="0" type="line"/>
			<point x="448" y="45"/>
			<point x="447" y="147"/>
			<point x="447" y="209" type="curve" smooth="yes"/>
			<point x="447" y="297" type="line" smooth="yes"/>
			<point x="447" y="417"/>
			<point x="407" y="456"/>
			<point x="333" y="456" type="curve" smooth="yes"/>
			<point x="270" y="456"/>
			<point x="205" y="418"/>
			<point x="147" y="344" type="curve"/>
			<point x="142" y="344" type="line"/>
			<point x="149" y="331" type="line"/>
			<point x="216" y="407"/>
			<point x="275" y="428"/>
			<point x="317" y="428" type="curve" smooth="yes"/>
			<point x="379" y="428"/>
			<point x="409" y="395"/>
			<point x="409" y="297" type="curve" smooth="yes"/>
			<point x="409" y="209" type="line" smooth="yes"/>
			<point x="409" y="147"/>
			<point x="408" y="45"/>
		</contour>
	</outline>
</glyph>
<glyph name="dotlessi" format="2">
	<unicode hex="0131"/>
	<advance width="267"/>
	<outline>
		<contour>
			<point x="39" y="0" type="line"/>
			<point x="231" y="0" type="line"/>
			<point x="231" y="12" type="line"/>
			<point x="140" y="20" type="line"/>
			<point x="132" y="20" type="line"/>
			<point x="39" y="12" type="line"/>
		</contour>
		<contour>
			<point x="114" y="0" type="curve"/>
			<point x="160" y="0" type="line"/>
			<point x="157" y="45"/>
			<point x="156" y="147"/>
			<point x="156" y="209" type="curve" smooth="yes"/>
			<point x="156" y="336" type="line"/>
			<point x="159" y="450" type="line"/>
			<point x="152" y="456" type="line"/>
			<point x="35" y="435" type="line"/>
			<point x="35" y="424" type="line"/>
			<point x="115" y="417" type="line"/>
			<point x="117" y="363"/>
			<point x="118" y="314"/>
			<point x="118" y="255" type="curve" smooth="yes"/>
			<point x="118" y="209" type="line" smooth="yes"/>
			<point x="118" y="147"/>
			<point x="117" y="45"/>
		</contour>
	</outline>
	<anchor name="aboveLC" x="136" y="469"/>
	<anchor name="belowLC" x="137" y="-20"/>
	<anchor name="ogonek" x="155" y="0"/>
</glyph>
<glyph name="kgreenlandic" format="2">
	<unicode hex="0138"/>
	<advance width="494"/>
	<outline>
		<contour>
			<point x="39" y="0" type="line"/>
			<point x="231" y="0" type="line"/>
			<point x="231" y="12" type="line"/>
			<point x="140" y="20" type="line"/>
			<point x="132" y="20" type="line"/>
			<point x="39" y="12" type="line"/>
		</contour>
		<contour>
			<point x="114" y="0" type="curve"/>
			<point x="160" y="0" type="line"/>
			<point x="157" y="45"/>
			<point x="156" y="147"/>
			<point x="156" y="209" type="curve" smooth="yes"/>
			<point x="156" y="336" type="line"/>
			<point x="159" y="450" type="line"/>
			<point x="152" y="456" type="line"/>
			<point x="35" y="435" type="line"/>
			<point x="35" y="424" type="line"/>
			<point x="115" y="417" type="line"/>
			<point x="117" y="363"/>
			<point x="118" y="314"/>
			<point x="118" y="255" type="curve" smooth="yes"/>
			<point x="118" y="209" type="line" smooth="yes"/>
			<point x="118" y="147"/>
			<point x="117" y="45"/>
		</contour>
		<contour>
			<point x="138" y="150" type="line"/>
			<point x="409" y="449" type="line"/>
			<point x="384" y="449" type="line"/>
			<point x="143" y="179" type="line"/>
			<point x="138" y="179" type="line"/>
		</contour>
		<contour>
			<point x="385" y="0" type="line"/>
			<point x="487" y="0" type="line"/>
			<point x="487" y="12" type="line"/>
			<point x="400" y="20" type="line"/>
			<point x="426" y="9" type="line"/>
			<point x="255" y="291" type="line"/>
			<point x="228" y="265" type="line"/>
		</contour>
		<contour>
			<point x="373" y="429" type="line"/>
			<point x="382" y="429" type="line"/>
			<point x="471" y="437" type="line"/>
			<point x="471" y="449" type="line"/>
			<point x="272" y="449" type="line"/>
			<point x="272" y="437" type="line"/>
		</contour>
	</outline>
</glyph>
<glyph name="Lslash" format="2">
	<unicode hex="0141"/>
	<advance width="520"/>
	<outline>
		<contour>
			<point x="354" y="427" type="line"/>
			<point x="157" y="314" type="line"/>
			<point x="157" y="297" type="line"/>
			<point x="354" y="409" type="line"/>
		</contour>
		<contour>
			<point x="157" y="316" type="line"/>
			<point x="50" y="257" type="line"/>
			<point x="50" y="239" type="line"/>
			<point x="157" y="298" type="line"/>
		</contour>
		<component base="L"/>
	</outline>
</glyph>
<glyph name="lslash" format="2">
	<unicode hex="0142"/>
	<advance width="267"/>
	<outline>
		<contour>
			<point x="137" y="389" type="line"/>
			<point x="37" y="333" type="line"/>
			<point x="37" y="316" type="line"/>
			<point x="137" y="372" type="line"/>
		</contour>
		<contour>
			<point x="238" y="441" type="line"/>
			<point x="137" y="385" type="line"/>
			<point x="137" y="368" type="line"/>
			<point x="238" y="424" type="line"/>
		</contour>
		<component base="l"/>
	</outline>
</glyph>
<glyph name="Eng" format="2">
	<unicode hex="014A"/>
	<advance width="689"/>
	<outline>
		<contour>
			<point x="45" y="0" type="line"/>
			<point x="255" y="0" type="line"/>
			<point x="255" y="12" type="line"/>
			<point x="150" y="20" type="line"/>
			<point x="143" y="20" type="line"/>
			<point x="45" y="12" type="line"/>
		</contour>
		<contour>
			<point x="45" y="661" type="line"/>
			<point x="125" y="654" type="line"/>
			<point x="544" y="-7" type="line"/>
			<point x="551" y="-7" type="line"/>
			<point x="542" y="73" type="line"/>
			<point x="163" y="673" type="line"/>
			<point x="45" y="673" type="line"/>
		</contour>
		<contour>
			<point x="136" y="0" type="line"/>
			<point x="157" y="0" type="line"/>
			<point x="157" y="662" type="line"/>
			<point x="136" y="662" type="line"/>
		</contour>
		<contour>
			<point x="441" y="661" type="line"/>
			<point x="546" y="653" type="line"/>
			<point x="554" y="653" type="line"/>
			<point x="643" y="661" type="line"/>
			<point x="643" y="673" type="line"/>
			<point x="441" y="673" type="line"/>
		</contour>
		<contour>
			<point x="410" y="-152" type="curve" smooth="yes"/>
			<point x="473" y="-152"/>
			<point x="512" y="-124"/>
			<point x="535" y="-80" type="curve" smooth="yes"/>
			<point x="554" y="-43"/>
			<point x="561" y="4"/>
			<point x="561" y="52" type="curve" smooth="yes"/>
			<point x="561" y="673" type="line"/>
			<point x="540" y="673" type="line"/>
			<point x="540" y="54" type="line"/>
			<point x="540" y="-24"/>
			<point x="523" y="-114"/>
			<point x="445" y="-133" type="curve"/>
			<point x="453" y="-137" type="line"/>
			<point x="460" y="-136" type="line"/>
			<point x="434" y="-115" type="line" smooth="yes"/>
			<point x="416" y="-101"/>
			<point x="399" y="-94"/>
			<point x="382" y="-94" type="curve" smooth="yes"/>
			<point x="359" y="-94"/>
			<point x="346" y="-105"/>
			<point x="345" y="-121" type="curve"/>
			<point x="353" y="-143"/>
			<point x="381" y="-152"/>
		</contour>
	</outline>
</glyph>
<glyph name="eng" format="2">
	<unicode hex="014B"/>
	<advance width="532"/>
	<outline>
		<contour>
			<point x="39" y="0" type="line"/>
			<point x="231" y="0" type="line"/>
			<point x="231" y="12" type="line"/>
			<point x="140" y="20" type="line"/>
			<point x="132" y="20" type="line"/>
			<point x="39" y="12" type="line"/>
		</contour>
		<contour>
			<point x="114" y="0" type="curve"/>
			<point x="160" y="0" type="line"/>
			<point x="157" y="45"/>
			<point x="156" y="147"/>
			<point x="156" y="209" type="curve" smooth="yes"/>
			<point x="156" y="351" type="line"/>
			<point x="156" y="353" type="line"/>
			<point x="156" y="450" type="line"/>
			<point x="150" y="456" type="line"/>
			<point x="35" y="435" type="line"/>
			<point x="35" y="424" type="line"/>
			<point x="115" y="417" type="line"/>
			<point x="117" y="363"/>
			<point x="118" y="314"/>
			<point x="118" y="255" type="curve" smooth="yes"/>
			<point x="118" y="209" type="line" smooth="yes"/>
			<point x="118" y="147"/>
			<point x="117" y="45"/>
		</contour>
		<contour>
			<point x="306" y="-263" type="curve" smooth="yes"/>
			<point x="342" y="-263"/>
			<point x="369" y="-251"/>
			<point x="394" y="-224" type="curve" smooth="yes"/>
			<point x="442" y="-175"/>
			<point x="447" y="-109"/>
			<point x="447" y="49" type="curve" smooth="yes"/>
			<point x="447" y="303" type="line" smooth="yes"/>
			<point x="447" y="423"/>
			<point x="407" y="461"/>
			<point x="333" y="461" type="curve" smooth="yes"/>
			<point x="270" y="461"/>
			<point x="205" y="423"/>
			<point x="147" y="350" type="curve"/>
			<point x="142" y="350" type="line"/>
			<point x="149" y="337" type="line"/>
			<point x="216" y="413"/>
			<point x="275" y="434"/>
			<point x="317" y="434" type="curve" smooth="yes"/>
			<point x="379" y="434"/>
			<point x="409" y="401"/>
			<point x="409" y="303" type="curve" smooth="yes"/>
			<point x="409" y="27" type="line" smooth="yes"/>
			<point x="409" y="-86"/>
			<point x="407" y="-172"/>
			<point x="380" y="-213" type="curve" smooth="yes"/>
			<point x="366" y="-234"/>
			<point x="353" y="-244"/>
			<point x="330" y="-249" type="curve"/>
			<point x="334" y="-252" type="line"/>
			<point x="352" y="-246" type="line"/>
			<point x="330" y="-228" type="line" smooth="yes"/>
			<point x="312" y="-214"/>
			<point x="295" y="-207"/>
			<point x="278" y="-207" type="curve" smooth="yes"/>
			<point x="257" y="-207"/>
			<point x="244" y="-216"/>
			<point x="243" y="-232" type="curve"/>
			<point x="251" y="-253"/>
			<point x="277" y="-263"/>
		</contour>
	</outline>
</glyph>
<glyph name="OE" format="2">
	<unicode hex="0152"/>
	<advance width="849"/>
	<outline>
		<contour>
			<point x="101" y="336" type="curve" smooth="yes"/>
			<point x="101" y="543"/>
			<point x="201" y="671"/>
			<point x="349" y="671" type="curve" smooth="yes"/>
			<point x="389" y="671"/>
			<point x="422" y="667"/>
			<point x="456" y="652" type="curve"/>
			<point x="456" y="670" type="line"/>
			<point x="422" y="683"/>
			<point x="385" y="687"/>
			<point x="348" y="687" type="curve" smooth="yes"/>
			<point x="175" y="687"/>
			<point x="56" y="544"/>
			<point x="56" y="337" type="curve" smooth="yes"/>
			<point x="56" y="130"/>
			<point x="169" y="-14"/>
			<point x="344" y="-14" type="curve" smooth="yes"/>
			<point x="383" y="-14"/>
			<point x="420" y="-9"/>
			<point x="457" y="4" type="curve"/>
			<point x="457" y="23" type="line"/>
			<point x="419" y="7"/>
			<point x="381" y="2"/>
			<point x="344" y="2" type="curve" smooth="yes"/>
			<point x="202" y="2"/>
			<point x="101" y="127"/>
		</contour>
		<contour>
			<point x="440" y="0" type="curve"/>
			<point x="487" y="0" type="line"/>
			<point x="484" y="85"/>
			<point x="484" y="214"/>
			<point x="484" y="321" type="curve" smooth="yes"/>
			<point x="484" y="360" type="line" smooth="yes"/>
			<point x="484" y="464"/>
			<point x="484" y="590"/>
			<point x="487" y="674" type="curve"/>
			<point x="440" y="674" type="line"/>
			<point x="443" y="590"/>
			<point x="443" y="464"/>
			<point x="443" y="360" type="curve" smooth="yes"/>
			<point x="443" y="321" type="line" smooth="yes"/>
			<point x="443" y="214"/>
			<point x="443" y="85"/>
		</contour>
		<contour>
			<point x="660" y="235" type="line"/>
			<point x="672" y="235" type="line"/>
			<point x="672" y="453" type="line"/>
			<point x="660" y="453" type="line"/>
			<point x="641" y="350" type="line"/>
			<point x="641" y="338" type="line"/>
		</contour>
		<contour>
			<point x="463" y="335" type="line"/>
			<point x="654" y="335" type="line"/>
			<point x="654" y="353" type="line"/>
			<point x="463" y="353" type="line"/>
		</contour>
		<contour>
			<point x="779" y="504" type="line"/>
			<point x="791" y="504" type="line"/>
			<point x="780" y="674" type="line"/>
			<point x="463" y="674" type="line"/>
			<point x="463" y="656" type="line"/>
			<point x="743" y="656" type="line"/>
		</contour>
		<contour>
			<point x="792" y="178" type="line"/>
			<point x="756" y="18" type="line"/>
			<point x="463" y="18" type="line"/>
			<point x="463" y="0" type="line"/>
			<point x="793" y="0" type="line"/>
			<point x="805" y="178" type="line"/>
		</contour>
	</outline>
	<anchor name="aboveUC" x="464" y="694"/>
</glyph>
<glyph name="oe" format="2">
	<unicode hex="0153"/>
	<advance width="787"/>
	<outline>
		<contour>
			<point x="239" y="446" type="curve" smooth="yes"/>
			<point x="324" y="446"/>
			<point x="387" y="373"/>
			<point x="387" y="228" type="curve" smooth="yes"/>
			<point x="387" y="82"/>
			<point x="324" y="4"/>
			<point x="239" y="4" type="curve" smooth="yes"/>
			<point x="153" y="4"/>
			<point x="90" y="76"/>
			<point x="90" y="221" type="curve" smooth="yes"/>
			<point x="90" y="367"/>
			<point x="153" y="446"/>
		</contour>
		<contour>
			<point x="239" y="-12" type="curve" smooth="yes"/>
			<point x="314" y="-12"/>
			<point x="385" y="35"/>
			<point x="414" y="129" type="curve"/>
			<point x="401" y="129" type="line"/>
			<point x="428" y="36"/>
			<point x="498" y="-12"/>
			<point x="587" y="-12" type="curve" smooth="yes"/>
			<point x="644" y="-12"/>
			<point x="704" y="17"/>
			<point x="740" y="77" type="curve"/>
			<point x="730" y="85" type="line"/>
			<point x="695" y="43"/>
			<point x="649" y="19"/>
			<point x="594" y="19" type="curve" smooth="yes"/>
			<point x="491" y="19"/>
			<point x="429" y="100"/>
			<point x="429" y="235" type="curve" smooth="yes"/>
			<point x="429" y="360"/>
			<point x="496" y="445"/>
			<point x="581" y="445" type="curve" smooth="yes"/>
			<point x="663" y="445"/>
			<point x="704" y="375"/>
			<point x="704" y="296" type="curve" smooth="yes"/>
			<point x="704" y="263"/>
			<point x="695" y="257"/>
			<point x="671" y="257" type="curve" smooth="yes"/>
			<point x="407" y="257" type="line"/>
			<point x="407" y="240" type="line"/>
			<point x="737" y="240" type="line"/>
			<point x="741" y="254"/>
			<point x="742" y="270"/>
			<point x="742" y="288" type="curve" smooth="yes"/>
			<point x="742" y="386"/>
			<point x="685" y="461"/>
			<point x="584" y="461" type="curve" smooth="yes"/>
			<point x="505" y="461"/>
			<point x="434" y="407"/>
			<point x="404" y="320" type="curve"/>
			<point x="416" y="320" type="line"/>
			<point x="389" y="417"/>
			<point x="316" y="461"/>
			<point x="239" y="461" type="curve" smooth="yes"/>
			<point x="139" y="461"/>
			<point x="47" y="382"/>
			<point x="47" y="221" type="curve" smooth="yes"/>
			<point x="47" y="62"/>
			<point x="139" y="-12"/>
		</contour>
	</outline>
	<anchor name="aboveLC" x="410" y="469"/>
</glyph>
<glyph name="Tbar" format="2">
	<unicode hex="0166"/>
	<advance width="560"/>
	<outline>
		<contour>
			<point x="78" y="338" type="line"/>
			<point x="481" y="338" type="line"/>
			<point x="481" y="354" type="line"/>
			<point x="78" y="354" type="line"/>
		</contour>
		<component base="T"/>
	</outline>
</glyph>
<glyph name="tbar" format="2">
	<unicode hex="0167"/>
	<advance width="299"/>
	<outline>
		<contour>
			<point x="13" y="242" type="line"/>
			<point x="270" y="242" type="line"/>
			<point x="270" y="258" type="line"/>
			<point x="13" y="258" type="line"/>
		</contour>
		<component base="t"/>
	</outline>
</glyph>
<glyph name="Uogonek" format="2">
	<unicode hex="0172"/>
	<advance width="680"/>
	<outline>
		<contour>
			<point x="413" y="-222" type="curve" smooth="yes"/>
			<point x="448" y="-222"/>
			<point x="481" y="-205"/>
			<point x="499" y="-178" type="curve"/>
			<point x="492" y="-170" type="line"/>
			<point x="472" y="-189"/>
			<point x="450" y="-196"/>
			<point x="426" y="-196" type="curve" smooth="yes"/>
			<point x="387" y="-196"/>
			<point x="357" y="-169"/>
			<point x="357" y="-125" type="curve" smooth="yes"/>
			<point x="357" y="-70"/>
			<point x="411" y="-17"/>
			<point x="457" y="12" type="curve" smooth="yes"/>
			<point x="520" y="52"/>
			<point x="553" y="124"/>
			<point x="553" y="243" type="curve" smooth="yes"/>
			<point x="553" y="674" type="line"/>
			<point x="533" y="674" type="line"/>
			<point x="533" y="255" type="line" smooth="yes"/>
			<point x="533" y="80"/>
			<point x="471" y="15"/>
			<point x="346" y="15" type="curve" smooth="yes"/>
			<point x="243" y="15"/>
			<point x="171" y="76"/>
			<point x="171" y="239" type="curve" smooth="yes"/>
			<point x="171" y="333" type="line" smooth="yes"/>
			<point x="171" y="482"/>
			<point x="171" y="580"/>
			<point x="174" y="674" type="curve"/>
			<point x="127" y="674" type="line"/>
			<point x="130" y="580"/>
			<point x="130" y="482"/>
			<point x="130" y="333" type="curve" smooth="yes"/>
			<point x="130" y="232" type="line" smooth="yes"/>
			<point x="130" y="56"/>
			<point x="217" y="-13"/>
			<point x="342" y="-13" type="curve" smooth="yes"/>
			<point x="373" y="-13"/>
			<point x="400" y="-10"/>
			<point x="424" y="-1" type="curve"/>
			<point x="434" y="8" type="line"/>
			<point x="387" y="-22"/>
			<point x="326" y="-71"/>
			<point x="326" y="-136" type="curve" smooth="yes"/>
			<point x="326" y="-186"/>
			<point x="363" y="-222"/>
		</contour>
		<contour>
			<point x="48" y="662" type="line"/>
			<point x="141" y="653" type="line"/>
			<point x="160" y="653" type="line"/>
			<point x="262" y="662" type="line"/>
			<point x="262" y="674" type="line"/>
			<point x="48" y="674" type="line"/>
		</contour>
		<contour>
			<point x="443" y="662" type="line"/>
			<point x="540" y="654" type="line"/>
			<point x="547" y="654" type="line"/>
			<point x="634" y="662" type="line"/>
			<point x="634" y="674" type="line"/>
			<point x="443" y="674" type="line"/>
		</contour>
	</outline>
	<anchor name="aboveUC" x="352" y="694"/>
	<anchor name="belowLC" x="343" y="-20"/>
</glyph>
<glyph name="uogonek" format="2">
	<unicode hex="0173"/>
	<advance width="550"/>
	<outline>
		<contour>
			<point x="371" y="-135" type="curve" smooth="yes"/>
			<point x="371" y="-189"/>
			<point x="409" y="-222"/>
			<point x="458" y="-222" type="curve" smooth="yes"/>
			<point x="492" y="-222"/>
			<point x="524" y="-206"/>
			<point x="544" y="-180" type="curve"/>
			<point x="537" y="-172" type="line"/>
			<point x="516" y="-189"/>
			<point x="495" y="-196"/>
			<point x="473" y="-196" type="curve" smooth="yes"/>
			<point x="431" y="-196"/>
			<point x="403" y="-168"/>
			<point x="403" y="-121" type="curve" smooth="yes"/>
			<point x="403" y="-71"/>
			<point x="433" y="-29"/>
			<point x="467" y="0" type="curve"/>
			<point x="453" y="0" type="line"/>
			<point x="410" y="-31"/>
			<point x="371" y="-78"/>
		</contour>
		<component base="u"/>
	</outline>
	<anchor name="aboveLC" x="269" y="469"/>
	<anchor name="belowLC" x="268" y="-20"/>
</glyph>
<glyph name="longs" format="2">
	<unicode hex="017F"/>
	<advance width="317"/>
	<outline>
		<contour>
			<point x="39" y="0" type="line"/>
			<point x="248" y="0" type="line"/>
			<point x="248" y="12" type="line"/>
			<point x="143" y="20" type="line"/>
			<point x="132" y="20" type="line"/>
			<point x="39" y="12" type="line"/>
		</contour>
		<contour>
			<point x="115" y="0" type="curve"/>
			<point x="159" y="0" type="line"/>
			<point x="157" y="45"/>
			<point x="156" y="147"/>
			<point x="156" y="209" type="curve" smooth="yes"/>
			<point x="156" y="441" type="line" smooth="yes"/>
			<point x="156" y="604"/>
			<point x="181" y="671"/>
			<point x="223" y="712" type="curve" smooth="yes"/>
			<point x="244" y="733"/>
			<point x="273" y="745"/>
			<point x="295" y="745" type="curve"/>
			<point x="293" y="749" type="line"/>
			<point x="277" y="750" type="line"/>
			<point x="261" y="746" type="line"/>
			<point x="289" y="725" type="line" smooth="yes"/>
			<point x="310" y="710"/>
			<point x="327" y="702"/>
			<point x="343" y="702" type="curve" smooth="yes"/>
			<point x="365" y="702"/>
			<point x="377" y="711"/>
			<point x="379" y="728" type="curve"/>
			<point x="371" y="748"/>
			<point x="341" y="758"/>
			<point x="311" y="758" type="curve" smooth="yes"/>
			<point x="271" y="758"/>
			<point x="235" y="745"/>
			<point x="206" y="718" type="curve" smooth="yes"/>
			<point x="154" y="670"/>
			<point x="118" y="601"/>
			<point x="118" y="436" type="curve" smooth="yes"/>
			<point x="118" y="209" type="line" smooth="yes"/>
			<point x="118" y="147"/>
			<point x="117" y="45"/>
		</contour>
	</outline>
</glyph>
<glyph name="florin" format="2">
	<unicode hex="0192"/>
	<advance width="463"/>
	<outline>
		<contour>
			<point x="104" y="359" type="line"/>
			<point x="387" y="359" type="line"/>
			<point x="387" y="374" type="line"/>
			<point x="104" y="374" type="line"/>
		</contour>
		<contour>
			<point x="255" y="351" type="line" smooth="yes"/>
			<point x="265" y="509"/>
			<point x="283" y="584"/>
			<point x="324" y="622" type="curve" smooth="yes"/>
			<point x="344" y="641"/>
			<point x="371" y="653"/>
			<point x="403" y="653" type="curve"/>
			<point x="371" y="653" type="line"/>
			<point x="360" y="653" type="line"/>
			<point x="388" y="632" type="line" smooth="yes"/>
			<point x="408" y="617"/>
			<point x="425" y="609"/>
			<point x="442" y="609" type="curve" smooth="yes"/>
			<point x="464" y="609"/>
			<point x="476" y="618"/>
			<point x="477" y="634" type="curve"/>
			<point x="470" y="655"/>
			<point x="440" y="665"/>
			<point x="410" y="665" type="curve" smooth="yes"/>
			<point x="370" y="665"/>
			<point x="333" y="652"/>
			<point x="304" y="625" type="curve" smooth="yes"/>
			<point x="253" y="577"/>
			<point x="226" y="511"/>
			<point x="216" y="351" type="curve" smooth="yes"/>
			<point x="207" y="214" type="line" smooth="yes"/>
			<point x="197" y="56"/>
			<point x="179" y="-19"/>
			<point x="138" y="-57" type="curve" smooth="yes"/>
			<point x="118" y="-76"/>
			<point x="90" y="-88"/>
			<point x="59" y="-88" type="curve"/>
			<point x="91" y="-88" type="line"/>
			<point x="100" y="-88" type="line"/>
			<point x="72" y="-67" type="line" smooth="yes"/>
			<point x="51" y="-51"/>
			<point x="34" y="-43"/>
			<point x="17" y="-43" type="curve" smooth="yes"/>
			<point x="-4" y="-43"/>
			<point x="-17" y="-53"/>
			<point x="-18" y="-69" type="curve"/>
			<point x="-10" y="-90"/>
			<point x="22" y="-100"/>
			<point x="52" y="-100" type="curve" smooth="yes"/>
			<point x="92" y="-100"/>
			<point x="129" y="-87"/>
			<point x="158" y="-60" type="curve" smooth="yes"/>
			<point x="209" y="-11"/>
			<point x="235" y="54"/>
			<point x="246" y="214" type="curve" smooth="yes"/>
		</contour>
	</outline>
</glyph>
<glyph name="Uhorn" format="2">
	<unicode hex="01AF"/>
	<advance width="680"/>
	<outline>
		<contour>
			<point x="342" y="-13" type="curve" smooth="yes"/>
			<point x="479" y="-13"/>
			<point x="553" y="67"/>
			<point x="553" y="243" type="curve" smooth="yes"/>
			<point x="553" y="674" type="line"/>
			<point x="533" y="674" type="line"/>
			<point x="533" y="255" type="line" smooth="yes"/>
			<point x="533" y="80"/>
			<point x="471" y="15"/>
			<point x="346" y="15" type="curve" smooth="yes"/>
			<point x="243" y="15"/>
			<point x="171" y="76"/>
			<point x="171" y="239" type="curve" smooth="yes"/>
			<point x="171" y="333" type="line" smooth="yes"/>
			<point x="171" y="482"/>
			<point x="171" y="580"/>
			<point x="174" y="674" type="curve"/>
			<point x="127" y="674" type="line"/>
			<point x="130" y="580"/>
			<point x="130" y="482"/>
			<point x="130" y="333" type="curve" smooth="yes"/>
			<point x="130" y="232" type="line" smooth="yes"/>
			<point x="130" y="56"/>
			<point x="217" y="-13"/>
		</contour>
		<contour>
			<point x="550" y="654" type="line"/>
			<point x="608" y="656"/>
			<point x="650" y="673"/>
			<point x="650" y="729" type="curve" smooth="yes"/>
			<point x="650" y="752"/>
			<point x="644" y="775"/>
			<point x="637" y="788" type="curve"/>
			<point x="632" y="791"/>
			<point x="626" y="793"/>
			<point x="620" y="793" type="curve" smooth="yes"/>
			<point x="609" y="793"/>
			<point x="600" y="785"/>
			<point x="600" y="771" type="curve" smooth="yes"/>
			<point x="600" y="752"/>
			<point x="625" y="732"/>
			<point x="625" y="708" type="curve" smooth="yes"/>
			<point x="625" y="688"/>
			<point x="606" y="674"/>
			<point x="550" y="674" type="curve"/>
		</contour>
		<contour>
			<point x="48" y="662" type="line"/>
			<point x="141" y="653" type="line"/>
			<point x="160" y="653" type="line"/>
			<point x="262" y="662" type="line"/>
			<point x="262" y="674" type="line"/>
			<point x="48" y="674" type="line"/>
		</contour>
		<contour>
			<point x="443" y="662" type="line"/>
			<point x="540" y="654" type="line"/>
			<point x="549" y="654" type="line"/>
			<point x="549" y="674" type="line"/>
			<point x="443" y="674" type="line"/>
		</contour>
	</outline>
	<anchor name="aboveUC" x="352" y="694"/>
	<anchor name="belowLC" x="343" y="-20"/>
</glyph>
<glyph name="dotlessj" format="2">
	<unicode hex="0237"/>
	<advance width="252"/>
	<outline>
		<contour>
			<point x="15" y="-263" type="curve" smooth="yes"/>
			<point x="51" y="-263"/>
			<point x="78" y="-251"/>
			<point x="103" y="-224" type="curve" smooth="yes"/>
			<point x="151" y="-175"/>
			<point x="156" y="-109"/>
			<point x="156" y="49" type="curve" smooth="yes"/>
			<point x="156" y="336" type="line"/>
			<point x="159" y="450" type="line"/>
			<point x="152" y="456" type="line"/>
			<point x="35" y="435" type="line"/>
			<point x="35" y="424" type="line"/>
			<point x="115" y="417" type="line"/>
			<point x="117" y="363"/>
			<point x="118" y="314"/>
			<point x="118" y="255" type="curve" smooth="yes"/>
			<point x="118" y="27" type="line" smooth="yes"/>
			<point x="118" y="-86"/>
			<point x="116" y="-172"/>
			<point x="88" y="-215" type="curve" smooth="yes"/>
			<point x="77" y="-231"/>
			<point x="65" y="-241"/>
			<point x="48" y="-248" type="curve"/>
			<point x="48" y="-252" type="line"/>
			<point x="61" y="-252" type="line"/>
			<point x="61" y="-246" type="line"/>
			<point x="38" y="-228" type="line" smooth="yes"/>
			<point x="21" y="-214"/>
			<point x="4" y="-207"/>
			<point x="-13" y="-207" type="curve" smooth="yes"/>
			<point x="-34" y="-207"/>
			<point x="-47" y="-216"/>
			<point x="-48" y="-232" type="curve"/>
			<point x="-40" y="-253"/>
			<point x="-14" y="-263"/>
		</contour>
	</outline>
	<anchor name="aboveLC" x="137" y="469"/>
</glyph>
<glyph name="alphalatin" format="2">
	<unicode hex="0251"/>
	<advance width="521"/>
	<outline>
		<contour>
			<point x="225" y="-12" type="curve" smooth="yes"/>
			<point x="285" y="-12"/>
			<point x="338" y="20"/>
			<point x="378" y="82" type="curve"/>
			<point x="388" y="82" type="line"/>
			<point x="381" y="102" type="line"/>
			<point x="337" y="41"/>
			<point x="291" y="10"/>
			<point x="235" y="10" type="curve" smooth="yes"/>
			<point x="151" y="10"/>
			<point x="88" y="80"/>
			<point x="88" y="217" type="curve" smooth="yes"/>
			<point x="88" y="371"/>
			<point x="164" y="439"/>
			<point x="244" y="439" type="curve" smooth="yes"/>
			<point x="300" y="439"/>
			<point x="336" y="416"/>
			<point x="382" y="356" type="curve"/>
			<point x="390" y="375" type="line"/>
			<point x="380" y="375" type="line"/>
			<point x="342" y="438"/>
			<point x="290" y="461"/>
			<point x="239" y="461" type="curve" smooth="yes"/>
			<point x="140" y="461"/>
			<point x="47" y="379"/>
			<point x="47" y="215" type="curve" smooth="yes"/>
			<point x="47" y="65"/>
			<point x="128" y="-12"/>
		</contour>
		<contour>
			<point x="374" y="85" type="line"/>
			<point x="374" y="62" type="line"/>
			<point x="374" y="14"/>
			<point x="397" y="-11"/>
			<point x="439" y="-11" type="curve" smooth="yes"/>
			<point x="467" y="-11"/>
			<point x="490" y="3"/>
			<point x="502" y="26" type="curve"/>
			<point x="495" y="33" type="line"/>
			<point x="479" y="16"/>
			<point x="465" y="9"/>
			<point x="450" y="9" type="curve" smooth="yes"/>
			<point x="426" y="9"/>
			<point x="412" y="22"/>
			<point x="412" y="62" type="curve" smooth="yes"/>
			<point x="412" y="257" type="line"/>
			<point x="416" y="450" type="line"/>
			<point x="406" y="452" type="line"/>
			<point x="374" y="376" type="line"/>
			<point x="374" y="372" type="line"/>
		</contour>
	</outline>
	<anchor name="aboveLC" x="251" y="469"/>
	<anchor name="belowLC" x="244" y="-20"/>
</glyph>
<glyph name="schwa" format="2">
	<unicode hex="0259"/>
	<advance width="452"/>
	<outline>
		<contour>
			<point x="212" y="-12" type="curve" smooth="yes"/>
			<point x="319" y="-12"/>
			<point x="405" y="85"/>
			<point x="405" y="228" type="curve" smooth="yes"/>
			<point x="405" y="380"/>
			<point x="321" y="461"/>
			<point x="205" y="461" type="curve" smooth="yes"/>
			<point x="148" y="461"/>
			<point x="88" y="433"/>
			<point x="53" y="372" type="curve"/>
			<point x="62" y="365" type="line"/>
			<point x="97" y="407"/>
			<point x="143" y="431"/>
			<point x="198" y="431" type="curve" smooth="yes"/>
			<point x="301" y="431"/>
			<point x="363" y="350"/>
			<point x="363" y="215" type="curve" smooth="yes"/>
			<point x="363" y="90"/>
			<point x="300" y="4"/>
			<point x="215" y="4" type="curve" smooth="yes"/>
			<point x="132" y="4"/>
			<point x="83" y="73"/>
			<point x="83" y="172" type="curve" smooth="yes"/>
			<point x="83" y="205"/>
			<point x="92" y="212"/>
			<point x="116" y="212" type="curve" smooth="yes"/>
			<point x="386" y="212" type="line"/>
			<point x="386" y="229" type="line"/>
			<point x="50" y="229" type="line"/>
			<point x="46" y="214"/>
			<point x="45" y="199"/>
			<point x="45" y="180" type="curve" smooth="yes"/>
			<point x="45" y="63"/>
			<point x="110" y="-12"/>
		</contour>
	</outline>
	<anchor name="aboveLC" x="244" y="469"/>
	<anchor name="belowLC" x="245" y="-20"/>
</glyph>
<glyph name="gscript" format="2">
	<unicode hex="0261"/>
	<advance width="500"/>
	<outline>
		<contour>
			<point x="216" y="-263" type="curve" smooth="yes"/>
			<point x="271" y="-263"/>
			<point x="319" y="-246"/>
			<point x="357" y="-207" type="curve" smooth="yes"/>
			<point x="390" y="-173"/>
			<point x="412" y="-123"/>
			<point x="412" y="-49" type="curve"/>
			<point x="412" y="257" type="line"/>
			<point x="416" y="450" type="line"/>
			<point x="406" y="452" type="line"/>
			<point x="374" y="376" type="line"/>
			<point x="374" y="373" type="line"/>
			<point x="374" y="87" type="line"/>
			<point x="374" y="83" type="line"/>
			<point x="374" y="37"/>
			<point x="374" y="-9"/>
			<point x="374" y="-55" type="curve" smooth="yes"/>
			<point x="374" y="-116"/>
			<point x="361" y="-161"/>
			<point x="336" y="-193" type="curve" smooth="yes"/>
			<point x="306" y="-230"/>
			<point x="267" y="-246"/>
			<point x="216" y="-246" type="curve" smooth="yes"/>
			<point x="179" y="-246"/>
			<point x="133" y="-237"/>
			<point x="104" y="-208" type="curve"/>
			<point x="124" y="-231" type="line"/>
			<point x="107" y="-154" type="line" smooth="yes"/>
			<point x="102" y="-137"/>
			<point x="93" y="-129"/>
			<point x="77" y="-129" type="curve" smooth="yes"/>
			<point x="63" y="-129"/>
			<point x="55" y="-137"/>
			<point x="53" y="-153" type="curve"/>
			<point x="67" y="-222"/>
			<point x="141" y="-263"/>
		</contour>
		<contour>
			<point x="225" y="-12" type="curve" smooth="yes"/>
			<point x="285" y="-12"/>
			<point x="338" y="20"/>
			<point x="378" y="82" type="curve"/>
			<point x="388" y="82" type="line"/>
			<point x="381" y="102" type="line"/>
			<point x="337" y="41"/>
			<point x="291" y="10"/>
			<point x="235" y="10" type="curve" smooth="yes"/>
			<point x="151" y="10"/>
			<point x="88" y="80"/>
			<point x="88" y="217" type="curve" smooth="yes"/>
			<point x="88" y="371"/>
			<point x="164" y="439"/>
			<point x="244" y="439" type="curve" smooth="yes"/>
			<point x="300" y="439"/>
			<point x="336" y="416"/>
			<point x="382" y="356" type="curve"/>
			<point x="390" y="375" type="line"/>
			<point x="380" y="375" type="line"/>
			<point x="342" y="438"/>
			<point x="290" y="461"/>
			<point x="239" y="461" type="curve" smooth="yes"/>
			<point x="140" y="461"/>
			<point x="47" y="379"/>
			<point x="47" y="215" type="curve" smooth="yes"/>
			<point x="47" y="65"/>
			<point x="128" y="-12"/>
		</contour>
	</outline>
	<anchor name="aboveLC" x="251" y="469"/>
	<anchor name="belowLC" x="227" y="-283"/>
</glyph>
<glyph name="h.sups" format="2">
	<unicode hex="02B0"/>
	<advance width="374"/>
	<outline>
		<contour>
			<point x="76" y="433" type="line"/>
			<point x="111" y="433" type="line"/>
			<point x="111" y="656" type="line"/>
			<point x="111" y="656" type="line"/>
			<point x="111" y="892" type="line"/>
			<point x="106" y="897" type="line"/>
			<point x="24" y="882" type="line"/>
			<point x="24" y="874" type="line"/>
			<point x="76" y="869" type="line"/>
		</contour>
		<contour>
			<point x="271" y="433" type="line"/>
			<point x="307" y="433" type="line"/>
			<point x="307" y="623" type="line" smooth="yes"/>
			<point x="307" y="698"/>
			<point x="278" y="723"/>
			<point x="228" y="723" type="curve" smooth="yes"/>
			<point x="184" y="723"/>
			<point x="141" y="697"/>
			<point x="104" y="653" type="curve"/>
			<point x="101" y="653" type="line"/>
			<point x="105" y="644" type="line"/>
			<point x="147" y="686"/>
			<point x="184" y="700"/>
			<point x="213" y="700" type="curve" smooth="yes"/>
			<point x="253" y="700"/>
			<point x="271" y="682"/>
			<point x="271" y="624" type="curve" smooth="yes"/>
		</contour>
		<contour>
			<point x="25" y="433" type="line"/>
			<point x="160" y="433" type="line"/>
			<point x="160" y="442" type="line"/>
			<point x="98" y="448" type="line"/>
			<point x="88" y="448" type="line"/>
			<point x="25" y="442" type="line"/>
		</contour>
		<contour>
			<point x="220" y="433" type="line"/>
			<point x="354" y="433" type="line"/>
			<point x="354" y="442" type="line"/>
			<point x="293" y="448" type="line"/>
			<point x="283" y="448" type="line"/>
			<point x="220" y="442" type="line"/>
		</contour>
	</outline>
</glyph>
<glyph name="r.sups" format="2">
	<unicode hex="02B3"/>
	<advance width="260"/>
	<outline>
		<contour>
			<point x="76" y="433" type="line"/>
			<point x="111" y="433" type="line"/>
			<point x="111" y="624" type="line"/>
			<point x="111" y="625" type="line"/>
			<point x="111" y="715" type="line"/>
			<point x="106" y="720" type="line"/>
			<point x="23" y="703" type="line"/>
			<point x="23" y="695" type="line"/>
			<point x="76" y="689" type="line"/>
		</contour>
		<contour>
			<point x="108" y="606" type="line"/>
			<point x="126" y="662"/>
			<point x="159" y="697"/>
			<point x="192" y="707" type="curve"/>
			<point x="173" y="705" type="line"/>
			<point x="187" y="693" type="line" smooth="yes"/>
			<point x="198" y="683"/>
			<point x="210" y="677"/>
			<point x="223" y="677" type="curve" smooth="yes"/>
			<point x="238" y="677"/>
			<point x="250" y="684"/>
			<point x="252" y="700" type="curve"/>
			<point x="247" y="715"/>
			<point x="231" y="723"/>
			<point x="210" y="723" type="curve" smooth="yes"/>
			<point x="167" y="723"/>
			<point x="129" y="687"/>
			<point x="109" y="630" type="curve"/>
			<point x="101" y="630" type="line"/>
		</contour>
		<contour>
			<point x="25" y="433" type="line"/>
			<point x="170" y="433" type="line"/>
			<point x="170" y="442" type="line"/>
			<point x="98" y="448" type="line"/>
			<point x="88" y="448" type="line"/>
			<point x="25" y="442" type="line"/>
		</contour>
	</outline>
</glyph>
<glyph name="w.sups" format="2">
	<unicode hex="02B7"/>
	<advance width="480"/>
	<outline>
		<contour>
			<point x="141" y="431" type="line"/>
			<point x="156" y="431" type="line"/>
			<point x="246" y="684" type="line"/>
			<point x="238" y="684" type="line"/>
			<point x="328" y="431" type="line"/>
			<point x="342" y="431" type="line"/>
			<point x="441" y="715" type="line"/>
			<point x="426" y="715" type="line"/>
			<point x="341" y="464" type="line"/>
			<point x="349" y="464" type="line"/>
			<point x="263" y="715" type="line"/>
			<point x="242" y="715" type="line"/>
			<point x="154" y="464" type="line"/>
			<point x="165" y="464" type="line"/>
			<point x="79" y="715" type="line"/>
			<point x="38" y="715" type="line"/>
		</contour>
		<contour>
			<point x="6" y="706" type="line"/>
			<point x="60" y="700" type="line"/>
			<point x="72" y="700" type="line"/>
			<point x="134" y="706" type="line"/>
			<point x="134" y="715" type="line"/>
			<point x="6" y="715" type="line"/>
		</contour>
		<contour>
			<point x="193" y="706" type="line"/>
			<point x="244" y="701" type="line"/>
			<point x="265" y="701" type="line"/>
			<point x="313" y="706" type="line"/>
			<point x="313" y="715" type="line"/>
			<point x="193" y="715" type="line"/>
		</contour>
		<contour>
			<point x="371" y="706" type="line"/>
			<point x="426" y="701" type="line"/>
			<point x="432" y="701" type="line"/>
			<point x="475" y="706" type="line"/>
			<point x="475" y="715" type="line"/>
			<point x="371" y="715" type="line"/>
		</contour>
	</outline>
</glyph>
<glyph name="y.sups" format="2">
	<unicode hex="02B8"/>
	<advance width="321"/>
	<outline>
		<contour>
			<point x="46" y="270" type="curve" smooth="yes"/>
			<point x="94" y="270"/>
			<point x="127" y="319"/>
			<point x="157" y="396" type="curve" smooth="yes"/>
			<point x="282" y="715" type="line"/>
			<point x="267" y="715" type="line"/>
			<point x="167" y="456" type="line"/>
			<point x="143" y="397" type="line" smooth="yes"/>
			<point x="116" y="331"/>
			<point x="92" y="292"/>
			<point x="56" y="283" type="curve"/>
			<point x="69" y="282" type="line"/>
			<point x="78" y="286" type="line"/>
			<point x="64" y="296" type="line" smooth="yes"/>
			<point x="51" y="305"/>
			<point x="39" y="311"/>
			<point x="27" y="311" type="curve" smooth="yes"/>
			<point x="11" y="311"/>
			<point x="1" y="303"/>
			<point x="-1" y="292" type="curve"/>
			<point x="5" y="277"/>
			<point x="26" y="270"/>
		</contour>
		<contour>
			<point x="6" y="706" type="line"/>
			<point x="60" y="700" type="line"/>
			<point x="73" y="700" type="line"/>
			<point x="138" y="706" type="line"/>
			<point x="138" y="715" type="line"/>
			<point x="6" y="715" type="line"/>
		</contour>
		<contour>
			<point x="210" y="706" type="line"/>
			<point x="267" y="701" type="line"/>
			<point x="272" y="701" type="line"/>
			<point x="316" y="706" type="line"/>
			<point x="316" y="715" type="line"/>
			<point x="210" y="715" type="line"/>
		</contour>
		<contour>
			<point x="158" y="427" type="line"/>
			<point x="167" y="443" type="line"/>
			<point x="179" y="464" type="line"/>
			<point x="79" y="715" type="line"/>
			<point x="38" y="715" type="line"/>
		</contour>
	</outline>
</glyph>
<glyph name="ringhalfrightmod" format="2">
	<unicode hex="02BE"/>
	<advance width="139"/>
	<outline>
		<contour>
			<point x="23" y="563" type="line"/>
			<point x="75" y="565"/>
			<point x="117" y="599"/>
			<point x="117" y="654" type="curve" smooth="yes"/>
			<point x="117" y="708"/>
			<point x="75" y="743"/>
			<point x="23" y="745" type="curve"/>
			<point x="23" y="723" type="line"/>
			<point x="62" y="720"/>
			<point x="89" y="691"/>
			<point x="89" y="654" type="curve" smooth="yes"/>
			<point x="89" y="616"/>
			<point x="62" y="587"/>
			<point x="23" y="585" type="curve"/>
		</contour>
	</outline>
</glyph>
<glyph name="ringhalfleftmod" format="2">
	<unicode hex="02BF"/>
	<advance width="139"/>
	<outline>
		<contour>
			<point x="23" y="654" type="curve" smooth="yes"/>
			<point x="23" y="599"/>
			<point x="64" y="565"/>
			<point x="116" y="563" type="curve"/>
			<point x="116" y="585" type="line"/>
			<point x="77" y="588"/>
			<point x="50" y="616"/>
			<point x="50" y="654" type="curve" smooth="yes"/>
			<point x="50" y="692"/>
			<point x="77" y="721"/>
			<point x="116" y="723" type="curve"/>
			<point x="116" y="745" type="line"/>
			<point x="64" y="743"/>
			<point x="23" y="709"/>
		</contour>
	</outline>
</glyph>
<glyph name="verticallinemod" format="2">
	<unicode hex="02C8"/>
	<advance width="90"/>
	<outline>
		<contour>
			<point x="33" y="559" type="line"/>
			<point x="57" y="559" type="line"/>
			<point x="63" y="745" type="line"/>
			<point x="28" y="745" type="line"/>
		</contour>
	</outline>
</glyph>
<glyph name="colontriangularmod" format="2">
	<unicode hex="02D0"/>
	<advance width="286"/>
	<outline>
		<contour>
			<point x="100" y="473" type="line"/>
			<point x="140" y="401" type="line"/>
			<point x="145" y="401" type="line"/>
			<point x="186" y="473" type="line"/>
			<point x="184" y="476" type="line"/>
			<point x="102" y="476" type="line"/>
		</contour>
		<contour>
			<point x="100" y="4" type="line"/>
			<point x="102" y="0" type="line"/>
			<point x="184" y="0" type="line"/>
			<point x="186" y="4" type="line"/>
			<point x="145" y="75" type="line"/>
			<point x="140" y="75" type="line"/>
		</contour>
	</outline>
</glyph>
<glyph name="l.sups" format="2">
	<unicode hex="02E1"/>
	<advance width="182"/>
	<outline>
		<contour>
			<point x="25" y="433" type="line"/>
			<point x="160" y="433" type="line"/>
			<point x="160" y="442" type="line"/>
			<point x="98" y="448" type="line"/>
			<point x="88" y="448" type="line"/>
			<point x="25" y="442" type="line"/>
		</contour>
		<contour>
			<point x="76" y="433" type="line"/>
			<point x="111" y="433" type="line"/>
			<point x="111" y="892" type="line"/>
			<point x="106" y="897" type="line"/>
			<point x="24" y="882" type="line"/>
			<point x="24" y="874" type="line"/>
			<point x="76" y="869" type="line"/>
		</contour>
	</outline>
</glyph>
<glyph name="x.sups" format="2">
	<unicode hex="02E3"/>
	<advance width="309"/>
	<outline>
		<contour>
			<point x="6" y="433" type="line"/>
			<point x="105" y="433" type="line"/>
			<point x="105" y="442" type="line"/>
			<point x="58" y="446" type="line"/>
			<point x="52" y="446" type="line"/>
			<point x="6" y="442" type="line"/>
		</contour>
		<contour>
			<point x="10" y="706" type="line"/>
			<point x="63" y="700" type="line"/>
			<point x="75" y="700" type="line"/>
			<point x="133" y="706" type="line"/>
			<point x="133" y="715" type="line"/>
			<point x="10" y="715" type="line"/>
		</contour>
		<contour>
			<point x="233" y="433" type="line"/>
			<point x="276" y="433" type="line"/>
			<point x="168" y="584" type="line"/>
			<point x="79" y="715" type="line"/>
			<point x="36" y="715" type="line"/>
			<point x="140" y="568" type="line"/>
		</contour>
		<contour>
			<point x="180" y="433" type="line"/>
			<point x="303" y="433" type="line"/>
			<point x="303" y="442" type="line"/>
			<point x="249" y="448" type="line"/>
			<point x="236" y="448" type="line"/>
			<point x="180" y="442" type="line"/>
		</contour>
		<contour>
			<point x="199" y="706" type="line"/>
			<point x="247" y="701" type="line"/>
			<point x="253" y="701" type="line"/>
			<point x="297" y="706" type="line"/>
			<point x="297" y="715" type="line"/>
			<point x="199" y="715" type="line"/>
		</contour>
		<contour>
			<point x="37" y="433" type="line"/>
			<point x="54" y="433" type="line"/>
			<point x="156" y="574" type="line"/>
			<point x="147" y="581" type="line"/>
		</contour>
		<contour>
			<point x="157" y="566" type="line"/>
			<point x="268" y="715" type="line"/>
			<point x="251" y="715" type="line"/>
			<point x="149" y="575" type="line"/>
		</contour>
	</outline>
</glyph>
<glyph name="gravecmb" format="2">
	<unicode hex="0300"/>
	<outline>
		<contour>
			<point x="46" y="542" type="line"/>
			<point x="14" y="588"/>
			<point x="-24" y="641"/>
			<point x="-52" y="679" type="curve" smooth="yes"/>
			<point x="-69" y="703"/>
			<point x="-78" y="712"/>
			<point x="-89" y="712" type="curve" smooth="yes"/>
			<point x="-100" y="712"/>
			<point x="-110" y="706"/>
			<point x="-110" y="692" type="curve" smooth="yes"/>
			<point x="-110" y="682"/>
			<point x="-102" y="672"/>
			<point x="-81" y="651" type="curve" smooth="yes"/>
			<point x="-55" y="626"/>
			<point x="-26" y="598"/>
			<point x="36" y="535" type="curve"/>
		</contour>
	</outline>
	<anchor name="_aboveLC" x="0" y="469"/>
	<anchor name="aboveLC" x="0" y="712"/>
</glyph>
<glyph name="acutecmb" format="2">
	<unicode hex="0301"/>
	<outline>
		<contour>
			<point x="-46" y="542" type="curve"/>
			<point x="-36" y="535" type="line"/>
			<point x="26" y="598"/>
			<point x="55" y="626"/>
			<point x="81" y="651" type="curve" smooth="yes"/>
			<point x="102" y="672"/>
			<point x="110" y="682"/>
			<point x="110" y="692" type="curve" smooth="yes"/>
			<point x="110" y="706"/>
			<point x="100" y="712"/>
			<point x="89" y="712" type="curve" smooth="yes"/>
			<point x="78" y="712"/>
			<point x="69" y="703"/>
			<point x="52" y="679" type="curve" smooth="yes"/>
			<point x="24" y="641"/>
			<point x="-14" y="588"/>
		</contour>
	</outline>
	<anchor name="_aboveLC" x="0" y="469"/>
	<anchor name="aboveLC" x="0" y="712"/>
</glyph>
<glyph name="tildecmb" format="2">
	<unicode hex="0303"/>
	<outline>
		<contour>
			<point x="-141" y="573" type="curve"/>
			<point x="-129" y="570" type="line"/>
			<point x="-117" y="617"/>
			<point x="-99" y="644"/>
			<point x="-67" y="644" type="curve" smooth="yes"/>
			<point x="-41" y="644"/>
			<point x="-24" y="621"/>
			<point x="-3" y="600" type="curve" smooth="yes"/>
			<point x="18" y="580"/>
			<point x="36" y="566"/>
			<point x="65" y="566" type="curve" smooth="yes"/>
			<point x="109" y="566"/>
			<point x="132" y="607"/>
			<point x="141" y="663" type="curve"/>
			<point x="129" y="665" type="line"/>
			<point x="117" y="619"/>
			<point x="99" y="592"/>
			<point x="67" y="592" type="curve" smooth="yes"/>
			<point x="41" y="592"/>
			<point x="24" y="614"/>
			<point x="3" y="636" type="curve" smooth="yes"/>
			<point x="-18" y="656"/>
			<point x="-36" y="670"/>
			<point x="-65" y="670" type="curve" smooth="yes"/>
			<point x="-109" y="670"/>
			<point x="-132" y="629"/>
		</contour>
	</outline>
	<anchor name="_aboveLC" x="0" y="469"/>
	<anchor name="aboveLC" x="0" y="670"/>
</glyph>
<glyph name="macroncmb" format="2">
	<unicode hex="0304"/>
	<outline>
		<contour>
			<point x="-113" y="596" type="line"/>
			<point x="113" y="596" type="line"/>
			<point x="113" y="626" type="line"/>
			<point x="-113" y="626" type="line"/>
		</contour>
	</outline>
	<anchor name="_aboveLC" x="0" y="469"/>
	<anchor name="aboveLC" x="0" y="626"/>
</glyph>
<glyph name="dotaccentcmb" format="2">
	<unicode hex="0307"/>
	<outline>
		<contour>
			<point x="0" y="602" type="curve" smooth="yes"/>
			<point x="20" y="602"/>
			<point x="37" y="616"/>
			<point x="37" y="639" type="curve" smooth="yes"/>
			<point x="37" y="662"/>
			<point x="20" y="676"/>
			<point x="0" y="676" type="curve" smooth="yes"/>
			<point x="-20" y="676"/>
			<point x="-37" y="662"/>
			<point x="-37" y="639" type="curve" smooth="yes"/>
			<point x="-37" y="616"/>
			<point x="-20" y="602"/>
		</contour>
	</outline>
	<anchor name="_aboveLC" x="0" y="469"/>
	<anchor name="aboveLC" x="0" y="676"/>
</glyph>
<glyph name="hoicmb" format="2">
	<unicode hex="0309"/>
	<outline>
		<contour>
			<point x="-15" y="536" type="line"/>
			<point x="30" y="545"/>
			<point x="70" y="570"/>
			<point x="70" y="617" type="curve" smooth="yes"/>
			<point x="70" y="669"/>
			<point x="26" y="697"/>
			<point x="-36" y="706" type="curve"/>
			<point x="-41" y="675" type="line"/>
			<point x="10" y="666"/>
			<point x="45" y="654"/>
			<point x="45" y="610" type="curve" smooth="yes"/>
			<point x="45" y="576"/>
			<point x="18" y="559"/>
			<point x="-19" y="549" type="curve"/>
		</contour>
	</outline>
	<anchor name="_aboveLC" x="0" y="469"/>
	<anchor name="aboveLC" x="0" y="706"/>
</glyph>
<glyph name="cedillacmb" format="2">
	<unicode hex="0327"/>
	<outline>
		<contour>
			<point x="-20" y="-81" type="line"/>
			<point x="37" y="-83"/>
			<point x="64" y="-107"/>
			<point x="64" y="-142" type="curve" smooth="yes"/>
			<point x="64" y="-175"/>
			<point x="40" y="-200"/>
			<point x="-6" y="-200" type="curve" smooth="yes"/>
			<point x="-22" y="-200"/>
			<point x="-39" y="-197"/>
			<point x="-55" y="-194" type="curve"/>
			<point x="-58" y="-209" type="line"/>
			<point x="-42" y="-216"/>
			<point x="-23" y="-219"/>
			<point x="-1" y="-219" type="curve" smooth="yes"/>
			<point x="60" y="-219"/>
			<point x="93" y="-186"/>
			<point x="93" y="-141" type="curve" smooth="yes"/>
			<point x="93" y="-94"/>
			<point x="51" y="-63"/>
			<point x="-7" y="-59" type="curve"/>
			<point x="0" y="-67" type="line"/>
			<point x="10" y="1" type="line"/>
			<point x="-7" y="1" type="line"/>
		</contour>
	</outline>
	<anchor name="_baseLC" x="0" y="0"/>
</glyph>
<glyph name="ogonekcmb" format="2">
	<unicode hex="0328"/>
	<outline>
		<contour>
			<point x="-83" y="-135" type="curve" smooth="yes"/>
			<point x="-83" y="-189"/>
			<point x="-45" y="-222"/>
			<point x="4" y="-222" type="curve" smooth="yes"/>
			<point x="38" y="-222"/>
			<point x="70" y="-206"/>
			<point x="89" y="-180" type="curve"/>
			<point x="83" y="-172" type="line"/>
			<point x="61" y="-189"/>
			<point x="41" y="-196"/>
			<point x="18" y="-196" type="curve" smooth="yes"/>
			<point x="-23" y="-196"/>
			<point x="-51" y="-168"/>
			<point x="-51" y="-121" type="curve" smooth="yes"/>
			<point x="-51" y="-71"/>
			<point x="-21" y="-29"/>
			<point x="13" y="0" type="curve"/>
			<point x="-1" y="8" type="line"/>
			<point x="-1" y="0" type="line"/>
			<point x="-44" y="-31"/>
			<point x="-83" y="-78"/>
		</contour>
	</outline>
	<anchor name="_ogonek" x="0" y="0"/>
</glyph>
<glyph name="Delta" format="2">
	<unicode hex="0394"/>
	<unicode hex="2206"/>
	<advance width="527"/>
	<outline>
		<contour>
			<point x="21" y="0" type="line"/>
			<point x="37" y="0" type="line"/>
			<point x="256" y="627" type="line"/>
			<point x="246" y="627" type="line"/>
			<point x="469" y="0" type="line"/>
			<point x="506" y="0" type="line"/>
			<point x="506" y="14" type="line"/>
			<point x="269" y="682" type="line"/>
			<point x="256" y="682" type="line"/>
			<point x="21" y="14" type="line"/>
		</contour>
		<contour>
			<point x="32" y="0" type="line"/>
			<point x="485" y="0" type="line"/>
			<point x="485" y="36" type="line"/>
			<point x="37" y="36" type="line"/>
		</contour>
	</outline>
</glyph>
